<svg viewBox="0 0 1275 501"><path fill="#840404" fill-rule="evenodd" d="M688.562 2.7c-.335.873-.373 1.822-.086 2.11.288.288.524.009.524-.619 0-.766.739-.865 2.25-.301 1.237.462 3.15.483 4.25.046 1.317-.524 1.488-.825.5-.881-1.333-.076-1.333-.193 0-1.055.901-.582 1.025-.975.309-.985-.655-.008-1.458.418-1.785.947-.368.595-1.503.616-2.974.057-1.827-.695-2.521-.536-2.988.681m16.453 34.109c-.008.72-.414 1.062-.902.761-1.089-.673-3.65 2.227-2.756 3.121.354.353.643.066.643-.639 0-.936.698-.825 2.587.413 1.422.932 2.837 1.444 3.143 1.138.306-.306-.221-.854-1.171-1.219-1.014-.389-1.301-.925-.696-1.3.656-.405.692-1.173.1-2.11-.687-1.086-.936-1.129-.948-.165M514.333 41.54c0 .742.432 1.261.959 1.154.527-.107 1.185.431 1.463 1.195.277.764.058 1.114-.487.776-.546-.337-.942.281-.88 1.374.179 3.181 2.084 2.753 2.4-.539.199-2.07-.291-3.358-1.583-4.154-1.474-.91-1.872-.868-1.872.194m597.878 33.855c.709.767 1.627 1.191 2.039.941.412-.25.75.071.75.712s.675.907 1.5.59c.825-.316 1.5-.153 1.5.362s.694.671 1.543.345c1.405-.539 1.433-1.642.036-1.417-.324.052-2.216-.585-4.206-1.417-4.455-1.861-4.787-1.873-3.162-.116M585.04 108.37c-.057 1.232 5.309 9.549 6.189 9.593.4.021.216-1.088-.411-2.463-.626-1.375-1.502-2.5-1.947-2.5-.444 0-1.478-1.237-2.299-2.75s-1.51-2.358-1.532-1.88m366.714 18.463c-.385 1.472.102 1.834 2.473 1.834h2.953l-2.34-1.375-2.34-1.375 2.375.648c1.61.44 2.155.293 1.691-.458-1.09-1.764-4.287-1.282-4.812.726M408.75 243.749c14.437.156 38.062.156 52.5 0 14.438-.156 2.625-.284-26.25-.284s-40.687.128-26.25.284m205.57 0c14.752.156 38.602.156 53 0 14.399-.156 2.33-.284-26.82-.283-29.15 0-40.931.127-26.18.283m81.14.501c-.262.688-.36 40.175-.218 87.75l.258 86.5.5-87.75c.275-48.263.373-87.75.219-87.75-.155 0-.496.563-.759 1.25M915 262.614c-4.424 2.302-4.446 2.338-1.319 2.156 1.749-.102 2.989-.494 2.756-.873-.523-.845 2.458-2.08 3.487-1.444.408.252.743-.196.743-.997 0-1.772-.063-1.759-5.667 1.158m-90.667 86.796c0 .845.758 1.265 1.888 1.047 1.038-.199 4.091-.464 6.783-.586 2.693-.123 4.667-.594 4.387-1.047-.721-1.167-7.15-1.023-9.457.211-1.333.714-1.934.714-1.934 0 0-.569-.375-1.035-.833-1.035-.459 0-.834.635-.834 1.41m-92.027 35.005c-1.543 1.328-2.479 2.742-2.08 3.142.951.954 3.916-1.518 3.204-2.67-.301-.488.127-.887.952-.887s1.778-.45 2.118-1c1.152-1.865-1.374-1.012-4.194 1.415M513.819 499.749c13.376.158 34.976.158 48 0 13.025-.158 2.081-.287-24.319-.287-26.4.001-37.056.13-23.681.287"/><path fill="#8c0404" fill-rule="evenodd" d="M696.137 1.894c-1.129.716-1.134.94-.026 1.31.832.277.521.659-.823 1.01-1.188.311-3.248.001-4.577-.689-2.929-1.519-10.37-.942-13.431 1.042-1.951 1.265-2.15 1.258-1.644-.06.468-1.22-.049-1.378-2.781-.846-1.845.359-3.58.92-3.855 1.246-.665.788-3.736 1.328-7.878 1.386-3.158.043-3.256.142-1.5 1.511 1.815 1.416 1.81 1.439-.122.686-1.1-.429-2.788-.706-3.75-.617-.962.09-2.8.267-4.083.395-1.284.128-2.334.77-2.334 1.426 0 .657.263 1.167.584 1.132 1.987-.214 3.113.317 2.562 1.208-.404.653.344.856 2.029.55 2.011-.364 2.534-.135 2.123.934-.299.78-.113 1.684.413 2.009.526.325.97.002.988-.718.019-.807.594-.565 1.5.632.807 1.068 1.468 1.379 1.468.691 0-.687.48-.953 1.067-.591.586.363.813.912.504 1.221-.444.445 5.943 3.865 7.923 4.244.252.048 1.689.726 3.194 1.507 1.931 1.002 2.935 1.096 3.415.321.409-.662.954-.231 1.372 1.087.568 1.791.958 1.964 2.166.962 1.177-.977 1.41-.948 1.165.142-.173.774.776 1.604 2.194 1.919 1.375.306 4.404 1.793 6.73 3.306 4.766 3.098 5.335 3.272 4.903 1.5-.168-.687-.12-.924.106-.525.226.399.343 1.029.26 1.401-.301 1.347 8.469 5.119 9.236 3.973.51-.764.777-.718.875.151.247 2.206.405 2.726 1.214 4 1.17 1.842-.129 1.525-3.455-.843-1.617-1.152-3.599-1.841-4.404-1.532-.86.33-1.465-.021-1.465-.849 0-.873-.763-1.264-2-1.026-1.1.212-2-.087-2-.664 0-.578-.67-.793-1.488-.479-.834.32-1.383.064-1.25-.584.131-.635-.603-1.337-1.63-1.56-1.316-.285-1.66-.007-1.164.941.388.74-.121.413-1.131-.728-1.01-1.14-3.162-2.155-4.781-2.254-1.619-.1-3.194-.55-3.5-1-.902-1.327-4.271-2.328-3.469-1.031.42.68.146.92-.698.614-.764-.278-1.302-.936-1.195-1.463.188-.927-.412-1.122-4.694-1.53-1.1-.105-2-.518-2-.919 0-.4-.922-.551-2.05-.333-1.166.224-2.29-.231-2.607-1.058-.306-.799-1.352-1.452-2.324-1.452-.972 0-3.737-.714-6.143-1.586-2.407-.873-4.826-1.705-5.376-1.849-.55-.145-1.807-.611-2.793-1.037-.986-.427-2.075-.493-2.42-.148-.345.345-1.676-.06-2.957-.9-2.129-1.395-2.75-1.21-2.46.734.058.393-.561.458-1.376.145-.815-.313-1.248-.948-.962-1.412.287-.463-.391-.667-1.505-.452-1.374.264-2.05-.155-2.097-1.302-.058-1.382-.228-1.326-.93.307-.707 1.646-.872 1.699-.93.298-.053-1.296-.781-1.613-3.045-1.327-1.712.217-2.879-.063-2.75-.66.124-.571-.815-1.213-2.086-1.427-1.655-.279-2.092-.034-1.539.863.425.689-.482.432-2.016-.571-1.533-1.003-4.796-1.957-7.25-2.121-2.453-.164-4.744-.581-5.089-.927-1.121-1.121-2.431-.663-1.78.622.348.688-.001.478-.776-.465-1.115-1.358-1.682-1.462-2.721-.5-.856.793-1.089.817-.67.069.453-.808-.906-1.085-4.603-.938-3.162.125-6.138-.359-7.495-1.219-2.048-1.299-2.694-1.011-2.368 1.053.065.412-.332.75-.882.75s-1-.643-1-1.428c0-.986-1.162-1.425-3.75-1.418-2.062.005-6.11-.309-8.995-.699-2.984-.403-5.786-.298-6.5.243-.69.524-2.583.826-4.206.671-1.623-.154-3.496.172-4.161.724-.815.676-1.425.657-1.868-.061-.362-.585-1.084-.801-1.605-.479-.521.322-.706.976-.411 1.454.295.477-.643.654-2.085.392-1.443-.261-3.175-.017-3.849.543-.675.56-2.205 1.167-3.401 1.35-1.195.182-2.881 1.204-3.745 2.27-.865 1.066-1.248 1.263-.851.438s-.358-.384-1.676.981c-1.318 1.364-2.273 2.86-2.122 3.324.151.464-.136.59-.637.28-1.013-.626-3.32 1.718-3.012 3.06.109.47-.274 1.985-.849 3.366s-1.073 8.895-1.106 16.697c-.055 12.892.095 14.138 1.634 13.658 1.49-.465 1.513-.368.195.802-2.046 1.816-2.1 5.828-.079 5.847 1.127.011 1.231.237.363.788-.941.598-.894 1.394.208 3.518.783 1.51.993 2.478.466 2.153-1.283-.793-1.222-.191.613 6.122.864 2.972 1.975 5.404 2.469 5.404.493 0 .67.592.393 1.315-.278.724-.067 2.411.468 3.75s1.001 1.873 1.036 1.185c.122-2.404 1.564-1.224 1.717 1.404.11 1.898-.099 2.253-.735 1.249-.489-.772-.888-.953-.888-.403 0 2.089 1.757 3.749 3.107 2.936.994-.598.957-.319-.138 1.035-1.149 1.421-1.206 1.953-.244 2.277.691.233 1.002.834.691 1.337-.311.503.249.922 1.244.93 1.127.01 1.385.293.685.75-1.655 1.082.215 5.315 2.627 5.946 1.098.287 1.997.946 1.997 1.465 0 .518-.45.664-1 .324-1.886-1.165-.206 4.294 2 6.5.275.275.5 1.175.5 2 0 .931.759 1.389 2 1.208 1.118-.163 1.559.058 1 .5-1.64 1.299-1.614 3.292.044 3.292.849 0 1.471.563 1.381 1.25-.341 2.627.161 3.752 2.825 6.336 1.513 1.467 2.143 2.331 1.4 1.92-1.093-.606-1.131-.34-.2 1.401.633 1.182 1.647 1.842 2.255 1.466.68-.42.82-.222.363.516-.876 1.419 1.253 4.34 2.57 3.526.501-.31.847-.193.768.261-.328 1.889.192 3.279 1.844 4.931.962.963 1.806 2.12 1.875 2.572.069.451.181 1.271.25 1.821s.848 1 1.732 1c1.018 0 1.396.55 1.031 1.5-.316.825-.145 1.5.381 1.5s2.116 1.837 3.533 4.082c1.62 2.566 3.098 3.882 3.98 3.544.772-.296 1.713-.039 2.09.572.416.673.232.83-.467.397-.635-.392-1.155-.236-1.155.346s.477 1.059 1.059 1.059.721.562.308 1.25c-.563.937-.35.925.852-.049.969-.784 1.838-.917 2.198-.335.328.53.058 1.142-.598 1.361-.774.258-.424 1.168.994 2.585 1.203 1.204 2.187 2.665 2.187 3.247 0 .582.45.781 1 .441s1-.187 1 .339c0 1.982 11.841 13.377 13.095 12.602.872-.538 1.053-.27.606.895-.417 1.087-.129 1.664.83 1.664.808 0 1.469.498 1.469 1.107s.675.848 1.5.531c1.035-.397 1.5.065 1.5 1.487 0 1.221.816 2.276 2 2.585 1.1.288 2 .921 2 1.407 0 .485.702.883 1.559.883s1.282.448.944.996c-.339.547.647 1.553 2.191 2.234 1.543.681 3.999 2.483 5.457 4.004 1.458 1.521 3.371 2.766 4.25 2.766.88 0 1.599.498 1.599 1.107s.577.885 1.283.615c.705-.271 2.33.356 3.61 1.393 2.556 2.069 1.762 2.649-.869.635-.899-.687-.267-.005 1.404 1.518 1.671 1.522 3.632 2.539 4.357 2.261.725-.278 1.044-.061.708.482-.587.95.701 1.387 3.182 1.081.646-.08 1.503.386 1.904 1.036.488.79.265.935-.674.44-.773-.408-.28.187 1.095 1.323 1.375 1.135 3.288 2.075 4.25 2.087.962.012 1.75.499 1.75 1.081s.45.781 1 .441 1-.066 1 .608c0 .674.279.947.619.606.341-.34 1.273.035 2.071.834 1.779 1.778 3.693 1.921 2.722.202-.388-.687.319-.193 1.571 1.098 1.629 1.68 2.49 2.005 3.022 1.143.533-.862.939-.89 1.429-.098.376.609.406 1.557.066 2.107-.352.569.509 1 2 1 1.44 0 2.366.408 2.058.907-.309.498.303.681 1.359.404 1.056-.276 2.744.025 3.751.669 1.713 1.095 1.702 1.13-.168.536-1.154-.366-1.577-.273-1 .221 1.6 1.368 8.405 3.44 9.361 2.849.479-.296 1.675.349 2.657 1.434 1.293 1.429 2.133 1.685 3.044.929.916-.761 1.646-.49 2.688.997.786 1.123 1.799 1.707 2.25 1.298.451-.409.483-.16.071.555-.529.918-1.116.993-2.002.258-.689-.572-1.573-.72-1.964-.329-.391.391-.378-.175.029-1.258.668-1.778.569-1.83-1.023-.534-1.481 1.206-1.898 1.217-2.607.07-.845-1.367-2.118-1.752-7.254-2.195-1.513-.13-2.75-.551-2.75-.936 0-.384-1.136-.574-2.524-.422-1.389.153-2.765-.112-3.059-.588-.294-.476-1.452-.865-2.572-.865s-3.456-.739-5.191-1.643c-6.807-3.545-6.908-3.581-6.087-2.181.427.728-.135.526-1.25-.45-1.217-1.064-2.786-1.527-3.922-1.156-1.521.497-1.604.413-.423-.422 1.274-.901 1.247-1.127-.202-1.683-.921-.353-2.146-.351-2.722.005-.576.357-1.048.224-1.048-.294 0-.519-1.013-1.272-2.25-1.675a299.85 299.85 0 01-3-.991c-.413-.143-1.452-.316-2.309-.385-.857-.069-1.295-.552-.972-1.075.681-1.102-2.895-3.291-3.838-2.348-.347.347-.631.148-.631-.442s-.862-.847-1.915-.572c-1.31.343-2.468-.343-3.664-2.167-1.195-1.826-2.353-2.511-3.663-2.168-1.355.354-1.757.088-1.374-.911.591-1.541-2.181-3.425-4.049-2.752-.641.231-1.459-.505-1.818-1.635-.358-1.13-1.098-2.055-1.643-2.055-.546 0-.717.445-.381.989.341.552-.03.742-.843.43-.799-.306-1.692-1.471-1.984-2.589-.292-1.117-1.008-1.737-1.591-1.376-.582.36-1.85.146-2.817-.475-1.626-1.045-1.616-1.085.133-.532 1.623.514 1.707.376.59-.97-.716-.862-1.922-1.33-2.68-1.039-.808.31-1.749-.395-2.276-1.705-.494-1.228-.927-1.896-.962-1.483-.034.412-.89-.038-1.901-1-1.011-.963-2.698-2.329-3.75-3.037-1.051-.708-1.28-.976-.507-.596.891.439 1.153.286.717-.419-.377-.611-1.347-.857-2.154-.547-.936.359-1.468-.053-1.468-1.138 0-.935-.885-1.932-1.967-2.215-1.082-.282-2.224-1.325-2.539-2.316-.314-.991-1.239-2.356-2.056-3.033-1.24-1.029-1.369-.933-.787.583.642 1.675.541 1.666-1.311-.108-1.104-1.058-1.894-2.075-1.755-2.259.543-.724-2.994-4.03-3.788-3.539-.466.287-.723-.073-.572-.802.151-.728-.287-1.211-.975-1.074-.687.138-1.25-.677-1.25-1.809s-.45-1.781-1-1.441c-.55.34-1-.067-1-.905 0-.838-1.687-2.67-3.75-4.071-2.062-1.402-3.638-2.768-3.5-3.036.687-1.34.048-2.308-1.851-2.804-1.156-.303-1.804-1.029-1.441-1.617.363-.587.183-1.067-.399-1.067-.582 0-.947-.552-.809-1.226.137-.675-.835-1.391-2.162-1.591-1.708-.258-2.03-.601-1.104-1.173.999-.618.694-1.423-1.292-3.409-1.431-1.431-2.347-2.601-2.036-2.601.311 0-.497-.934-1.795-2.076-1.299-1.142-1.686-1.731-.861-1.308 1.291.661 1.309.533.128-.924-.755-.931-2.105-1.699-3-1.707-1.264-.012-1.332-.203-.304-.855 1.075-.681 1.028-1.135-.25-2.413-.866-.866-1.574-2.083-1.574-2.705 0-.621-.45-.852-1-.512-.906.56-1.438-.774-1.109-2.778.07-.428-.523-1.027-1.319-1.333a1.544 1.544 0 01-.898-1.983c.366-.952.061-1.242-.911-.869-1.089.418-1.409-.15-1.261-2.238.113-1.591-.765-4.107-2.036-5.831-1.23-1.668-2.427-3.918-2.66-5-.234-1.082-.944-1.861-1.579-1.73-.659.136-.903-.418-.57-1.287.322-.839-.145-2.333-1.038-3.319-.893-.987-1.322-2.095-.955-2.463.368-.368.144-.669-.497-.669-.642 0-1.114-.338-1.049-.75.406-2.571-.245-4.292-1.368-3.617-.955.574-.947.376.035-.835 1.06-1.31 1-1.87-.348-3.218-.897-.897-1.368-2.318-1.046-3.158.323-.839.232-1.307-.2-1.04-.433.267-1.44.073-2.239-.433-1.173-.742-1.079-.921.489-.934 1.922-.015 1.922-.031 0-1.589-1.067-.866-1.313-1.249-.546-.852 1.106.573 1.249.123.689-2.175a173.976 173.976 0 01-1.258-5.649c-.304-1.512-1.064-2.757-1.689-2.765-.626-.009-.462-.452.363-.985 1.244-.804 1.159-.975-.5-1-1.589-.024-1.705-.217-.564-.939 1.117-.707 1.174-1.223.258-2.327-.647-.78-.9-1.695-.562-2.033.338-.338.31-1.409-.062-2.38-.578-1.506-.814-1.549-1.608-.293-.661 1.045-.936 1.1-.947.191-.008-.705.58-1.51 1.306-1.789.847-.325 1.16-1.607.872-3.57-.318-2.164-.698-2.666-1.296-1.711-.481.768-.573-.983-.214-4.056.443-3.783.306-5.204-.456-4.733-1.439.889-2.565-1.02-1.539-2.61.443-.688.847-3.275.897-5.75.051-2.475-.098-3.937-.33-3.25-.232.688-.861 1.25-1.397 1.25-.537 0-.658-.515-.268-1.145.489-.791-.118-.987-1.965-.634-1.47.281-2.855.215-3.079-.146-.585-.947-7.618-1.291-7.307-.357.298.892-.552 1.282-2.798 1.282-.857 0-1.292-.431-.967-.959.372-.601-7.625-.933-21.441-.892-12.118.036-22.033.383-22.033.771 0 .387-1.913.669-4.25.625-2.337-.043-4.587.379-5 .938-.48.651-1.138.477-1.826-.483-.77-1.073-1.215-1.16-1.565-.306-.268.656-1.208.917-2.088.58-.879-.338-1.342-.2-1.027.306.334.538-2.298.782-6.336.588-4.003-.192-6.908.074-6.908.633 0 .531-1.111 1.178-2.47 1.438-1.358.26-2.248.114-1.977-.324.622-1.006-6.681.072-8.127 1.2-.61.476-1.6.311-2.291-.38-.958-.958-1.4-.925-2.065.151-.465.754-1.347 1.061-1.958.683-.612-.378-1.112-.225-1.112.341 0 .565-.675.768-1.5.452-.877-.337-1.506-.012-1.515.781-.012 1.048-.231 1.017-.961-.138-.811-1.283-1.164-1.212-2.487.5-1.05 1.358-1.363 1.477-.981.373.445-1.289.035-1.523-1.986-1.136-1.401.268-2.369.773-2.152 1.122.216.35-1.571.569-3.973.487-2.669-.092-4.816.391-5.52 1.24-.71.855-2.077 1.158-3.552.788-1.32-.331-2.956-.163-3.636.373-1.16.914-2.138 1.116-6.487 1.337-.962.049-3.993.795-6.736 1.659-2.742.863-6.342 1.724-8 1.913-1.657.189-3.576 1.104-4.264 2.032-.688.931-1.25 1.154-1.25.498 0-.655-.45-1.191-1-1.191s-.887.506-.75 1.125c.138.619-.375 1.352-1.139 1.63-.764.277-1.114.059-.777-.486.761-1.231-7.289.112-8.206 1.369-.345.474-1.753.98-3.128 1.124-1.375.144-3.175.551-4 .904-.825.353-2.248.551-3.161.44-.914-.111-1.953.27-2.309.846-.357.576-1.709 1.048-3.006 1.048-1.296 0-2.524.499-2.727 1.108-.203.609-1.815 1.167-3.583 1.239-1.768.073-3.214.637-3.214 1.254 0 .657-1.035.924-2.5.644-1.782-.341-2.5-.04-2.5 1.045 0 .966-.649 1.353-1.775 1.059-.976-.256-3.113.234-4.75 1.087-1.636.853-3.537 1.554-4.225 1.558-.687.003-1.25.456-1.25 1.006s-.477 1-1.059 1-.76-.483-.395-1.074c.472-.765.058-.765-1.441 0-1.158.591-2.999 1.524-4.091 2.074-1.093.55-2.866 1-3.941 1-2.361 0-3.58 1.603-1.829 2.405.691.317.277.336-.92.042-1.445-.355-2.526.068-3.219 1.259-.603 1.036-1.057 1.251-1.075.509-.022-.944-.526-1.02-1.899-.285-1.027.55-2.116.752-2.418.449-.303-.303-1.069.417-1.702 1.6-.82 1.533-1.499 1.861-2.364 1.143-.817-.678-1.694-.668-2.681.03-1.173.829-1.088.913.425.419 1.623-.529 1.707-.394.593.948-.834 1.005-1.644 1.221-2.263.602-1.108-1.108-3.721-.374-3.721 1.045 0 .524.52.631 1.155.239.731-.453.882-.274.41.489-.568.919-1.075.928-2.149.036-1.094-.907-2.018-.758-4.161.671-1.515 1.011-3.363 1.709-4.105 1.551-.743-.157-1.054.194-.691.781.411.666-.477 1.067-2.365 1.067-1.981 0-3.386.677-4.074 1.963-.677 1.265-1.636 1.738-2.699 1.33-1.031-.396-1.402-.234-.991.432.362.586-.037 1.332-.888 1.659-1.009.387-1.297.191-.83-.565.501-.812.142-.924-1.198-.375a44.997 44.997 0 01-3.86 1.337c-1.814.517-1.824.598-.153 1.184 1.722.604 1.722.687.004 2.082-.984.799-1.48.938-1.103.308.378-.63.014-1.403-.808-1.719-.822-.315-1.494-.111-1.494.454 0 .566-.414.772-.919.46-.506-.313-1.577.089-2.381.893-.804.804-1.74 1.183-2.081.843-.34-.341-.619-.094-.619.547 0 .642-.338 1.114-.75 1.049-2.124-.336-3.412.254-2.987 1.368.306.801-.513 1.286-2.279 1.351-1.516.055-4.239 1.156-6.051 2.446-1.871 1.333-2.968 1.721-2.539.9.415-.796.046-.573-.82.494-.866 1.068-1.588 1.518-1.606 1-.017-.517-.642-.137-1.387.846-.746.984-1.744 1.722-2.219 1.642-1.909-.322-5.298 1.365-4.696 2.339.354.574.164.745-.423.382-1.162-.718-7.226 2.348-7.237 3.659-.003.445-.456.531-1.006.191s-1 .136-1 1.058c0 1.183-.588 1.522-2 1.152-2.165-.566-2.801.806-.75 1.619.688.272-.207.343-1.987.158-1.78-.186-3.537.148-3.905.742-.397.643-.199.791.487.366.635-.392 1.155-.477 1.155-.189s-.954 1.034-2.121 1.659c-1.648.882-1.951.861-1.36-.095.495-.801.276-1.054-.63-.725-.764.278-1.258 1.066-1.098 1.753.171.732-.312 1.016-1.167.688a1.56 1.56 0 00-2.013.886c-.306.796-.905 1.351-1.333 1.235-1.489-.404-9.345 4.276-8.761 5.22.323.522-.084.693-.903.378-.825-.316-2.254.32-3.199 1.424-1.009 1.177-2.366 1.75-3.312 1.396-1.338-.5-1.395-.343-.344.951 1.081 1.331.904 1.512-1.25 1.276-1.38-.152-2.509.161-2.509.695 0 .534-.461.686-1.025.338-.563-.349-.901-.097-.75.558.151.655-.606 1.337-1.682 1.516-2.957.491-6.78 2.643-9.297 5.233-1.24 1.276-2.67 2.064-3.178 1.75-.508-.314-1.222.369-1.587 1.519-.365 1.149-.919 1.835-1.23 1.523-.312-.312-1.257-.008-2.101.675-1.247 1.009-1.381.988-.719-.113.538-.893-.078-.768-1.808.365-1.443.946-2.623 2.117-2.623 2.604 0 .487-.675.885-1.5.885s-1.5.45-1.5 1-.675 1-1.5 1-1.5.477-1.5 1.059-.39.818-.866.524c-.477-.295-1.672.354-2.655 1.441-.984 1.087-2.394 1.976-3.134 1.976-.74 0-1.345.477-1.345 1.059s-.498.751-1.107.375c-.753-.466-.892.075-.435 1.691.37 1.306.306 1.856-.142 1.222-.607-.857-1.585-.789-3.816.265-1.65.78-2.1 1.16-1 .844 1.573-.452 1.741-.313.785.649-.667.673-2.242 1.307-3.5 1.409-1.634.132-2.263.79-2.208 2.31.056 1.564-.475 2.079-2.01 1.952-3.401-.281-8.755 3.396-8.175 5.614.351 1.344.185 1.587-.57.832-1.369-1.369-3.822-.442-3.822 1.444 0 .799-.47 1.162-1.044.807-1.548-.957-4.14 1.604-3.449 3.407.329.857.279 1.239-.112.848-.391-.391-1.427-.152-2.303.531-1.409 1.098-1.434 1.039-.22-.509 2.036-2.596.589-2.12-2.281.75-1.375 1.375-2.99 2.5-3.589 2.5-.599 0-3.544 2.436-6.545 5.413-3.002 2.977-5.475 4.89-5.498 4.25-.022-.64-1.431.412-3.131 2.337-1.701 1.925-2.741 2.825-2.313 2 .429-.825-.205-.487-1.407.75-1.202 1.238-2.829 2.25-3.616 2.25-.8 0-1.198.604-.903 1.371.289.754-.198 1.649-1.083 1.989-1.065.408-1.367.225-.893-.542.394-.638-.472-.295-1.923.761-1.452 1.057-2.925 2.768-3.274 3.803-.491 1.456-.821 1.581-1.457.552-.594-.961-1.004-.601-1.482 1.302-.467 1.86-1.121 2.454-2.233 2.027-1.039-.398-1.327-.206-.849.567.46.744-.005 1.17-1.279 1.17-1.491 0-1.899.532-1.599 2.089.352 1.829.197 1.922-1.249.75-1.173-.951-1.434-.977-.901-.089.497.827.101 1.25-1.168 1.25-1.055 0-2.764 1.125-3.796 2.5-1.033 1.375-2.253 2.5-2.712 2.5-1.472 0-3.691 2.8-3.706 4.679-.013 1.541-.164 1.591-.985.321-.872-1.349-1.43-.725-1.118 1.25.065.412-.579.75-1.432.75-2.114 0-8.796 6.631-7.992 7.931.385.625.038.813-.862.468-.886-.34-2.659.573-4.302 2.216-1.536 1.537-2.906 2.702-3.044 2.59-.138-.113-.25.02-.25.295v2.5c0 1.145.667 2 1.559 2 .857 0 1.281-.45.941-1-.34-.55-.168-1 .382-1s1.279.451 1.62 1.003c.414.67 1.241.67 2.493 0 1.03-.552 3.253-1.003 4.939-1.003s3.066-.402 3.066-.893.698-1.161 1.552-1.489c.89-.341 1.291-.173.941.393-.336.544.091.989.948.989S23 251.55 23 251s1.125-1 2.5-1 2.5-.477 2.5-1.059.409-.806.91-.497c1.448.895 4.148-.537 3.392-1.799-.429-.716-.106-.676.862.108 1.278 1.034 2.223.795 5.415-1.371 2.127-1.444 3.262-1.895 2.522-1.003-2.011 2.422.453 2.016 2.755-.454 1.421-1.526 2.134-1.751 2.691-.849.56.906 1.111.745 2.106-.616.741-1.013 1.347-1.306 1.347-.651S50.477 243 51.059 243s.845-.346.584-.768c-.261-.423 1.287-.601 3.441-.395 4.059.387 4.81-.419 2.666-2.86-.688-.783-.315-.648.829.3 2.122 1.759 3.911 2.325 3.076.973-.255-.412.506-.789 1.69-.836 1.185-.048 3.016-.462 4.069-.92 1.288-.561 1.697-.482 1.249.243-.423.684.06.887 1.324.556 1.095-.286 1.799-.83 1.566-1.208-.234-.378 2.021-.623 5.011-.544 2.99.079 5.436-.21 5.436-.641 0-.432.941-.604 2.092-.382 1.482.285 1.934-.008 1.551-1.007-.314-.816-.037-1.24.658-1.007 2.533.848 7.699 1.291 7.699.659-.001-.365 1.911-.593 4.247-.507 2.336.086 4.699-.126 5.25-.471.552-.345 1.79-.753 2.753-.906 3.164-.504 6.25-1.128 6.25-1.263 0-.272 15.113-1.172 17.923-1.067 1.608.06 3.238-.4 3.623-1.023.502-.812 1.258-.834 2.674-.076 1.418.759 2.298.732 3.127-.097.665-.665 1.153-.73 1.153-.154 0 .55 1.463.876 3.25.726 9.188-.775 20.576-.852 20.134-.137-.684 1.107.359 1.02 2.682-.223 1.064-.57 1.934-.682 1.934-.249 0 .433 3.165.692 7.033.577 4.281-.127 6.802.166 6.441.749-.326.527-.003.994.717 1.038.72.044 3.433.248 6.029.453 2.596.206 4.998-.077 5.339-.628.409-.663 1.023-.667 1.813-.011 1.875 1.556 6.842 3.261 6.126 2.103-.339-.548-.177-.997.36-.997.536 0 1.165.562 1.396 1.25.321.953.861.894 2.275-.25 1.02-.825 1.542-.977 1.159-.339-.465.776.718 1.397 3.558 1.868 2.34.389 5.154.919 6.254 1.179 3.893.918 6.031.974 8.681.227 1.83-.516 3.259-.284 4.5.729 1.001.816 1.144 1.16.319.763-1.231-.591-1.271-.474-.225.651 1.054 1.134 1.636 1.147 3.355.073 1.143-.714 1.781-.815 1.416-.225-.579.936 1.365 1.562 3.704 1.192.412-.065.757.445.765 1.132.011.833.339.75.985-.25.761-1.178.973-1.206.985-.128.013 1.164.273 1.164 1.707 0 1.017-.824 1.405-.893.972-.172-.428.712.153 1.667 1.429 2.35 1.742.932 2.003.894 1.381-.2-.619-1.088-.506-1.107.579-.1 1.601 1.486 4.333 1.684 3.447.25-.34-.55-.25-1 .2-1 .451 0 1.354.857 2.008 1.904.8 1.282 2.165 1.836 4.175 1.697 1.642-.113 2.962.042 2.933.346-.191 2.007.385 2.176 1.686.494 1.253-1.618 1.401-1.65.893-.191-.56 1.611.926 2.331 3.855 1.868.412-.065.75.332.75.882s.477 1 1.059 1 .774-.563.426-1.25c-.348-.687-.037-.536.691.338.728.873 1.949 1.377 2.713 1.12.774-.26 1.109-.013.756.557-.797 1.291 1.578 2.23 5.687 2.25 2.131.011 2.729.294 1.825.867-.943.597.155 1.389 3.692 2.661 2.768.995 4.947 2.224 4.842 2.73-.105.505.844 1.32 2.11 1.81 1.714.663 2.138.575 1.663-.346-.351-.681.25-.146 1.335 1.188 1.085 1.333 2.688 2.529 3.562 2.658.874.128 2.778 1.168 4.232 2.311 1.453 1.143 3.039 1.833 3.525 1.533.485-.3.882-.042.882.573s.403.869.895.565c.493-.305 1.124.006 1.403.691.279.684 3.131 2.594 6.336 4.244 3.206 1.65 6.958 4.012 8.337 5.25 1.38 1.238 3.076 2.25 3.769 2.25.693 0 1.26.477 1.26 1.059s.451.78 1.002.44c.551-.341 1.404.439 1.896 1.732.985 2.592 2.852 4.427 5.022 4.937 1.892.444 5.08 3.554 5.08 4.954 0 .768.481.724 1.523-.141 1.273-1.057 1.42-.995.893.378-.423 1.102-.102 1.641.977 1.641.94 0 1.607.83 1.607 2 0 1.1.525 2 1.167 2 .641 0 .893.273.56.606-1.206 1.207 2.935 4.459 4.872 3.826 1.562-.51 1.634-.428.401.458-1.105.795-1.155 1.083-.191 1.095.72.008 1.07.402.777.875-.292.474 1.156 2.386 3.218 4.25 2.062 1.865 5.008 5.051 6.546 7.08 1.759 2.321 3.342 3.482 4.265 3.127 1.135-.435 1.356.06.971 2.183-.274 1.51-.221 2.468.119 2.129.339-.34 1.143.393 1.787 1.627.645 1.234 1.697 2.132 2.34 1.994.642-.137 1.168.355 1.168 1.095s.927 2.184 2.061 3.21c1.765 1.598 2.195 1.656 2.996.405.554-.865.835-19.676.689-46.159-.242-43.959-.213-44.708 1.754-45.236 1.1-.296 25.048-.544 53.219-.551 42.978-.012 51.134.207 50.692 1.357-.289.754.14 1.626.954 1.939.92.353 1.277 1.343.944 2.617-.346 1.323.033 2.267 1.072 2.666.884.339 1.391.967 1.127 1.394-.264.428.413 1.914 1.506 3.303 1.092 1.389 1.986 2.962 1.986 3.495 0 .534.675 1.53 1.5 2.215.825.685 1.5 2.063 1.5 3.063 0 1.001.52 2.14 1.155 2.532.763.473.88.271.345-.595-.551-.892-.42-1.068.414-.553.672.415.99 1.362.705 2.103-.357.93.01 1.151 1.182.712 1.536-.575 1.555-.456.199 1.243-1.203 1.507-1.219 1.709-.08 1.023 1.078-.65 1.259-.436.75.889-.368.96-.036 2.651.739 3.757 1.335 1.906 1.433 1.915 1.884.168.378-1.465.499-1.37.591.467.074 1.474.534 2.051 1.271 1.596.721-.446.882-.274.43.457-.398.644-1.137.915-1.643.602-.505-.312-.651.13-.324.984.328.854.998 1.552 1.489 1.552.491 0 .893.648.893 1.441s.445 1.716.989 2.052c.579.358.747-.134.405-1.191-.44-1.362-.345-1.469.389-.441.535.748.731 2.281.437 3.406-.36 1.376-.16 1.814.611 1.337.743-.459.937-.162.551.844-.328.854-.129 1.552.441 1.552.571 0 1.192 1.012 1.381 2.25.192 1.258.94 2.121 1.698 1.957.909-.196 1.181.366.829 1.714-.611 2.338 1.755 4.958 2.593 2.871.285-.711.554-.28.597.958.043 1.238.642 2.257 1.329 2.265.989.012.986.183-.014.818s-.933 1.467.323 3.985c1.692 3.391 3.062 4.35 2.046 1.432-.508-1.459-.36-1.427.893.191 1.825 2.358 1.964 3.96.252 2.911-.701-.43-.524.313.402 1.691.908 1.351 2.334 2.401 3.168 2.332 1.004-.083 1.387.55 1.132 1.874-.427 2.219 1.49 6.529 3.048 6.851.55.114.859 1.04.686 2.059-.424 2.502 3.508 7.841 5.774 7.841 1.754 0 3.81-4.563 2.601-5.772-.294-.295.696-1.748 2.202-3.229 1.505-1.481 2.883-3.324 3.062-4.096.179-.772.741-1.553 1.25-1.736.509-.184.925-1.435.925-2.782 0-1.346.647-2.696 1.437-2.999.827-.318 1.179-1.223.83-2.133-.402-1.046-.211-1.337.563-.858.702.434 1.17.1 1.17-.836 0-.857.45-1.559 1-1.559s1-.62 1-1.378c0-.757.666-1.929 1.479-2.605 1.09-.904 1.216-1.719.477-3.099-.787-1.47-.694-1.755.431-1.323 1.577.605 3.17-2.885 2.103-4.611-.351-.568-.043-.91.686-.759.728.151 1.264-.495 1.192-1.436-.073-.941.377-1.616 1-1.5.694.129 1.034-1.046.878-3.039-.139-1.787.184-3.25.719-3.25.535 0 .691.788.347 1.75-.887 2.484 2.928-2.602 4.688-6.25.796-1.65 2.247-4.073 3.224-5.385.977-1.312 1.776-3.224 1.776-4.25 0-1.026.477-1.865 1.059-1.865s.781-.45.441-1-.115-1 .5-1 .864-.412.553-.915c-.311-.503-.01-1.099.669-1.326.679-.226 1.244-1.502 1.256-2.835.012-1.333.537-2.327 1.165-2.21.629.118 1.735-1.232 2.458-3 .723-1.767 1.896-3.809 2.607-4.535.71-.727 1.292-1.965 1.292-2.75 0-.786.477-1.429 1.059-1.429s.8-.419.484-.931c-.317-.512-.111-1.218.457-1.569.568-.351.731-1.127.362-1.724-.401-.647-.206-.797.483-.371.635.392 1.155.223 1.155-.377 0-.774 15.71-1.062 54.25-.995l54.25.095-.248 30.686c-.846 104.787-.717 147.178.449 147.625.661.253 2.236-.451 3.5-1.565 1.265-1.115 1.768-1.76 1.118-1.434-.649.326-1.449.159-1.777-.371-.334-.542.324-.787 1.504-.56 1.182.228 4.143-.879 6.777-2.533 2.572-1.616 4.002-2.962 3.177-2.992-.901-.033-.507-.605.987-1.432 1.369-.757 2.902-1.121 3.408-.808.506.313.674-.373.373-1.523-.358-1.37.009-2.305 1.064-2.71 1.396-.536 1.415-.743.14-1.549-1.247-.789-1.213-.934.219-.947.93-.008 2.012-.535 2.404-1.17.485-.783.263-.882-.69-.308-1.151.694-1.181.57-.164-.687.683-.844.922-1.854.531-2.245s.081-.407 1.049-.035c1.039.398 1.642.244 1.47-.377-.16-.578.609-1.792 1.709-2.697 1.1-.904 1.325-1.3.5-.878-1.288.658-1.307.528-.137-.915.75-.925 1.74-1.448 2.2-1.164 1.063.657 3.101-3.042 2.182-3.96-.376-.377.095-.386 1.047-.021 1.267.487 1.577.265 1.159-.826-.625-1.627 3.847-5.732 6.243-5.732.822 0 1.122-.488.711-1.155-.465-.751-.272-.881.552-.372.82.507 2.458-.559 4.654-3.027 1.864-2.095 3.389-3.251 3.389-2.569 0 .683.457.958 1.016.613.559-.346.761-1.042.448-1.548-.312-.505.085-.669.883-.362.798.306 1.791.006 2.206-.666.529-.855.334-.968-.648-.377-1.197.721-1.201.596-.033-.845.755-.931 2.668-1.692 4.25-1.692 1.583 0 2.878-.45 2.878-1s.643-1 1.429-1c.785 0 2.216-.788 3.178-1.75.963-.963 1.895-1.637 2.072-1.5 1.397 1.087 2.338-.027 1.193-1.414-1.241-1.505-1.162-1.552.83-.49 1.812.965 2.843.813 5.815-.855 1.987-1.116 4.103-1.726 4.702-1.356.652.404.804.21.376-.48-.449-.728.037-1.155 1.315-1.155 1.494 0 1.869-.46 1.424-1.75-.486-1.411-.3-1.363.964.25 1.334 1.703 1.763 1.792 2.885.603.771-.818.828-1.122.136-.733-.649.364-1.437.247-1.751-.26-.328-.53 1.664-.813 4.681-.666 2.888.142 4.689.062 4.001-.177-2.539-.881-1.142-1.953 2.25-1.726 1.925.129 3.5-.069 3.5-.439 0-.639 2.104-1.01 6.454-1.138 1.075-.032 2.571-.57 3.326-1.196.863-.717 1.622-.78 2.046-.17 1.016 1.461 3.718 1.01 3.368-.563-.253-1.131-.032-1.146 1.25-.082 1.422 1.181 1.989.769 1.671-1.214-.067-.418.743-.22 1.8.44 1.515.946 2.258.923 3.504-.112 1.107-.919 1.581-.965 1.581-.155 0 1.371 3.608.99 6.684-.707 2.535-1.398 9.703-1.64 8.875-.3-.322.521 3.585.839 9.191.75 7.842-.125 9.69-.433 9.444-1.574-.226-1.044.038-1.144 1-.376 2.128 1.701 15.519 1.44 17.295-.337 1.38-1.38 1.939-1.077 1.629.882-.065.413 2.807.75 6.382.75 3.575 0 6.5-.407 6.5-.905 0-.498 4.457-.835 9.905-.75 5.448.085 9.669-.227 9.379-.695-.289-.467.44-.333 1.62.299 2.3 1.23 12.096 1.188 12.096-.052 0-.411 1.673-.539 3.718-.285 3.008.373 4.061.024 5.513-1.825 1.205-1.535 1.591-1.712 1.175-.537-.349.986-.137 1.75.487 1.75 1.748 0 1.289-2.799-.635-3.875-.958-.536-1.427-1.29-1.042-1.674.384-.385-.294-1.578-1.509-2.651-1.214-1.074-1.644-1.667-.957-1.317 2.14 1.087 1.368-.928-.897-2.343-1.739-1.086-1.882-1.513-.75-2.248 1.124-.73.909-1.291-1.103-2.877-1.434-1.131-1.918-1.98-1.135-1.993 1.082-.017 1.026-.539-.273-2.522-.901-1.375-1.303-2.5-.893-2.5.411 0-.276-.716-1.524-1.59-1.655-1.159-1.989-1.929-1.231-2.842.571-.689.73-1.561.352-1.939-1.256-1.255-1.155-3.723.294-7.191.788-1.885 1.315-3.618 1.171-3.85-.143-.232.149-.796.649-1.255.539-.493.578-.26.096.572-.564.971-.44 1.172.401.652.669-.413 1.627-1.833 2.13-3.154.794-2.09 2.555-2.941 5.213-2.521.413.065.75-.527.75-1.316 0-.985.785-1.291 2.509-.979 1.38.251 3.742-.167 5.25-.929 1.507-.761 3.318-1.178 4.022-.927.705.251 1.155-.132 1-.851-.174-.811.744-1.334 2.419-1.377 1.485-.038 3.022-.392 3.416-.786.395-.394 1.205-.71 1.801-.702.595.009.408.452-.417.985-.936.605-1.045.975-.289.985.666.008 2.195-.997 3.397-2.235s1.868-1.687 1.48-1c-.94 1.664 2.566 1.664 4.359 0 1.085-1.007 1.198-.988.579.1-.64 1.126-.374 1.132 1.603.04 1.304-.72 2.979-1.185 3.721-1.033.878.18 1.073-.184.558-1.04-.65-1.082-.507-1.086.804-.024 1.693 1.371 7.173.638 6.261-.837-.283-.457.675-.615 2.128-.352 1.647.299 4.571-.492 7.77-2.103 2.821-1.42 4.229-1.828 3.129-.907-1.771 1.483-1.79 1.602-.168 1.041 1.007-.349 2.496-.635 3.309-.635.812 0 1.228-.403.924-.895-.305-.493.223-1.193 1.172-1.557.949-.365 1.875-.212 2.059.339.388 1.164 3.013.399 5.285-1.541.87-.743 1.882-1.049 2.25-.682.368.368.676.032.684-.747.013-1.177.162-1.187.875-.06.542.855 1.651 1.106 3 .678 1.176-.373 1.884-1.091 1.573-1.596-.312-.504.131-.648.985-.321.93.357 1.558.052 1.567-.761.012-1.05.229-1.02.959.135.751 1.188 1.196 1.238 2.184.25.683-.683 1.714-1.235 2.292-1.227.577.009.375.452-.45.985-.825.533-1.024.976-.441.985.582.008 1.913-.61 2.958-1.374 1.045-.764 2.554-1.137 3.355-.83 1.049.403 1.217.162.6-.861-.677-1.123-.555-1.186.586-.298 1.66 1.29 4.942.997 5.883-.527.353-.571 1.934-.804 3.514-.517 2.504.454 2.707.322 1.586-1.029-.793-.955-.878-1.549-.222-1.549.584 0 1.341.45 1.681 1 .34.55 1.54 1 2.666 1 1.538 0 1.882-.436 1.382-1.75-.534-1.403-.417-1.502.593-.5 1.806 1.793 3.184 1.541 2.423-.444-.595-1.551-.498-1.561 1.143-.119 1.207 1.059 2.447 1.309 3.793.764 1.1-.446 3.489-.842 5.309-.881 1.82-.038 3.048-.492 2.73-1.008-.325-.524 1.124-.914 3.29-.884 2.128.03 4.876-.485 6.106-1.143 1.23-.658 2.494-.939 2.809-.625.314.315 1.262.014 2.106-.669 1.157-.936 1.355-.943.805-.027-.519.865.253.805 2.681-.21 1.875-.784 3.692-1.143 4.037-.798.345.345.634-.01.642-.789.013-1.184.169-1.175.947.055.803 1.271 1.017 1.247 1.561-.172.488-1.272 1.651-1.561 5.14-1.276 3.792.309 4.412.115 3.9-1.22-.507-1.321-.354-1.375.914-.323.838.695 1.523.856 1.523.358s1.237-.85 2.75-.783c4.213.187 6.722-.641 5.085-1.679-1.023-.649-.926-.85.415-.862.963-.008 1.75.373 1.75.846 0 .474 1.125.647 2.5.384s2.507-.988 2.515-1.612c.009-.623.452-.458.985.367.862 1.333.984 1.333 1.103 0 .074-.825.086-1.821.027-2.214-.058-.393.561-.458 1.376-.145.815.313 1.251.943.968 1.401-.987 1.597 4.891-.159 6.172-1.844 1.201-1.58 1.293-1.569 1.322.159.024 1.378.483 1.667 1.782 1.121.963-.404 2.757-.954 3.988-1.221 1.231-.267 1.992-.884 1.691-1.371-.783-1.267 1.959-1.098 3.258.201.783.783 1.302.74 1.855-.154.54-.875.352-.992-.637-.396-1.15.693-1.141.522.048-.942 1.393-1.715 1.483-1.713 2.18.058.41 1.043.757 1.256.797.49.038-.746.69-1.119 1.448-.828.758.291 1.949.001 2.647-.643.976-.902 1.107-.886.57.067-.468.83-.189 1.042.847.645.851-.327 1.238-1.109.86-1.739-.511-.853-.318-.858.756-.021 1.549 1.208 6.258.853 6.727-.508.157-.454 1.41-.61 2.785-.347 1.549.296 3.248-.199 4.465-1.301 1.514-1.37 1.969-1.456 1.98-.373.013 1.143.196 1.125.985-.095.862-1.333.973-1.333 1 0 .027 1.333.138 1.333 1 0 .533-.825.976-1.111.985-.635.008.476 1.092.159 2.408-.703 1.328-.87 3.554-1.358 5-1.096 1.685.306 2.612.024 2.622-.796.011-.872.312-.802.961.225.811 1.283 1.159 1.212 2.453-.5.88-1.165 1.521-1.46 1.539-.71.025.983.512 1.029 2.07.195 1.121-.6 2.921-.811 4-.468 1.157.367 1.962.16 1.962-.504 0-.619-.52-.805-1.155-.413-.663.41-.884.278-.52-.311.348-.564 2.105-1.01 3.904-.992 5.811.061 11.839-1.37 11.083-2.631-.427-.712-.079-.662.899.131 1.179.955 1.696.987 1.984.123.353-1.06 1.737-1.408 7.114-1.787.995-.071 1.56-.531 1.256-1.023-.305-.493.142-1.162.993-1.489.885-.34 1.285-.171.935.395-.336.544-.161.989.389.989s1.283-.457 1.628-1.016c.346-.559 1.011-.78 1.478-.491.468.289 1.559-.182 2.424-1.048.865-.865 1.99-1.315 2.5-1 .51.316 1.584-.084 2.388-.888.804-.804 1.671-1.252 1.927-.996.807.806 7.881-2.578 7.312-3.498-.298-.482.246-.675 1.21-.428 1.042.266 3.169-.873 5.251-2.814 1.925-1.794 3.821-3.168 4.214-3.054.393.115.427-.539.076-1.453-.473-1.233-.225-1.503.963-1.047.881.338 2.139-.034 2.796-.826.942-1.135.904-1.45-.177-1.481-.754-.022-.135-.711 1.378-1.532 1.513-.821 2.784-1.815 2.827-2.21.334-3.137 1.048-4.836 2.467-5.874.911-.666 1.389-1.644 1.062-2.173-.327-.529.178-1.258 1.122-1.62 1.471-.564 1.506-.792.244-1.589-1.225-.775-1.168-.934.337-.947.995-.008 1.531-.465 1.191-1.015-.34-.55-.093-1 .548-1 .643 0 .899-.696.57-1.552-.341-.89-.173-1.291.393-.941.994.614 1.134.246 1.364-3.595.069-1.149 1.138-2.909 2.375-3.911 2.416-1.956 3.054-3.534 1-2.473-.687.355-.19-.219 1.105-1.275 1.382-1.127 2.204-2.708 1.989-3.825-.202-1.048.442-2.714 1.431-3.703.989-.989 1.549-2.2 1.245-2.692-.304-.492-.088-1.182.48-1.533s.774-1.057.457-1.569c-.316-.512.077-.931.875-.931.86 0 1.664-1.321 1.977-3.25.291-1.787.677-4.15.86-5.25.182-1.1.701-2.272 1.153-2.604 1.199-.88 2.624-7.896 1.604-7.896-.475 0-.69-.562-.478-1.25 1.213-3.937 1.528-6.854.685-6.332-.52.321-.737-.216-.481-1.196.491-1.876-2.115-5.51-4.652-6.487-1.294-.498-1.298-.588-.027-.656 1.013-.054.779-.564-.752-1.637-1.224-.857-2.677-1.278-3.23-.937-.553.342-1.283-.104-1.624-.99-.823-2.145-6.451-4.447-8.421-3.445-.855.435-2.205.329-3-.234-1.162-.823-1.092-.91.356-.442 1.057.342 1.549.174 1.191-.405-.336-.544-1.511-.989-2.611-.989-1.334 0-1.75.416-1.249 1.25.51.849.209.81-.941-.122-1.56-1.266-2.145-.873-1.786 1.196.079.454-.298.552-.838.218-.539-.333-.699-1.379-.355-2.324.536-1.471.28-1.43-1.777.282-3.825 3.183-4.959 4.875-4.526 6.751.222.964.032 1.522-.422 1.242-.893-.552-2.528 5.149-2.11 7.357.159.837-.21 1.063-.969.594-.867-.536-1.065-.147-.677 1.335.34 1.299.003 2.301-.889 2.643-.79.303-1.367 1.12-1.281 1.815.496 4.036-3.221 8.004-5.429 5.796-.711-.711-.545-1.033.53-1.033.995 0 1.515-.818 1.429-2.25-.074-1.238.55-2.846 1.386-3.574 1.313-1.142 1.316-1.219.022-.558-1.189.607-1.269.467-.386-.676.612-.793 1.175-2.229 1.25-3.192.309-3.966.503-4.75 1.175-4.75.548 0 1.747-5.113 2.111-9 .026-.275.498-1.342 1.048-2.371.755-1.409.698-1.683-.228-1.11-.796.492-1.065.27-.762-.63.257-.764-.247-1.985-1.12-2.713-1.229-1.025-1.249-1.151-.088-.558 1.311.67 1.32.544.07-.996-.795-.978-2.239-1.549-3.252-1.285-1.001.262-1.589.101-1.305-.358.685-1.108-2.907-2.286-8.822-2.896-.445-.046-.531-.533-.191-1.083.34-.55.029-1.057-.691-1.128-.72-.07-2.237-.229-3.372-.354-1.135-.125-3.272-1.019-4.75-1.988-1.478-.968-2.687-1.397-2.687-.954 0 .443-.61-.028-1.355-1.047-.796-1.088-2.005-1.605-2.927-1.251-.865.332-2.127-.066-2.805-.883-.678-.817-1.836-1.255-2.573-.972-.737.283-1.34.023-1.34-.577 0-.712-.528-.652-1.523.173-1.287 1.068-1.416.985-.831-.538.55-1.434.292-1.698-1.257-1.293-1.071.28-2.515-.097-3.208-.839-1.897-2.031-3.686-1.681-2.053.401 1.242 1.584 1.207 1.62-.367.387-.956-.75-1.533-1.697-1.281-2.104.251-.407-.725-1.279-2.171-1.938-2.09-.952-2.797-.931-3.453.104-.61.961-.829.827-.841-.512-.009-1.123-.681-1.745-1.765-1.635-3.089.315-4.383-.028-3.782-1 .322-.521-.327-.772-1.441-.557-1.115.215-2.027-.082-2.027-.659 0-.578-.698-.782-1.552-.454-.854.327-1.306.197-1.006-.289.301-.486-.149-1.15-1-1.477-.885-.34-1.285-.171-.935.395.336.544.134.989-.448.989-.582 0-1.059-.498-1.059-1.107s-.67-.85-1.488-.536c-.86.33-1.388.059-1.25-.643.142-.725-.88-1.197-2.539-1.172-1.783.026-2.61-.395-2.31-1.177.299-.778-.504-1.199-2.223-1.165-4.85.095-6.316-.186-5.75-1.103.307-.496-.792-1.373-2.441-1.948-1.65-.575-2.999-.788-2.999-.475 0 .314-.596.076-1.324-.528-.728-.604-2.315-.908-3.527-.675-1.211.234-1.969.046-1.683-.417.633-1.023-4.173-2.353-5.512-1.526-.525.325-.954.166-.954-.352 0-.519-.787-1.169-1.75-1.446-.963-.277-2.65-.84-3.75-1.251l-2-.748 2 1.709c1.1.939 1.325 1.381.5.982s-2.273-1.389-3.217-2.199c-.95-.815-2.661-1.227-3.829-.921-1.622.424-1.972.188-1.51-1.016.512-1.334.362-1.37-.997-.242-1.336 1.109-1.749 1.091-2.508-.108-.5-.79-.915-1.066-.924-.615-.008.452-.748.089-1.644-.807-.896-.896-2.209-1.407-2.917-1.135-.709.272-1.537-.152-1.84-.942-.303-.79-1.717-1.437-3.142-1.437-1.743 0-2.383.409-1.957 1.25.348.688-.001.478-.776-.465-1.115-1.358-1.682-1.462-2.721-.5-1.032.956-1.161.949-.606-.035.634-1.122-.508-1.709-2.662-1.368-.412.065-.75-.359-.75-.941s-.45-.781-1-.441-1 .141-1-.441-.338-.983-.75-.891c-1.501.337-8.287-1.418-8.82-2.281-.301-.488-1.62-.887-2.93-.887s-2.648-.43-2.973-.956c-.325-.526-1.211-.719-1.969-.428s-2.816-.215-4.575-1.125c-2.024-1.047-4.632-1.487-7.11-1.201-2.153.249-4.142.084-4.42-.367-.279-.45.418-.64 1.547-.423 1.129.217 1.79-.031 1.468-.552-.322-.522-2.134-.948-4.027-.948-1.893 0-3.441-.401-3.441-.891 0-.489-1.543-1.07-3.43-1.291-1.886-.22-3.21-.044-2.941.391.269.435-.186.791-1.011.791-1.879 0-3.211-1.963-1.427-2.102 1.47-.115-4.596-1.926-7.691-2.296-1.1-.131-4.148-1.061-6.772-2.065-2.625-1.004-5.059-1.54-5.408-1.19-.35.35-1.201.167-1.891-.406-.691-.573-2.532-1.254-4.092-1.513-2.089-.347-2.445-.213-1.35.506 1.182.777 1.023.942-.774.807-1.282-.096-2.066-.682-1.809-1.351.293-.763-.561-1.111-2.413-.982-1.576.109-2.642-.163-2.369-.605.273-.442-.404-.803-1.504-.803s-2.235-.381-2.523-.847c-.769-1.243-6.824-1.208-8.338.049-1.019.845-1.148.668-.593-.811.628-1.67.514-1.731-.977-.519-1.451 1.181-1.687 1.15-1.687-.218 0-1.01-.553-1.379-1.513-1.011-.832.32-2.268-.032-3.192-.781-1.157-.939-1.445-.973-.928-.112.413.688.274 1.25-.308 1.25-.582 0-1.059-.705-1.059-1.567 0-1.038-.592-1.38-1.75-1.013-.962.305-3.065-.129-4.672-.963-2.13-1.106-3.114-1.207-3.629-.374-.505.817-.861.755-1.249-.22-.432-1.086-.558-1.095-.621-.042-.06 1.002-.46.941-1.65-.25-2.161-2.16-4.023-2.016-2.301.179 1.214 1.548 1.189 1.607-.22.509-.876-.683-1.96-.908-2.41-.5-.45.407-.514.21-.142-.44.372-.649.23-1.457-.316-1.794-2.026-1.253-7.496-1.392-8.931-.228-1.218.988-1.372.905-.859-.464.366-.978.05-1.887-.762-2.199-.946-.363-1.218.007-.855 1.167.48 1.538.404 1.548-.801.111-.733-.873-1.947-1.381-2.698-1.128-.751.253-1.673-.038-2.049-.647-.377-.609-2.195-1.409-4.04-1.778-2.048-.41-3.126-.299-2.765.285.325.526-.476.956-1.78.956s-2.144-.367-1.866-.816c.277-.449 1.036-.551 1.685-.226.65.325.308-.118-.76-.984-1.511-1.225-2.117-1.297-2.735-.324-.614.968-.797.941-.809-.117-.009-.871-.739-1.177-2.014-.844-1.099.288-2.239.135-2.532-.339-.293-.475-1.267-.581-2.165-.236-1.072.411-1.39.234-.927-.515.48-.777-.375-1.101-2.679-1.014-1.861.07-3.904-.195-4.541-.588-.648-.401-1.17-.14-1.187.594-.019.808-.421.639-1.05-.441-.561-.963-1.924-1.75-3.029-1.75-1.351 0-1.757.409-1.239 1.25.424.688-.506.415-2.066-.605-2.311-1.511-2.992-1.606-3.67-.509-.695 1.125-1.046 1.118-2.124-.041-1.064-1.143-1.044-1.247.113-.587.941.537 1.169.42.69-.353-.955-1.546-3.591-1.476-3.61.095-.011.833-.339.75-.985-.25-.542-.839-.976-.99-.985-.344-.02 1.547-4.034.458-4.699-1.275-.283-.738-1.483-1.321-2.666-1.294-2.737.06-14.15-1.617-14.15-2.08 0-.689-3.612-.634-4.042.062-.309.499-1.519.391-2.754-.246C873 16.399 871.975 16 870.455 16c-.865 0-1.321.408-1.013.907.309.498-.34.671-1.441.383-1.1-.288-2.001-.969-2.001-1.514 0-.544-.675-.731-1.5-.414-.825.316-1.5.214-1.5-.227s-.675-.802-1.5-.802-1.507.488-1.515 1.084c-.009.595-.413.455-.899-.313-.486-.767-1.59-1.125-2.453-.793-.863.331-1.797.232-2.077-.22-.279-.452-1.646-.696-3.037-.544-1.465.161-2.273-.137-1.92-.708.385-.622-1.443-.82-4.953-.536-3.059.247-5.693.126-5.854-.268-.161-.395-1.777-1.008-3.592-1.361-2.474-.483-3.114-.335-2.558.591.544.906.317.891-.853-.057-1.303-1.055-1.689-1.055-2.113 0-.38.947-.539.965-.597.067-.059-.909-.761-.966-2.718-.222-1.451.552-2.876.765-3.166.475-.291-.29.109-.557.888-.591.78-.035.346-.492-.962-1.016-1.577-.631-2.811-.593-3.661.112-.916.761-1.494.721-2.025-.139-.503-.813-.32-.941.565-.394.809.5 1.066.416.673-.22-.35-.567-1.762-1.03-3.137-1.03-1.584 0-2.253.412-1.826 1.125.485.809.269.804-.768-.017-.793-.628-3.352-1.163-5.686-1.187-2.334-.025-4.716-.337-5.294-.694-.577-.357-1.645-.155-2.373.449-.975.809-1.612.752-2.417-.219-.723-.871-3.449-1.296-8.048-1.255-3.826.034-6.506-.216-5.956-.556.552-.341.187-.929-.815-1.314-1.006-.386-1.972-.226-2.167.361-.194.581-.792 1.057-1.328 1.057-.537 0-.702-.444-.366-.986.368-.597-.67-.838-2.63-.61-1.781.208-4.068-.136-5.081-.763-1.448-.897-2.066-.82-2.888.359-.786 1.128-1.171 1.19-1.552.25-.279-.687-1.397-1.25-2.483-1.25-1.087 0-1.701.445-1.365.989.35.566-.05.735-.935.395-.851-.327-1.344-.921-1.096-1.322.677-1.096-2.778-.935-4.212.197-.843.665-1.25.621-1.25-.137 0-.617-.9-1.122-2-1.122s-2 .45-2 1c0 1.544-2.138 1.185-4.232-.71-1.119-1.012-2.171-1.319-2.579-.75-.94 1.309-3.497 1.768-2.704.485C741.894 1.362 739.605 1 735 1c-3.915 0-6.886.375-6.603.833.283.459-.12.834-.897.834s-1.25-.263-1.052-.584c.574-.93-12.816-.592-14.36.363-.952.588-1.17.495-.683-.291.86-1.393-13.105-1.631-15.268-.261M568 51.059c0 .582-.45.781-1 .441-.989-.611-1.411.733-1.052 3.35.114.829-.287 1.059-1.039.594-.872-.539-1.062-.138-.66 1.4.31 1.186.156 2.156-.343 2.156-.498 0-.906.9-.906 2s.477 2 1.059 2 .8.419.484.931c-.317.512-.088 1.232.509 1.601.596.369.848 1.285.56 2.037-.289.752-.012 1.684.615 2.071.75.464.478.964-.793 1.462-1.834.718-1.838.761-.067.828 1.35.051 1.724.613 1.352 2.036-.283 1.081-.223 1.928.134 1.881 1.895-.246 2.257.316 1.1 1.709-1.068 1.287-1.046 1.504.128 1.25.833-.18 1.362.412 1.282 1.433-.075.957.242 1.505.706 1.218.464-.287.671.843.46 2.511-.379 3 .835 4.196 1.809 1.782.277-.687.54-.237.583 1 .043 1.237.529 2.25 1.079 2.25.55 0 .947.338.882.75-.309 1.954.287 3.33 2.224 5.134 1.159 1.08 1.807 2.447 1.441 3.039-.366.593-.162 1.077.453 1.077s.881.384.591.853c-.29.469.167 1.706 1.015 2.75.848 1.043 1.251 1.222.894.397-.357-.825.046-.646.894.397.848 1.044 1.298 2.292 1 2.775-.299.483.032.754.735.603.703-.151 1.299.474 1.324 1.39.056 1.988 4.702 9.77 5.856 9.808.445.015.488-.493.096-1.128-.443-.715-.275-.883.44-.44.635.392 1.155 1.613 1.155 2.713s.37 1.772.822 1.492c.452-.279 1.548.341 2.436 1.379 1.156 1.35 1.278 2.024.429 2.37-.656.267-.431.518.504.562.93.043 2.012.599 2.404 1.234.482.779.257.885-.69.328-.773-.455-.557.14.479 1.322 1.036 1.181 2.273 1.907 2.75 1.612.476-.294.866-.081.866.473 0 .555 1.462 2.434 3.25 4.177 1.788 1.742 2.641 2.834 1.896 2.427-.914-.5-.796.111.365 1.883 1.932 2.948 3.027 3.467 2.073.982-.527-1.373-.38-1.435.893-.378.838.695 1.523 1.884 1.523 2.641 0 .758.337 1.272.75 1.143 1.342-.42 6.32 4.609 5.829 5.889-.293.763.083 1.029.972.688 1.011-.388 1.454.157 1.464 1.801.013 1.876.209 2.051.965.857.776-1.228 1.753-.649 5.379 3.189 2.436 2.579 4.726 4.392 5.088 4.03.362-.362.332.194-.068 1.235-.587 1.531-.385 1.762 1.059 1.208 1.368-.525 1.639-.306 1.162.938-.447 1.165-.196 1.459.889 1.043.831-.319 1.511-.243 1.511.169 0 .412 1.35 1.259 3 1.882s3 1.648 3 2.278c0 .63-.45.868-1 .528-1.628-1.006-1.14.142.692 1.628 1.15.932 1.451.971.941.122-1.188-1.978 1.163-1.454 3.367.75 1.1 1.1 2.45 2 3 2 .55 0 1 .45 1 1s.563.887 1.25.75c.688-.138 1.143.296 1.012.964-.131.668.385.975 1.146.683.762-.292 2.034.396 2.828 1.529.794 1.134 1.741 1.764 2.104 1.401s.66-.109.66.565c0 .674.368.999.818.721.45-.278 1.432.346 2.182 1.387s1.732 1.665 2.182 1.387c.45-.278.818-.028.818.554 0 .582.337 1.006.75.941 2.308-.365 3.404.274 2.868 1.67-.341.89-.173 1.291.393.941 1.516-.937 1.211-1.947-1.539-5.097-4.77-5.463-5.862-7.373-3.317-5.801.699.433.883.276.467-.397-.377-.611-1.459-.839-2.404-.507-1.401.492-1.487.355-.468-.744 1.854-1.998 1.515-3.408-.437-1.819-1.483 1.205-1.605 1.153-1.012-.43.372-.991.282-1.558-.199-1.261-1.093.676-3.325-1.88-2.427-2.779.362-.362-.167-.658-1.175-.658s-1.56-.273-1.226-.607c.334-.335-.491-1.792-1.833-3.24-1.343-1.448-2.441-2.975-2.441-3.393 0-.418-.923-1.683-2.051-2.811-1.35-1.35-1.835-2.734-1.418-4.048.349-1.098.092-2.65-.571-3.449-2.078-2.504.958-1.748 3.206.798 1.092 1.238 1.701 1.688 1.351 1-.349-.687-.248-1.25.224-1.25s1.465.563 2.206 1.25c1.095 1.017 1.186.97.488-.25-.666-1.165-.252-1.104 1.854.273 1.491.975 2.711 1.483 2.711 1.128 0-.355.675-.086 1.5.599.825.685 1.507.852 1.515.372.009-.479.477-.197 1.042.628.845 1.236.975 1.147.735-.5-.161-1.1-1.867-3.504-3.792-5.342-1.925-1.839-2.937-3.05-2.25-2.691.753.392 1.25.008 1.25-.967 0-.89-.377-1.385-.837-1.101-.46.285-1.832-.179-3.048-1.031-1.751-1.227-1.967-1.841-1.04-2.958.643-.776.89-1.466.547-1.535a38.966 38.966 0 00-1.872-.295c-.687-.094-1.126-.746-.975-1.45.151-.703-.19-.992-.758-.641-1.323.818-4.017-1.848-4.017-3.977 0-.99-.459-1.346-1.17-.907-.779.482-.963.184-.551-.89.431-1.124.187-1.447-.807-1.066-.883.339-1.876-.442-2.609-2.051-.651-1.429-1.548-2.598-1.992-2.598-.445 0-.577-.603-.294-1.34.283-.737-.268-1.974-1.223-2.75-1.123-.911-1.472-.968-.987-.16.413.688.323 1.25-.201 1.25s-1.211-.675-1.528-1.5c-.316-.825-.139-1.5.393-1.5.533 0 .969-.675.969-1.5 0-1.979.816-1.893 2.84.297.913.989 1.267 1.214.788.5-.536-.796-.463-1.297.191-1.297.584 0 1.346.457 1.691 1.016.346.559 1.047.758 1.559.441.512-.316.931-.113.931.453 0 .565.592.8 1.315.523.723-.278 2.585.672 4.138 2.111 1.633 1.513 2.567 1.95 2.216 1.036-.751-1.957.679-2.07 2.25-.178.639.771 2.316 1.691 3.726 2.045 3.562.894 7.452 3.587 6.772 4.687-.311.504.03.792.759.641.817-.17 1.212.49 1.032 1.725-.173 1.188.03 1.553.5.9.436-.605 1.467-1.357 2.292-1.671 1.146-.436 1.061-.59-.357-.65-1.176-.05-1.657-.599-1.313-1.496.299-.78-.131-1.677-.957-1.993-.825-.317-1.249-.982-.942-1.478.307-.496-.166-1.18-1.05-1.519-1.019-.391-1.417-1.346-1.088-2.607.286-1.094.132-1.749-.342-1.456-.475.294-1.67-.702-2.657-2.212-.987-1.509-2.807-3.84-4.044-5.177-1.237-1.338-2.24-2.93-2.228-3.537.012-.607.929.021 2.038 1.396 1.835 2.277 1.817 2.107-.205-1.906-1.884-3.74-2.332-4.118-2.967-2.5-.626 1.597-.759 1.473-.818-.766-.063-2.39.26-2.647 3.059-2.433 1.722.131 3.747 1.082 4.5 2.113.939 1.284 1.371 1.436 1.371.483 0-1.082.267-1.124 1.2-.191.66.66 1.955 1.2 2.878 1.2.922 0 2.233.67 2.913 1.489.68.819 1.638 1.24 2.129.937.492-.304 1.153.122 1.47.947.339.884 1.229 1.25 2.166.89 1.217-.467 1.428-.184.895 1.205-.571 1.486-.439 1.601.729.632 1.099-.913 1.517-.908 1.827.021.473 1.418 3.793 2.117 3.793.799 0-.497-.9-1.465-2-2.152s-2-1.8-2-2.473c0-.674-.9-1.706-2-2.295s-2-1.674-2-2.413c0-.738-.675-1.902-1.5-2.587-.989-.821-1.5-.874-1.5-.154 0 .6-.675.832-1.5.516-.825-.317-1.5-1.004-1.5-1.528s.52-.631 1.155-.239c.699.433.883.276.467-.397-.377-.611-1.459-.821-2.404-.467-1.471.551-1.53.412-.411-.965 1.127-1.387 1.042-1.539-.612-1.107-1.198.314-2.156-.115-2.55-1.142-.347-.904-1.025-1.4-1.507-1.102-.482.298-2.605-1.136-4.718-3.187-2.114-2.05-3.489-3.053-3.057-2.228.59 1.126.455 1.102-.539-.099-.728-.88-1.774-1.78-2.324-2-.55-.221-.876-.772-.725-1.225.151-.454-.19-.538-.757-.187-.568.351-1.312-.092-1.654-.983-.35-.913-1.262-1.376-2.086-1.059-.912.35-1.659-.189-1.984-1.432-.287-1.096-.88-1.771-1.317-1.501-1.209.747-4.043-.598-3.412-1.619.304-.492-.351-.895-1.456-.895s-2.468-.787-3.029-1.75c-.608-1.045-1.031-1.23-1.05-.461-.024 1.053-.285 1.053-1.419 0-1.016-.942-1.083-1.512-.25-2.117.664-.483-.007-.645-1.611-.389-1.513.242-2.75.004-2.75-.529 0-.532-.652-.718-1.449-.412-1.018.391-1.265.076-.83-1.057.391-1.019.218-1.365-.47-.94-.6.37-1.765-.002-2.59-.827-1.135-1.135-1.622-1.198-2.002-.259-.329.816-.528.712-.58-.305-.054-1.054-1.26-1.625-3.795-1.795-2.043-.138-5.09-1.299-6.769-2.58-1.68-1.281-4.316-2.329-5.859-2.329-1.543 0-3.281-.475-3.862-1.056-1.293-1.293.947-1.1 3.206.276 1.274.777 1.302.67.186-.708-.725-.894-2.261-1.44-3.423-1.216-2.714.522-6.897-.52-6.255-1.559.272-.44-.482-.545-1.675-.233-1.614.422-2.028.198-1.616-.876.429-1.118-.38-1.437-3.582-1.411-2.444.019-4.055-.411-3.94-1.053.111-.617-1.117-1.008-2.841-.905-1.756.104-3.253-.384-3.55-1.159-.282-.736-.936-1.077-1.453-.758-.516.319-1.594.036-2.395-.628-1.073-.891-1.456-.905-1.456-.051 0 .834-.54.869-1.934.122-2.443-1.307-3.066-1.302-3.066.024M872.457 84.93c.501.811-1.872 1.088-8.43.984-5.021-.081-9.341.067-9.602.327-.26.261.299 1.101 1.243 1.866 1.135.922 1.462.97.965.143-1.141-1.899.462-1.493 1.975.5.952 1.254 1.337 1.361 1.36.378.025-1.088.334-1.122 1.488-.164.801.664 1.923.92 2.492.568 1.107-.684 4.291.706 4.142 1.808-.249 1.832.039 2.021 1.001.66.827-1.168 1.177-1.214 1.582-.208.383.948.871 1.001 1.835.201.91-.755 1.513-.768 1.962-.042.356.577 1.466 1.049 2.467 1.049 1 0 2.374.67 3.054 1.489.68.819 1.587 1.272 2.018 1.006 1.061-.656 2.161 2.421 1.34 3.75-.362.585-.199.78.363.433.561-.347 1.868.336 2.904 1.517 1.036 1.182 1.353 1.839.703 1.461-.649-.379-1.47-.22-1.824.352-.354.573-.273.977.181.898 2.11-.366 3.09.236 2.963 1.819-.081.998.572 1.735 1.55 1.75.928.014 2.633 1.038 3.789 2.275 1.155 1.237 2.532 2.25 3.061 2.25.529 0 .848.542.711 1.205-.138.662.2 1.262.75 1.333 2.541.329 6.608 2.579 7.133 3.947.37.964 1.452 1.357 2.974 1.081 1.545-.28 2.393.039 2.393.9 0 .872 1.301 1.341 3.75 1.354 6.292.032 7.389.374 6.734 2.097-.483 1.268-.352 1.335.657.333.692-.687 1.646-1.25 2.118-1.25s.541.563.153 1.25c-.564 1-.436 1 .641 0 1.606-1.491 3.323-1.668 2.449-.253-.394.637.217.702 1.691.181 3.04-1.075 5.807-.394 5.807 1.431 0 1.166.417 1.238 2.061.358 1.415-.757 3.458-.805 6.514-.153 2.553.544 4.686.573 4.998.068 1.068-1.727 3.677-.947 3.181.951-.385 1.472.102 1.834 2.473 1.834h2.953l-2.34-1.375-2.34-1.375 2.375.648c1.307.357 2.137.264 1.845-.208-.548-.886 16.997-.973 17.881-.089.274.274 2.388.072 4.698-.447 6.177-1.388 10.724-1.594 11.39-.514.323.522.998.217 1.499-.679 1.039-1.855 4.036-2.114 6.878-.593 1.445.774 1.938.71 1.949-.25.011-.903.303-.84.985.215.653 1.01.974 1.09.985.244.011-.902 1.559-1.146 5.484-.866 4.571.327 5.562.099 6.034-1.386.533-1.681 6.136-4.74 7.747-4.23.413.131.75-.212.75-.762s.012-1.309.027-1.687c.016-.378-.633-.785-1.44-.903-.807-.119-3.407-.487-5.777-.818-2.371-.331-4.444-1.002-4.608-1.491-.164-.489-1.176-.659-2.25-.378s-1.952.104-1.952-.392-.9-.988-2-1.093c-4.351-.414-5-.604-5-1.464 0-.49-.47-.602-1.044-.247-.574.355-1.699.101-2.5-.563-.881-.732-1.456-.803-1.456-.18 0 .566-.9.793-2 .506-1.1-.288-2-.907-2-1.375 0-.469-.749-.565-1.664-.214-1.208.464-1.44.276-.846-.686.598-.967.44-1.088-.585-.448-1.865 1.163-4.061 1.455-5.281.7-.545-.336-.121-.965.942-1.395 1.079-.437-.013-.515-2.469-.176-3.192.441-4.207.292-3.691-.544.938-1.518-.675-1.483-2.206.048-.933.933-1.2.933-1.2 0 0-.698-1.421-1.2-3.393-1.2-2.193 0-3.611-.568-4.009-1.606-.433-1.128-1.338-1.425-3.038-.998-1.332.334-3.69.106-5.241-.507-1.55-.613-4.882-1.058-7.403-.989-3.447.094-5.04-.38-6.426-1.911-1.407-1.554-2.034-1.735-2.651-.763-.637 1.005-.812.984-.824-.098-.012-1.06-.332-1.11-1.409-.216-1.071.889-1.734.817-2.864-.313-1.098-1.097-1.759-1.182-2.606-.335-.644.644-1.136.709-1.136.151 0-.541-2.025-.909-4.5-.816-2.475.092-4.5-.204-4.5-.658 0-.454-.9-.653-2-.441-1.1.212-2 .039-2-.384s-1.414-.562-3.142-.308c-2.131.312-2.922.105-2.459-.644.409-.663-.414-1.381-2.055-1.793-1.686-.423-2.88-.263-3.106.415-.202.606-1.011.855-1.797.553-.786-.302-1.252-.839-1.034-1.194.217-.355-1.923-.626-4.756-.602-2.833.024-5.703-.361-6.378-.854-.675-.493-3.713-.867-6.75-.83-3.038.036-5.524-.255-5.525-.647-.001-.391-1.61-.827-3.576-.967-1.965-.141-4.494-.748-5.618-1.35-1.508-.807-1.862-.798-1.347.035M999.45 229.921c-.522.506-2.975 1.137-5.45 1.403-2.475.265-5.361.827-6.414 1.249-1.446.579-1.714.443-1.096-.558.599-.967.441-1.087-.585-.444-.773.483-2.193.75-3.155.591-1.125-.185-1.755.36-1.765 1.525-.013 1.555-.167 1.599-1.076.313-.803-1.135-1.185-1.194-1.571-.244-.28.691-.92 1.002-1.423.691-.503-.311-.915-.088-.915.494S974.95 236 973.667 236c-1.284 0-2.647.313-3.029.696-1.065 1.065-3.724 1.251-3.084.216.31-.502-.138-.912-.995-.912s-1.559.45-1.559 1-.638 1-1.417 1-1.645.563-1.924 1.25c-.381.941-.769.879-1.568-.25-.904-1.279-1.063-1.224-1.076.372-.013 1.633-.232 1.697-1.707.5-.931-.754-1.381-.853-1.001-.219.424.708-.562 1.647-2.558 2.435-1.787.705-3.658 1.485-4.158 1.733-.5.249-.594-.372-.207-1.378.676-1.762.628-1.764-1.278-.039-1.089.986-2.427 1.515-2.974 1.178-.547-.338-1.319-.088-1.717.556-.489.791-.268.911.68.37 1.157-.66 1.177-.556.113.587-1.079 1.16-1.428 1.166-2.125.04-.619-1.002-1.019-1.047-1.559-.174-.4.647-1.341.939-2.093.651-.752-.289-1.676-.025-2.053.586-.45.728-.203.835.717.31 1.157-.66 1.177-.556.113.587-1.1 1.182-1.431 1.167-2.234-.103-.835-1.32-.947-1.319-.974.008-.027 1.333-.138 1.333-1 0-.946-1.465-1.113-1.314-1.38 1.25-.072.688-1.141 1.196-2.375 1.13-1.235-.066-2.245.23-2.245.657 0 .427-1.013.554-2.25.283-1.602-.351-1.867-.221-.919.452.984.7.464 1.147-2 1.721-1.832.426-3.668.714-4.081.641-.413-.074-.75.266-.75.755 0 .84-7.267 2.681-7.707 1.953-.114-.188-.887.558-1.718 1.658-.831 1.1-1.526 1.63-1.543 1.179-.018-.452-.765-.089-1.661.807s-2.24 1.394-2.988 1.107c-.747-.286-1.252-.06-1.121.504.131.564-1.67 2.064-4.002 3.333-2.332 1.27-4.914 2.867-5.737 3.551-.824.684-2.155.99-2.959.682-.934-.359-1.279-.084-.956.759.279.726-.217 1.598-1.102 1.938-1.075.412-1.402.205-.984-.621.345-.682-.114-.339-1.018.761-.905 1.1-2.047 1.893-2.539 1.762-.491-.131-.606.51-.255 1.424.487 1.269.23 1.505-1.088.999-1.067-.409-1.482-.268-1.088.37.892 1.444-1.394 3.936-3.034 3.307-.982-.377-1.193.095-.77 1.715.374 1.43.206 2.001-.468 1.585-.579-.358-1.31.022-1.626.844-.315.822-.137 1.494.395 1.494 1.387 0 1.197 3.355-.281 4.947-1 1.077-1 1.205 0 .641 1.122-.634 1.709.508 1.368 2.662-.065.413.293.75.795.75s.706 1.311.454 2.912c-.253 1.602.011 3.204.587 3.559.575.356 1.046 1.808 1.046 3.228 0 1.419.788 3.176 1.75 3.903 1.601 1.209 1.556 1.287-.527.912-1.271-.229-2.018.009-1.691.538.322.522 1.219.948 1.992.948 1.764 0 3.81 3.686 3.089 5.566-.298.776-.056 1.303.536 1.172.593-.131 1.262.86 1.487 2.201.6 3.578 1.354 3.828 1.434.478.063-2.596.175-2.697 1.021-.917.796 1.675.845 1.594.301-.5-.358-1.375-.704-4.075-.771-6-.067-1.925-.571-3.872-1.121-4.326-.648-.535-.56-1.005.25-1.333 1.335-.542 1.758-2.421.5-2.223-2.007.317-2.372-.27-1.122-1.81.932-1.15.971-1.451.122-.941-.934.561-1.25-.521-1.25-4.277 0-3.518.375-4.936 1.25-4.723.688.168.913.116.5-.114-1.179-.66-.886-1.975.821-3.682.865-.864 1.09-1.571.5-1.571-.589 0-1.071-.498-1.071-1.107s.609-.873 1.353-.588c.943.362 1.273-.21 1.088-1.893-.146-1.327.115-2.412.58-2.412.464 0 1.127-.891 1.473-1.98.345-1.089 1.143-1.876 1.771-1.75.629.127 1.165-.351 1.19-1.06.06-1.715 6.545-5.849 6.545-4.173 0 .678.936.043 2.08-1.412 1.144-1.454 2.524-2.37 3.067-2.034.542.335 1.566-.184 2.275-1.153.799-1.093 1.933-1.516 2.985-1.112 1.004.385 1.447.248 1.086-.337-.536-.867 3.309-1.549 5.926-1.051.506.096.33-.536-.391-1.404-1.127-1.358-1.057-1.482.495-.887 1.307.502 1.589.343 1.02-.577-.62-1.003-.337-1.03 1.351-.127 1.174.628 2.075.786 2.002.35-.337-2.011.195-3.355 1.104-2.793.55.34 1.007.029 1.015-.691.011-.951.281-.899.985.191.843 1.305.971 1.288.985-.128.01-1.079 2.124-2.407 6.265-3.937 3.438-1.269 6.541-2.739 6.898-3.265.356-.526 1.578-.713 2.715-.416 1.255.328 1.984.09 1.853-.607-.131-.694 1.064-1.09 3.029-1.001 1.784.08 3.024-.211 2.755-.646-.269-.435.184-1.048 1.006-1.364.822-.315 1.494-.051 1.494.587 0 .637.563.389 1.252-.553.688-.941 2.712-1.815 4.498-1.941 1.785-.126 3.247-.524 3.248-.885.001-.361.902-.421 2.002-.134 1.391.364 2 .031 2-1.093 0-.89.477-1.617 1.059-1.617s.784.445.448.989c-.35.566.051.734.941.393.854-.328 1.552-1.024 1.552-1.548s.383-.715.852-.425c.469.289 2.606-.382 4.75-1.491 2.382-1.233 4.952-1.817 6.609-1.501 1.491.285 3.023.013 3.405-.604.451-.731.237-.84-.616-.313-.848.524-1.067.418-.622-.302.377-.611 1.352-.855 2.167-.542.814.312 2.159.004 2.989-.684 1.917-1.591 6.466-2.127 6.466-.761 0 .673.469.645 1.342-.08.738-.612 1.676-.78 2.083-.372.408.407.592.086.408-.714-.315-1.377.152-1.623 3.636-1.92.874-.074 1.235-.732.893-1.625-.66-1.72-1.552-1.897-2.912-.579m-412.568 127.86c-.066.396-.049 1.107.037 1.581.086.475-.494 1.375-1.288 2-.794.626-2.788 3.699-4.431 6.828-1.642 3.13-3.198 5.478-3.458 5.219-.721-.721-3.857 4.471-4.022 6.658-.08 1.063-.751 1.933-1.492 1.933-.74 0-1.097.403-.793.895.305.493-.147 1.164-1.004 1.493-.857.329-1.278 1.05-.936 1.603.778 1.261-1.916 5.254-2.889 4.282-.393-.393-1.117-.065-1.608.73-.57.922-.46 1.719.305 2.205.802.51.6.766-.612.777-.995.008-1.56.418-1.256.91.305.493-.219 1.192-1.163 1.554-1.471.564-1.506.792-.244 1.589 1.248.79 1.216.934-.211.947-1.745.016-3.362 3.323-2.392 4.893.304.493-.218.834-1.162.759-.943-.075-1.726.462-1.739 1.194-.013.731-.924 1.988-2.024 2.793-1.1.804-2.001 1.78-2.002 2.169 0 .389-1.013 2.126-2.25 3.861-1.236 1.735-2.248 3.648-2.248 4.25 0 .603-.477 1.096-1.059 1.096s-.781.45-.441 1 .066 1-.608 1c-.674 0-.932.293-.574.651.358.358-.13 1.222-1.084 1.92-.953.697-1.734 1.674-1.734 2.17s-.813 1.715-1.808 2.709c-.994.994-1.579 2.402-1.3 3.128.346.904-.03 1.115-1.193.67-2.131-.816-5.122-4.323-5.166-6.057-.019-.742-.54-.996-1.203-.586-.787.486-.961.178-.531-.941.351-.915.251-1.664-.222-1.664s-1.147-1.143-1.498-2.541c-.402-1.601-1.071-2.273-1.809-1.817-.889.549-.882.821.029 1.124.661.221 1.201.91 1.201 1.532 0 .627-.741.39-1.664-.534-1.446-1.446-1.479-1.891-.25-3.401 1.252-1.538 1.215-1.663-.324-1.086-.956.358-1.69.33-1.632-.063.381-2.556-.467-4.621-2.776-6.762-1.455-1.348-2.269-2.452-1.809-2.452.461 0-.036-.708-1.104-1.574-1.067-.866-1.384-1.293-.702-.948.826.418 1.033.091.621-.984-.34-.885-1.221-1.378-1.957-1.095-.736.282-1.605.083-1.93-.443-.325-.526-.114-.956.468-.956.582 0 1.059-.477 1.059-1.059s-.45-.781-1-.441-1-.323-1-1.472c0-1.15-.672-2.349-1.494-2.664-.822-.316-1.257-.957-.968-1.426.29-.469-.903-1.592-2.651-2.496-2.508-1.298-2.884-1.849-1.783-2.619 1.075-.751 1.109-1.092.146-1.482-.687-.279-1.25-1.159-1.25-1.956 0-.796-.701-1.717-1.557-2.045-.879-.338-1.309-1.248-.986-2.09.413-1.075.054-1.355-1.29-1.004-1.435.375-1.808-.008-1.626-1.671.273-2.481-1.976-6.042-3.299-5.225-.489.303-.857-.44-.816-1.65.041-1.21-.409-2.114-.999-2.009-.59.105-1.04-.795-1-2 .042-1.247-.465-2.083-1.177-1.941-.687.137-1.161-.088-1.052-.5.487-1.844-1.404-5.108-2.676-4.62-.985.378-1.222-.063-.832-1.551.421-1.613.077-2.079-1.537-2.079h-2.08l-.033 70.75-.033 70.75 50.1-.255c27.555-.14 50.573-.547 51.151-.905.614-.379.754-.169.337.505-.392.635-.477 1.155-.189 1.155s1.034-.954 1.659-2.121c.917-1.714.876-1.973-.215-1.353-1.088.619-1.107.506-.1-.579.975-1.05 1.25-16.371 1.25-69.54 0-59.694-.187-68.265-1.5-68.769-.825-.316-1.553-.252-1.618.143"/></svg>