<svg xmlns="http://www.w3.org/2000/svg" width="1275" height="501" viewBox="0 0 1275 501" version="1.1"><path d="M 688.562 2.700 C 688.227 3.573, 688.189 4.522, 688.476 4.810 C 688.764 5.098, 689 4.819, 689 4.191 C 689 3.425, 689.739 3.326, 691.250 3.890 C 692.487 4.352, 694.400 4.373, 695.500 3.936 C 696.817 3.412, 696.988 3.111, 696 3.055 C 694.667 2.979, 694.667 2.862, 696 2 C 696.901 1.418, 697.025 1.025, 696.309 1.015 C 695.654 1.007, 694.851 1.433, 694.524 1.962 C 694.156 2.557, 693.021 2.578, 691.550 2.019 C 689.723 1.324, 689.029 1.483, 688.562 2.700 M 705.015 36.809 C 705.007 37.529, 704.601 37.871, 704.113 37.570 C 703.024 36.897, 700.463 39.797, 701.357 40.691 C 701.711 41.044, 702 40.757, 702 40.052 C 702 39.116, 702.698 39.227, 704.587 40.465 C 706.009 41.397, 707.424 41.909, 707.730 41.603 C 708.036 41.297, 707.509 40.749, 706.559 40.384 C 705.545 39.995, 705.258 39.459, 705.863 39.084 C 706.519 38.679, 706.555 37.911, 705.963 36.974 C 705.276 35.888, 705.027 35.845, 705.015 36.809 M 514.333 41.540 C 514.333 42.282, 514.765 42.801, 515.292 42.694 C 515.819 42.587, 516.477 43.125, 516.755 43.889 C 517.032 44.653, 516.813 45.003, 516.268 44.665 C 515.722 44.328, 515.326 44.946, 515.388 46.039 C 515.567 49.220, 517.472 48.792, 517.788 45.500 C 517.987 43.430, 517.497 42.142, 516.205 41.346 C 514.731 40.436, 514.333 40.478, 514.333 41.540 M 1112.211 75.395 C 1112.920 76.162, 1113.838 76.586, 1114.250 76.336 C 1114.662 76.086, 1115 76.407, 1115 77.048 C 1115 77.689, 1115.675 77.955, 1116.500 77.638 C 1117.325 77.322, 1118 77.485, 1118 78 C 1118 78.515, 1118.694 78.671, 1119.543 78.345 C 1120.948 77.806, 1120.976 76.703, 1119.579 76.928 C 1119.255 76.980, 1117.363 76.343, 1115.373 75.511 C 1110.918 73.650, 1110.586 73.638, 1112.211 75.395 M 585.040 108.370 C 584.983 109.602, 590.349 117.919, 591.229 117.963 C 591.629 117.984, 591.445 116.875, 590.818 115.500 C 590.192 114.125, 589.316 113, 588.871 113 C 588.427 113, 587.393 111.763, 586.572 110.250 C 585.751 108.737, 585.062 107.892, 585.040 108.370 M 951.754 126.833 C 951.369 128.305, 951.856 128.667, 954.227 128.667 L 957.180 128.667 954.840 127.292 L 952.500 125.917 954.875 126.565 C 956.485 127.005, 957.030 126.858, 956.566 126.107 C 955.476 124.343, 952.279 124.825, 951.754 126.833 M 408.750 243.749 C 423.187 243.905, 446.812 243.905, 461.250 243.749 C 475.688 243.593, 463.875 243.465, 435 243.465 C 406.125 243.465, 394.313 243.593, 408.750 243.749 M 614.320 243.749 C 629.072 243.905, 652.922 243.905, 667.320 243.749 C 681.719 243.593, 669.650 243.465, 640.500 243.466 C 611.350 243.466, 599.569 243.593, 614.320 243.749 M 695.460 244.250 C 695.198 244.938, 695.100 284.425, 695.242 332 L 695.500 418.500 696 330.750 C 696.275 282.487, 696.373 243, 696.219 243 C 696.064 243, 695.723 243.563, 695.460 244.250 M 915 262.614 C 910.576 264.916, 910.554 264.952, 913.681 264.770 C 915.430 264.668, 916.670 264.276, 916.437 263.897 C 915.914 263.052, 918.895 261.817, 919.924 262.453 C 920.332 262.705, 920.667 262.257, 920.667 261.456 C 920.667 259.684, 920.604 259.697, 915 262.614 M 824.333 349.410 C 824.333 350.255, 825.091 350.675, 826.221 350.457 C 827.259 350.258, 830.312 349.993, 833.004 349.871 C 835.697 349.748, 837.671 349.277, 837.391 348.824 C 836.670 347.657, 830.241 347.801, 827.934 349.035 C 826.601 349.749, 826 349.749, 826 349.035 C 826 348.466, 825.625 348, 825.167 348 C 824.708 348, 824.333 348.635, 824.333 349.410 M 732.306 384.415 C 730.763 385.743, 729.827 387.157, 730.226 387.557 C 731.177 388.511, 734.142 386.039, 733.430 384.887 C 733.129 384.399, 733.557 384, 734.382 384 C 735.207 384, 736.160 383.550, 736.500 383 C 737.652 381.135, 735.126 381.988, 732.306 384.415 M 513.819 499.749 C 527.195 499.907, 548.795 499.907, 561.819 499.749 C 574.844 499.591, 563.900 499.462, 537.500 499.462 C 511.100 499.463, 500.444 499.592, 513.819 499.749" stroke="none" fill="#840404" fill-rule="evenodd"/><path d="M 696.137 1.894 C 695.008 2.610, 695.003 2.834, 696.111 3.204 C 696.943 3.481, 696.632 3.863, 695.288 4.214 C 694.100 4.525, 692.040 4.215, 690.711 3.525 C 687.782 2.006, 680.341 2.583, 677.280 4.567 C 675.329 5.832, 675.130 5.825, 675.636 4.507 C 676.104 3.287, 675.587 3.129, 672.855 3.661 C 671.010 4.020, 669.275 4.581, 669 4.907 C 668.335 5.695, 665.264 6.235, 661.122 6.293 C 657.964 6.336, 657.866 6.435, 659.622 7.804 C 661.437 9.220, 661.432 9.243, 659.500 8.490 C 658.400 8.061, 656.712 7.784, 655.750 7.873 C 654.788 7.963, 652.950 8.140, 651.667 8.268 C 650.383 8.396, 649.333 9.038, 649.333 9.694 C 649.333 10.351, 649.596 10.861, 649.917 10.826 C 651.904 10.612, 653.030 11.143, 652.479 12.034 C 652.075 12.687, 652.823 12.890, 654.508 12.584 C 656.519 12.220, 657.042 12.449, 656.631 13.518 C 656.332 14.298, 656.518 15.202, 657.044 15.527 C 657.570 15.852, 658.014 15.529, 658.032 14.809 C 658.051 14.002, 658.626 14.244, 659.532 15.441 C 660.339 16.509, 661 16.820, 661 16.132 C 661 15.445, 661.480 15.179, 662.067 15.541 C 662.653 15.904, 662.880 16.453, 662.571 16.762 C 662.127 17.207, 668.514 20.627, 670.494 21.006 C 670.746 21.054, 672.183 21.732, 673.688 22.513 C 675.619 23.515, 676.623 23.609, 677.103 22.834 C 677.512 22.172, 678.057 22.603, 678.475 23.921 C 679.043 25.712, 679.433 25.885, 680.641 24.883 C 681.818 23.906, 682.051 23.935, 681.806 25.025 C 681.633 25.799, 682.582 26.629, 684 26.944 C 685.375 27.250, 688.404 28.737, 690.730 30.250 C 695.496 33.348, 696.065 33.522, 695.633 31.750 C 695.465 31.063, 695.513 30.826, 695.739 31.225 C 695.965 31.624, 696.082 32.254, 695.999 32.626 C 695.698 33.973, 704.468 37.745, 705.235 36.599 C 705.745 35.835, 706.012 35.881, 706.110 36.750 C 706.357 38.956, 706.515 39.476, 707.324 40.750 C 708.494 42.592, 707.195 42.275, 703.869 39.907 C 702.252 38.755, 700.270 38.066, 699.465 38.375 C 698.605 38.705, 698 38.354, 698 37.526 C 698 36.653, 697.237 36.262, 696 36.500 C 694.900 36.712, 694 36.413, 694 35.836 C 694 35.258, 693.330 35.043, 692.512 35.357 C 691.678 35.677, 691.129 35.421, 691.262 34.773 C 691.393 34.138, 690.659 33.436, 689.632 33.213 C 688.316 32.928, 687.972 33.206, 688.468 34.154 C 688.856 34.894, 688.347 34.567, 687.337 33.426 C 686.327 32.286, 684.175 31.271, 682.556 31.172 C 680.937 31.072, 679.362 30.622, 679.056 30.172 C 678.154 28.845, 674.785 27.844, 675.587 29.141 C 676.007 29.821, 675.733 30.061, 674.889 29.755 C 674.125 29.477, 673.587 28.819, 673.694 28.292 C 673.882 27.365, 673.282 27.170, 669 26.762 C 667.900 26.657, 667 26.244, 667 25.843 C 667 25.443, 666.078 25.292, 664.950 25.510 C 663.784 25.734, 662.660 25.279, 662.343 24.452 C 662.037 23.653, 660.991 23, 660.019 23 C 659.047 23, 656.282 22.286, 653.876 21.414 C 651.469 20.541, 649.050 19.709, 648.500 19.565 C 647.950 19.420, 646.693 18.954, 645.707 18.528 C 644.721 18.101, 643.632 18.035, 643.287 18.380 C 642.942 18.725, 641.611 18.320, 640.330 17.480 C 638.201 16.085, 637.580 16.270, 637.870 18.214 C 637.928 18.607, 637.309 18.672, 636.494 18.359 C 635.679 18.046, 635.246 17.411, 635.532 16.947 C 635.819 16.484, 635.141 16.280, 634.027 16.495 C 632.653 16.759, 631.977 16.340, 631.930 15.193 C 631.872 13.811, 631.702 13.867, 631 15.500 C 630.293 17.146, 630.128 17.199, 630.070 15.798 C 630.017 14.502, 629.289 14.185, 627.025 14.471 C 625.313 14.688, 624.146 14.408, 624.275 13.811 C 624.399 13.240, 623.460 12.598, 622.189 12.384 C 620.534 12.105, 620.097 12.350, 620.650 13.247 C 621.075 13.936, 620.168 13.679, 618.634 12.676 C 617.101 11.673, 613.838 10.719, 611.384 10.555 C 608.931 10.391, 606.640 9.974, 606.295 9.628 C 605.174 8.507, 603.864 8.965, 604.515 10.250 C 604.863 10.938, 604.514 10.728, 603.739 9.785 C 602.624 8.427, 602.057 8.323, 601.018 9.285 C 600.162 10.078, 599.929 10.102, 600.348 9.354 C 600.801 8.546, 599.442 8.269, 595.745 8.416 C 592.583 8.541, 589.607 8.057, 588.250 7.197 C 586.202 5.898, 585.556 6.186, 585.882 8.250 C 585.947 8.662, 585.550 9, 585 9 C 584.450 9, 584 8.357, 584 7.572 C 584 6.586, 582.838 6.147, 580.250 6.154 C 578.188 6.159, 574.140 5.845, 571.255 5.455 C 568.271 5.052, 565.469 5.157, 564.755 5.698 C 564.065 6.222, 562.172 6.524, 560.549 6.369 C 558.926 6.215, 557.053 6.541, 556.388 7.093 C 555.573 7.769, 554.963 7.750, 554.520 7.032 C 554.158 6.447, 553.436 6.231, 552.915 6.553 C 552.394 6.875, 552.209 7.529, 552.504 8.007 C 552.799 8.484, 551.861 8.661, 550.419 8.399 C 548.976 8.138, 547.244 8.382, 546.570 8.942 C 545.895 9.502, 544.365 10.109, 543.169 10.292 C 541.974 10.474, 540.288 11.496, 539.424 12.562 C 538.559 13.628, 538.176 13.825, 538.573 13 C 538.970 12.175, 538.215 12.616, 536.897 13.981 C 535.579 15.345, 534.624 16.841, 534.775 17.305 C 534.926 17.769, 534.639 17.895, 534.138 17.585 C 533.125 16.959, 530.818 19.303, 531.126 20.645 C 531.235 21.115, 530.852 22.630, 530.277 24.011 C 529.702 25.392, 529.204 32.906, 529.171 40.708 C 529.116 53.600, 529.266 54.846, 530.805 54.366 C 532.295 53.901, 532.318 53.998, 531 55.168 C 528.954 56.984, 528.900 60.996, 530.921 61.015 C 532.048 61.026, 532.152 61.252, 531.284 61.803 C 530.343 62.401, 530.390 63.197, 531.492 65.321 C 532.275 66.831, 532.485 67.799, 531.958 67.474 C 530.675 66.681, 530.736 67.283, 532.571 73.596 C 533.435 76.568, 534.546 79, 535.040 79 C 535.533 79, 535.710 79.592, 535.433 80.315 C 535.155 81.039, 535.366 82.726, 535.901 84.065 C 536.436 85.404, 536.902 85.938, 536.937 85.250 C 537.059 82.846, 538.501 84.026, 538.654 86.654 C 538.764 88.552, 538.555 88.907, 537.919 87.903 C 537.430 87.131, 537.031 86.950, 537.031 87.500 C 537.031 89.589, 538.788 91.249, 540.138 90.436 C 541.132 89.838, 541.095 90.117, 540 91.471 C 538.851 92.892, 538.794 93.424, 539.756 93.748 C 540.447 93.981, 540.758 94.582, 540.447 95.085 C 540.136 95.588, 540.696 96.007, 541.691 96.015 C 542.818 96.025, 543.076 96.308, 542.376 96.765 C 540.721 97.847, 542.591 102.080, 545.003 102.711 C 546.101 102.998, 547 103.657, 547 104.176 C 547 104.694, 546.550 104.840, 546 104.500 C 544.114 103.335, 545.794 108.794, 548 111 C 548.275 111.275, 548.500 112.175, 548.500 113 C 548.500 113.931, 549.259 114.389, 550.500 114.208 C 551.618 114.045, 552.059 114.266, 551.500 114.708 C 549.860 116.007, 549.886 118, 551.544 118 C 552.393 118, 553.015 118.563, 552.925 119.250 C 552.584 121.877, 553.086 123.002, 555.750 125.586 C 557.263 127.053, 557.893 127.917, 557.150 127.506 C 556.057 126.900, 556.019 127.166, 556.950 128.907 C 557.583 130.089, 558.597 130.749, 559.205 130.373 C 559.885 129.953, 560.025 130.151, 559.568 130.889 C 558.692 132.308, 560.821 135.229, 562.138 134.415 C 562.639 134.105, 562.985 134.222, 562.906 134.676 C 562.578 136.565, 563.098 137.955, 564.750 139.607 C 565.712 140.570, 566.556 141.727, 566.625 142.179 C 566.694 142.630, 566.806 143.450, 566.875 144 C 566.944 144.550, 567.723 145, 568.607 145 C 569.625 145, 570.003 145.550, 569.638 146.500 C 569.322 147.325, 569.493 148, 570.019 148 C 570.545 148, 572.135 149.837, 573.552 152.082 C 575.172 154.648, 576.650 155.964, 577.532 155.626 C 578.304 155.330, 579.245 155.587, 579.622 156.198 C 580.038 156.871, 579.854 157.028, 579.155 156.595 C 578.520 156.203, 578 156.359, 578 156.941 C 578 157.523, 578.477 158, 579.059 158 C 579.641 158, 579.780 158.562, 579.367 159.250 C 578.804 160.187, 579.017 160.175, 580.219 159.201 C 581.188 158.417, 582.057 158.284, 582.417 158.866 C 582.745 159.396, 582.475 160.008, 581.819 160.227 C 581.045 160.485, 581.395 161.395, 582.813 162.812 C 584.016 164.016, 585 165.477, 585 166.059 C 585 166.641, 585.450 166.840, 586 166.500 C 586.550 166.160, 587 166.313, 587 166.839 C 587 168.821, 598.841 180.216, 600.095 179.441 C 600.967 178.903, 601.148 179.171, 600.701 180.336 C 600.284 181.423, 600.572 182, 601.531 182 C 602.339 182, 603 182.498, 603 183.107 C 603 183.716, 603.675 183.955, 604.500 183.638 C 605.535 183.241, 606 183.703, 606 185.125 C 606 186.346, 606.816 187.401, 608 187.710 C 609.100 187.998, 610 188.631, 610 189.117 C 610 189.602, 610.702 190, 611.559 190 C 612.416 190, 612.841 190.448, 612.503 190.996 C 612.164 191.543, 613.150 192.549, 614.694 193.230 C 616.237 193.911, 618.693 195.713, 620.151 197.234 C 621.609 198.755, 623.522 200, 624.401 200 C 625.281 200, 626 200.498, 626 201.107 C 626 201.716, 626.577 201.992, 627.283 201.722 C 627.988 201.451, 629.613 202.078, 630.893 203.115 C 633.449 205.184, 632.655 205.764, 630.024 203.750 C 629.125 203.063, 629.757 203.745, 631.428 205.268 C 633.099 206.790, 635.060 207.807, 635.785 207.529 C 636.510 207.251, 636.829 207.468, 636.493 208.011 C 635.906 208.961, 637.194 209.398, 639.675 209.092 C 640.321 209.012, 641.178 209.478, 641.579 210.128 C 642.067 210.918, 641.844 211.063, 640.905 210.568 C 640.132 210.160, 640.625 210.755, 642 211.891 C 643.375 213.026, 645.288 213.966, 646.250 213.978 C 647.212 213.990, 648 214.477, 648 215.059 C 648 215.641, 648.450 215.840, 649 215.500 C 649.550 215.160, 650 215.434, 650 216.108 C 650 216.782, 650.279 217.055, 650.619 216.714 C 650.960 216.374, 651.892 216.749, 652.690 217.548 C 654.469 219.326, 656.383 219.469, 655.412 217.750 C 655.024 217.063, 655.731 217.557, 656.983 218.848 C 658.612 220.528, 659.473 220.853, 660.005 219.991 C 660.538 219.129, 660.944 219.101, 661.434 219.893 C 661.810 220.502, 661.840 221.450, 661.500 222 C 661.148 222.569, 662.009 223, 663.500 223 C 664.940 223, 665.866 223.408, 665.558 223.907 C 665.249 224.405, 665.861 224.588, 666.917 224.311 C 667.973 224.035, 669.661 224.336, 670.668 224.980 C 672.381 226.075, 672.370 226.110, 670.500 225.516 C 669.346 225.150, 668.923 225.243, 669.500 225.737 C 671.100 227.105, 677.905 229.177, 678.861 228.586 C 679.340 228.290, 680.536 228.935, 681.518 230.020 C 682.811 231.449, 683.651 231.705, 684.562 230.949 C 685.478 230.188, 686.208 230.459, 687.250 231.946 C 688.036 233.069, 689.049 233.653, 689.500 233.244 C 689.951 232.835, 689.983 233.084, 689.571 233.799 C 689.042 234.717, 688.455 234.792, 687.569 234.057 C 686.880 233.485, 685.996 233.337, 685.605 233.728 C 685.214 234.119, 685.227 233.553, 685.634 232.470 C 686.302 230.692, 686.203 230.640, 684.611 231.936 C 683.130 233.142, 682.713 233.153, 682.004 232.006 C 681.159 230.639, 679.886 230.254, 674.750 229.811 C 673.237 229.681, 672 229.260, 672 228.875 C 672 228.491, 670.864 228.301, 669.476 228.453 C 668.087 228.606, 666.711 228.341, 666.417 227.865 C 666.123 227.389, 664.965 227, 663.845 227 C 662.725 227, 660.389 226.261, 658.654 225.357 C 651.847 221.812, 651.746 221.776, 652.567 223.176 C 652.994 223.904, 652.432 223.702, 651.317 222.726 C 650.100 221.662, 648.531 221.199, 647.395 221.570 C 645.874 222.067, 645.791 221.983, 646.972 221.148 C 648.246 220.247, 648.219 220.021, 646.770 219.465 C 645.849 219.112, 644.624 219.114, 644.048 219.470 C 643.472 219.827, 643 219.694, 643 219.176 C 643 218.657, 641.987 217.904, 640.750 217.501 C 639.513 217.098, 638.163 216.652, 637.750 216.510 C 637.337 216.367, 636.298 216.194, 635.441 216.125 C 634.584 216.056, 634.146 215.573, 634.469 215.050 C 635.150 213.948, 631.574 211.759, 630.631 212.702 C 630.284 213.049, 630 212.850, 630 212.260 C 630 211.670, 629.138 211.413, 628.085 211.688 C 626.775 212.031, 625.617 211.345, 624.421 209.521 C 623.226 207.695, 622.068 207.010, 620.758 207.353 C 619.403 207.707, 619.001 207.441, 619.384 206.442 C 619.975 204.901, 617.203 203.017, 615.335 203.690 C 614.694 203.921, 613.876 203.185, 613.517 202.055 C 613.159 200.925, 612.419 200, 611.874 200 C 611.328 200, 611.157 200.445, 611.493 200.989 C 611.834 201.541, 611.463 201.731, 610.650 201.419 C 609.851 201.113, 608.958 199.948, 608.666 198.830 C 608.374 197.713, 607.658 197.093, 607.075 197.454 C 606.493 197.814, 605.225 197.600, 604.258 196.979 C 602.632 195.934, 602.642 195.894, 604.391 196.447 C 606.014 196.961, 606.098 196.823, 604.981 195.477 C 604.265 194.615, 603.059 194.147, 602.301 194.438 C 601.493 194.748, 600.552 194.043, 600.025 192.733 C 599.531 191.505, 599.098 190.837, 599.063 191.250 C 599.029 191.662, 598.173 191.212, 597.162 190.250 C 596.151 189.287, 594.464 187.921, 593.412 187.213 C 592.361 186.505, 592.132 186.237, 592.905 186.617 C 593.796 187.056, 594.058 186.903, 593.622 186.198 C 593.245 185.587, 592.275 185.341, 591.468 185.651 C 590.532 186.010, 590 185.598, 590 184.513 C 590 183.578, 589.115 182.581, 588.033 182.298 C 586.951 182.016, 585.809 180.973, 585.494 179.982 C 585.180 178.991, 584.255 177.626, 583.438 176.949 C 582.198 175.920, 582.069 176.016, 582.651 177.532 C 583.293 179.207, 583.192 179.198, 581.340 177.424 C 580.236 176.366, 579.446 175.349, 579.585 175.165 C 580.128 174.441, 576.591 171.135, 575.797 171.626 C 575.331 171.913, 575.074 171.553, 575.225 170.824 C 575.376 170.096, 574.938 169.613, 574.250 169.750 C 573.563 169.888, 573 169.073, 573 167.941 C 573 166.809, 572.550 166.160, 572 166.500 C 571.450 166.840, 571 166.433, 571 165.595 C 571 164.757, 569.313 162.925, 567.250 161.524 C 565.188 160.122, 563.612 158.756, 563.750 158.488 C 564.437 157.148, 563.798 156.180, 561.899 155.684 C 560.743 155.381, 560.095 154.655, 560.458 154.067 C 560.821 153.480, 560.641 153, 560.059 153 C 559.477 153, 559.112 152.448, 559.250 151.774 C 559.387 151.099, 558.415 150.383, 557.088 150.183 C 555.380 149.925, 555.058 149.582, 555.984 149.010 C 556.983 148.392, 556.678 147.587, 554.692 145.601 C 553.261 144.170, 552.345 143, 552.656 143 C 552.967 143, 552.159 142.066, 550.861 140.924 C 549.562 139.782, 549.175 139.193, 550 139.616 C 551.291 140.277, 551.309 140.149, 550.128 138.692 C 549.373 137.761, 548.023 136.993, 547.128 136.985 C 545.864 136.973, 545.796 136.782, 546.824 136.130 C 547.899 135.449, 547.852 134.995, 546.574 133.717 C 545.708 132.851, 545 131.634, 545 131.012 C 545 130.391, 544.550 130.160, 544 130.500 C 543.094 131.060, 542.562 129.726, 542.891 127.722 C 542.961 127.294, 542.368 126.695, 541.572 126.389 C 540.777 126.084, 540.373 125.192, 540.674 124.406 C 541.040 123.454, 540.735 123.164, 539.763 123.537 C 538.674 123.955, 538.354 123.387, 538.502 121.299 C 538.615 119.708, 537.737 117.192, 536.466 115.468 C 535.236 113.800, 534.039 111.550, 533.806 110.468 C 533.572 109.386, 532.862 108.607, 532.227 108.738 C 531.568 108.874, 531.324 108.320, 531.657 107.451 C 531.979 106.612, 531.512 105.118, 530.619 104.132 C 529.726 103.145, 529.297 102.037, 529.664 101.669 C 530.032 101.301, 529.808 101, 529.167 101 C 528.525 101, 528.053 100.662, 528.118 100.250 C 528.524 97.679, 527.873 95.958, 526.750 96.633 C 525.795 97.207, 525.803 97.009, 526.785 95.798 C 527.845 94.488, 527.785 93.928, 526.437 92.580 C 525.540 91.683, 525.069 90.262, 525.391 89.422 C 525.714 88.583, 525.623 88.115, 525.191 88.382 C 524.758 88.649, 523.751 88.455, 522.952 87.949 C 521.779 87.207, 521.873 87.028, 523.441 87.015 C 525.363 87, 525.363 86.984, 523.441 85.426 C 522.374 84.560, 522.128 84.177, 522.895 84.574 C 524.001 85.147, 524.144 84.697, 523.584 82.399 C 523.196 80.804, 522.630 78.263, 522.326 76.750 C 522.022 75.238, 521.262 73.993, 520.637 73.985 C 520.011 73.976, 520.175 73.533, 521 73 C 522.244 72.196, 522.159 72.025, 520.500 72 C 518.911 71.976, 518.795 71.783, 519.936 71.061 C 521.053 70.354, 521.110 69.838, 520.194 68.734 C 519.547 67.954, 519.294 67.039, 519.632 66.701 C 519.970 66.363, 519.942 65.292, 519.570 64.321 C 518.992 62.815, 518.756 62.772, 517.962 64.028 C 517.301 65.073, 517.026 65.128, 517.015 64.219 C 517.007 63.514, 517.595 62.709, 518.321 62.430 C 519.168 62.105, 519.481 60.823, 519.193 58.860 C 518.875 56.696, 518.495 56.194, 517.897 57.149 C 517.416 57.917, 517.324 56.166, 517.683 53.093 C 518.126 49.310, 517.989 47.889, 517.227 48.360 C 515.788 49.249, 514.662 47.340, 515.688 45.750 C 516.131 45.062, 516.535 42.475, 516.585 40 C 516.636 37.525, 516.487 36.063, 516.255 36.750 C 516.023 37.438, 515.394 38, 514.858 38 C 514.321 38, 514.200 37.485, 514.590 36.855 C 515.079 36.064, 514.472 35.868, 512.625 36.221 C 511.155 36.502, 509.770 36.436, 509.546 36.075 C 508.961 35.128, 501.928 34.784, 502.239 35.718 C 502.537 36.610, 501.687 37, 499.441 37 C 498.584 37, 498.149 36.569, 498.474 36.041 C 498.846 35.440, 490.849 35.108, 477.033 35.149 C 464.915 35.185, 455 35.532, 455 35.920 C 455 36.307, 453.087 36.589, 450.750 36.545 C 448.413 36.502, 446.163 36.924, 445.750 37.483 C 445.270 38.134, 444.612 37.960, 443.924 37 C 443.154 35.927, 442.709 35.840, 442.359 36.694 C 442.091 37.350, 441.151 37.611, 440.271 37.274 C 439.392 36.936, 438.929 37.074, 439.244 37.580 C 439.578 38.118, 436.946 38.362, 432.908 38.168 C 428.905 37.976, 426 38.242, 426 38.801 C 426 39.332, 424.889 39.979, 423.530 40.239 C 422.172 40.499, 421.282 40.353, 421.553 39.915 C 422.175 38.909, 414.872 39.987, 413.426 41.115 C 412.816 41.591, 411.826 41.426, 411.135 40.735 C 410.177 39.777, 409.735 39.810, 409.070 40.886 C 408.605 41.640, 407.723 41.947, 407.112 41.569 C 406.500 41.191, 406 41.344, 406 41.910 C 406 42.475, 405.325 42.678, 404.500 42.362 C 403.623 42.025, 402.994 42.350, 402.985 43.143 C 402.973 44.191, 402.754 44.160, 402.024 43.005 C 401.213 41.722, 400.860 41.793, 399.537 43.505 C 398.487 44.863, 398.174 44.982, 398.556 43.878 C 399.001 42.589, 398.591 42.355, 396.570 42.742 C 395.169 43.010, 394.201 43.515, 394.418 43.864 C 394.634 44.214, 392.847 44.433, 390.445 44.351 C 387.776 44.259, 385.629 44.742, 384.925 45.591 C 384.215 46.446, 382.848 46.749, 381.373 46.379 C 380.053 46.048, 378.417 46.216, 377.737 46.752 C 376.577 47.666, 375.599 47.868, 371.250 48.089 C 370.288 48.138, 367.257 48.884, 364.514 49.748 C 361.772 50.611, 358.172 51.472, 356.514 51.661 C 354.857 51.850, 352.938 52.765, 352.250 53.693 C 351.562 54.624, 351 54.847, 351 54.191 C 351 53.536, 350.550 53, 350 53 C 349.450 53, 349.113 53.506, 349.250 54.125 C 349.388 54.744, 348.875 55.477, 348.111 55.755 C 347.347 56.032, 346.997 55.814, 347.334 55.269 C 348.095 54.038, 340.045 55.381, 339.128 56.638 C 338.783 57.112, 337.375 57.618, 336 57.762 C 334.625 57.906, 332.825 58.313, 332 58.666 C 331.175 59.019, 329.752 59.217, 328.839 59.106 C 327.925 58.995, 326.886 59.376, 326.530 59.952 C 326.173 60.528, 324.821 61, 323.524 61 C 322.228 61, 321 61.499, 320.797 62.108 C 320.594 62.717, 318.982 63.275, 317.214 63.347 C 315.446 63.420, 314 63.984, 314 64.601 C 314 65.258, 312.965 65.525, 311.500 65.245 C 309.718 64.904, 309 65.205, 309 66.290 C 309 67.256, 308.351 67.643, 307.225 67.349 C 306.249 67.093, 304.112 67.583, 302.475 68.436 C 300.839 69.289, 298.938 69.990, 298.250 69.994 C 297.563 69.997, 297 70.450, 297 71 C 297 71.550, 296.523 72, 295.941 72 C 295.359 72, 295.181 71.517, 295.546 70.926 C 296.018 70.161, 295.604 70.161, 294.105 70.926 C 292.947 71.517, 291.106 72.450, 290.014 73 C 288.921 73.550, 287.148 74, 286.073 74 C 283.712 74, 282.493 75.603, 284.244 76.405 C 284.935 76.722, 284.521 76.741, 283.324 76.447 C 281.879 76.092, 280.798 76.515, 280.105 77.706 C 279.502 78.742, 279.048 78.957, 279.030 78.215 C 279.008 77.271, 278.504 77.195, 277.131 77.930 C 276.104 78.480, 275.015 78.682, 274.713 78.379 C 274.410 78.076, 273.644 78.796, 273.011 79.979 C 272.191 81.512, 271.512 81.840, 270.647 81.122 C 269.830 80.444, 268.953 80.454, 267.966 81.152 C 266.793 81.981, 266.878 82.065, 268.391 81.571 C 270.014 81.042, 270.098 81.177, 268.984 82.519 C 268.150 83.524, 267.340 83.740, 266.721 83.121 C 265.613 82.013, 263 82.747, 263 84.166 C 263 84.690, 263.520 84.797, 264.155 84.405 C 264.886 83.952, 265.037 84.131, 264.565 84.894 C 263.997 85.813, 263.490 85.822, 262.416 84.930 C 261.322 84.023, 260.398 84.172, 258.255 85.601 C 256.740 86.612, 254.892 87.310, 254.150 87.152 C 253.407 86.995, 253.096 87.346, 253.459 87.933 C 253.870 88.599, 252.982 89, 251.094 89 C 249.113 89, 247.708 89.677, 247.020 90.963 C 246.343 92.228, 245.384 92.701, 244.321 92.293 C 243.290 91.897, 242.919 92.059, 243.330 92.725 C 243.692 93.311, 243.293 94.057, 242.442 94.384 C 241.433 94.771, 241.145 94.575, 241.612 93.819 C 242.113 93.007, 241.754 92.895, 240.414 93.444 C 239.361 93.874, 237.624 94.476, 236.554 94.781 C 234.740 95.298, 234.730 95.379, 236.401 95.965 C 238.123 96.569, 238.123 96.652, 236.405 98.047 C 235.421 98.846, 234.925 98.985, 235.302 98.355 C 235.680 97.725, 235.316 96.952, 234.494 96.636 C 233.672 96.321, 233 96.525, 233 97.090 C 233 97.656, 232.586 97.862, 232.081 97.550 C 231.575 97.237, 230.504 97.639, 229.700 98.443 C 228.896 99.247, 227.960 99.626, 227.619 99.286 C 227.279 98.945, 227 99.192, 227 99.833 C 227 100.475, 226.662 100.947, 226.250 100.882 C 224.126 100.546, 222.838 101.136, 223.263 102.250 C 223.569 103.051, 222.750 103.536, 220.984 103.601 C 219.468 103.656, 216.745 104.757, 214.933 106.047 C 213.062 107.380, 211.965 107.768, 212.394 106.947 C 212.809 106.151, 212.440 106.374, 211.574 107.441 C 210.708 108.509, 209.986 108.959, 209.968 108.441 C 209.951 107.924, 209.326 108.304, 208.581 109.287 C 207.835 110.271, 206.837 111.009, 206.362 110.929 C 204.453 110.607, 201.064 112.294, 201.666 113.268 C 202.020 113.842, 201.830 114.013, 201.243 113.650 C 200.081 112.932, 194.017 115.998, 194.006 117.309 C 194.003 117.754, 193.550 117.840, 193 117.500 C 192.450 117.160, 192 117.636, 192 118.558 C 192 119.741, 191.412 120.080, 190 119.710 C 187.835 119.144, 187.199 120.516, 189.250 121.329 C 189.938 121.601, 189.043 121.672, 187.263 121.487 C 185.483 121.301, 183.726 121.635, 183.358 122.229 C 182.961 122.872, 183.159 123.020, 183.845 122.595 C 184.480 122.203, 185 122.118, 185 122.406 C 185 122.694, 184.046 123.440, 182.879 124.065 C 181.231 124.947, 180.928 124.926, 181.519 123.970 C 182.014 123.169, 181.795 122.916, 180.889 123.245 C 180.125 123.523, 179.631 124.311, 179.791 124.998 C 179.962 125.730, 179.479 126.014, 178.624 125.686 C 177.822 125.378, 176.916 125.777, 176.611 126.572 C 176.305 127.368, 175.706 127.923, 175.278 127.807 C 173.789 127.403, 165.933 132.083, 166.517 133.027 C 166.840 133.549, 166.433 133.720, 165.614 133.405 C 164.789 133.089, 163.360 133.725, 162.415 134.829 C 161.406 136.006, 160.049 136.579, 159.103 136.225 C 157.765 135.725, 157.708 135.882, 158.759 137.176 C 159.840 138.507, 159.663 138.688, 157.509 138.452 C 156.129 138.300, 155 138.613, 155 139.147 C 155 139.681, 154.539 139.833, 153.975 139.485 C 153.412 139.136, 153.074 139.388, 153.225 140.043 C 153.376 140.698, 152.619 141.380, 151.543 141.559 C 148.586 142.050, 144.763 144.202, 142.246 146.792 C 141.006 148.068, 139.576 148.856, 139.068 148.542 C 138.560 148.228, 137.846 148.911, 137.481 150.061 C 137.116 151.210, 136.562 151.896, 136.251 151.584 C 135.939 151.272, 134.994 151.576, 134.150 152.259 C 132.903 153.268, 132.769 153.247, 133.431 152.146 C 133.969 151.253, 133.353 151.378, 131.623 152.511 C 130.180 153.457, 129 154.628, 129 155.115 C 129 155.602, 128.325 156, 127.500 156 C 126.675 156, 126 156.450, 126 157 C 126 157.550, 125.325 158, 124.500 158 C 123.675 158, 123 158.477, 123 159.059 C 123 159.641, 122.610 159.877, 122.134 159.583 C 121.657 159.288, 120.462 159.937, 119.479 161.024 C 118.495 162.111, 117.085 163, 116.345 163 C 115.605 163, 115 163.477, 115 164.059 C 115 164.641, 114.502 164.810, 113.893 164.434 C 113.140 163.968, 113.001 164.509, 113.458 166.125 C 113.828 167.431, 113.764 167.981, 113.316 167.347 C 112.709 166.490, 111.731 166.558, 109.500 167.612 C 107.850 168.392, 107.400 168.772, 108.500 168.456 C 110.073 168.004, 110.241 168.143, 109.285 169.105 C 108.618 169.778, 107.043 170.412, 105.785 170.514 C 104.151 170.646, 103.522 171.304, 103.577 172.824 C 103.633 174.388, 103.102 174.903, 101.567 174.776 C 98.166 174.495, 92.812 178.172, 93.392 180.390 C 93.743 181.734, 93.577 181.977, 92.822 181.222 C 91.453 179.853, 89 180.780, 89 182.666 C 89 183.465, 88.530 183.828, 87.956 183.473 C 86.408 182.516, 83.816 185.077, 84.507 186.880 C 84.836 187.737, 84.786 188.119, 84.395 187.728 C 84.004 187.337, 82.968 187.576, 82.092 188.259 C 80.683 189.357, 80.658 189.298, 81.872 187.750 C 83.908 185.154, 82.461 185.630, 79.591 188.500 C 78.216 189.875, 76.601 191, 76.002 191 C 75.403 191, 72.458 193.436, 69.457 196.413 C 66.455 199.390, 63.982 201.303, 63.959 200.663 C 63.937 200.023, 62.528 201.075, 60.828 203 C 59.127 204.925, 58.087 205.825, 58.515 205 C 58.944 204.175, 58.310 204.513, 57.108 205.750 C 55.906 206.988, 54.279 208, 53.492 208 C 52.692 208, 52.294 208.604, 52.589 209.371 C 52.878 210.125, 52.391 211.020, 51.506 211.360 C 50.441 211.768, 50.139 211.585, 50.613 210.818 C 51.007 210.180, 50.141 210.523, 48.690 211.579 C 47.238 212.636, 45.765 214.347, 45.416 215.382 C 44.925 216.838, 44.595 216.963, 43.959 215.934 C 43.365 214.973, 42.955 215.333, 42.477 217.236 C 42.010 219.096, 41.356 219.690, 40.244 219.263 C 39.205 218.865, 38.917 219.057, 39.395 219.830 C 39.855 220.574, 39.390 221, 38.116 221 C 36.625 221, 36.217 221.532, 36.517 223.089 C 36.869 224.918, 36.714 225.011, 35.268 223.839 C 34.095 222.888, 33.834 222.862, 34.367 223.750 C 34.864 224.577, 34.468 225, 33.199 225 C 32.144 225, 30.435 226.125, 29.403 227.500 C 28.370 228.875, 27.150 230, 26.691 230 C 25.219 230, 23 232.800, 22.985 234.679 C 22.972 236.220, 22.821 236.270, 22 235 C 21.128 233.651, 20.570 234.275, 20.882 236.250 C 20.947 236.662, 20.303 237, 19.450 237 C 17.336 237, 10.654 243.631, 11.458 244.931 C 11.843 245.556, 11.496 245.744, 10.596 245.399 C 9.710 245.059, 7.937 245.972, 6.294 247.615 C 4.758 249.152, 3.388 250.317, 3.250 250.205 C 3.112 250.092, 3 250.225, 3 250.500 C 3 250.775, 3 251.900, 3 253 C 3 254.145, 3.667 255, 4.559 255 C 5.416 255, 5.840 254.550, 5.500 254 C 5.160 253.450, 5.332 253, 5.882 253 C 6.432 253, 7.161 253.451, 7.502 254.003 C 7.916 254.673, 8.743 254.673, 9.995 254.003 C 11.025 253.451, 13.248 253, 14.934 253 C 16.620 253, 18 252.598, 18 252.107 C 18 251.616, 18.698 250.946, 19.552 250.618 C 20.442 250.277, 20.843 250.445, 20.493 251.011 C 20.157 251.555, 20.584 252, 21.441 252 C 22.298 252, 23 251.550, 23 251 C 23 250.450, 24.125 250, 25.500 250 C 26.875 250, 28 249.523, 28 248.941 C 28 248.359, 28.409 248.135, 28.910 248.444 C 30.358 249.339, 33.058 247.907, 32.302 246.645 C 31.873 245.929, 32.196 245.969, 33.164 246.753 C 34.442 247.787, 35.387 247.548, 38.579 245.382 C 40.706 243.938, 41.841 243.487, 41.101 244.379 C 39.090 246.801, 41.554 246.395, 43.856 243.925 C 45.277 242.399, 45.990 242.174, 46.547 243.076 C 47.107 243.982, 47.658 243.821, 48.653 242.460 C 49.394 241.447, 50 241.154, 50 241.809 C 50 242.464, 50.477 243, 51.059 243 C 51.641 243, 51.904 242.654, 51.643 242.232 C 51.382 241.809, 52.930 241.631, 55.084 241.837 C 59.143 242.224, 59.894 241.418, 57.750 238.977 C 57.062 238.194, 57.435 238.329, 58.579 239.277 C 60.701 241.036, 62.490 241.602, 61.655 240.250 C 61.400 239.838, 62.161 239.461, 63.345 239.414 C 64.530 239.366, 66.361 238.952, 67.414 238.494 C 68.702 237.933, 69.111 238.012, 68.663 238.737 C 68.240 239.421, 68.723 239.624, 69.987 239.293 C 71.082 239.007, 71.786 238.463, 71.553 238.085 C 71.319 237.707, 73.574 237.462, 76.564 237.541 C 79.554 237.620, 82 237.331, 82 236.900 C 82 236.468, 82.941 236.296, 84.092 236.518 C 85.574 236.803, 86.026 236.510, 85.643 235.511 C 85.329 234.695, 85.606 234.271, 86.301 234.504 C 88.834 235.352, 94 235.795, 94 235.163 C 93.999 234.798, 95.911 234.570, 98.247 234.656 C 100.583 234.742, 102.946 234.530, 103.497 234.185 C 104.049 233.840, 105.287 233.432, 106.250 233.279 C 109.414 232.775, 112.500 232.151, 112.500 232.016 C 112.500 231.744, 127.613 230.844, 130.423 230.949 C 132.031 231.009, 133.661 230.549, 134.046 229.926 C 134.548 229.114, 135.304 229.092, 136.720 229.850 C 138.138 230.609, 139.018 230.582, 139.847 229.753 C 140.512 229.088, 141 229.023, 141 229.599 C 141 230.149, 142.463 230.475, 144.250 230.325 C 153.438 229.550, 164.826 229.473, 164.384 230.188 C 163.700 231.295, 164.743 231.208, 167.066 229.965 C 168.130 229.395, 169 229.283, 169 229.716 C 169 230.149, 172.165 230.408, 176.033 230.293 C 180.314 230.166, 182.835 230.459, 182.474 231.042 C 182.148 231.569, 182.471 232.036, 183.191 232.080 C 183.911 232.124, 186.624 232.328, 189.220 232.533 C 191.816 232.739, 194.218 232.456, 194.559 231.905 C 194.968 231.242, 195.582 231.238, 196.372 231.894 C 198.247 233.450, 203.214 235.155, 202.498 233.997 C 202.159 233.449, 202.321 233, 202.858 233 C 203.394 233, 204.023 233.562, 204.254 234.250 C 204.575 235.203, 205.115 235.144, 206.529 234 C 207.549 233.175, 208.071 233.023, 207.688 233.661 C 207.223 234.437, 208.406 235.058, 211.246 235.529 C 213.586 235.918, 216.400 236.448, 217.500 236.708 C 221.393 237.626, 223.531 237.682, 226.181 236.935 C 228.011 236.419, 229.440 236.651, 230.681 237.664 C 231.682 238.480, 231.825 238.824, 231 238.427 C 229.769 237.836, 229.729 237.953, 230.775 239.078 C 231.829 240.212, 232.411 240.225, 234.130 239.151 C 235.273 238.437, 235.911 238.336, 235.546 238.926 C 234.967 239.862, 236.911 240.488, 239.250 240.118 C 239.662 240.053, 240.007 240.563, 240.015 241.250 C 240.026 242.083, 240.354 242, 241 241 C 241.761 239.822, 241.973 239.794, 241.985 240.872 C 241.998 242.036, 242.258 242.036, 243.692 240.872 C 244.709 240.048, 245.097 239.979, 244.664 240.700 C 244.236 241.412, 244.817 242.367, 246.093 243.050 C 247.835 243.982, 248.096 243.944, 247.474 242.850 C 246.855 241.762, 246.968 241.743, 248.053 242.750 C 249.654 244.236, 252.386 244.434, 251.500 243 C 251.160 242.450, 251.250 242, 251.700 242 C 252.151 242, 253.054 242.857, 253.708 243.904 C 254.508 245.186, 255.873 245.740, 257.883 245.601 C 259.525 245.488, 260.845 245.643, 260.816 245.947 C 260.625 247.954, 261.201 248.123, 262.502 246.441 C 263.755 244.823, 263.903 244.791, 263.395 246.250 C 262.835 247.861, 264.321 248.581, 267.250 248.118 C 267.662 248.053, 268 248.450, 268 249 C 268 249.550, 268.477 250, 269.059 250 C 269.641 250, 269.833 249.437, 269.485 248.750 C 269.137 248.063, 269.448 248.214, 270.176 249.088 C 270.904 249.961, 272.125 250.465, 272.889 250.208 C 273.663 249.948, 273.998 250.195, 273.645 250.765 C 272.848 252.056, 275.223 252.995, 279.332 253.015 C 281.463 253.026, 282.061 253.309, 281.157 253.882 C 280.214 254.479, 281.312 255.271, 284.849 256.543 C 287.617 257.538, 289.796 258.767, 289.691 259.273 C 289.586 259.778, 290.535 260.593, 291.801 261.083 C 293.515 261.746, 293.939 261.658, 293.464 260.737 C 293.113 260.056, 293.714 260.591, 294.799 261.925 C 295.884 263.258, 297.487 264.454, 298.361 264.583 C 299.235 264.711, 301.139 265.751, 302.593 266.894 C 304.046 268.037, 305.632 268.727, 306.118 268.427 C 306.603 268.127, 307 268.385, 307 269 C 307 269.615, 307.403 269.869, 307.895 269.565 C 308.388 269.260, 309.019 269.571, 309.298 270.256 C 309.577 270.940, 312.429 272.850, 315.634 274.500 C 318.840 276.150, 322.592 278.512, 323.971 279.750 C 325.351 280.988, 327.047 282, 327.740 282 C 328.433 282, 329 282.477, 329 283.059 C 329 283.641, 329.451 283.839, 330.002 283.499 C 330.553 283.158, 331.406 283.938, 331.898 285.231 C 332.883 287.823, 334.750 289.658, 336.920 290.168 C 338.812 290.612, 342 293.722, 342 295.122 C 342 295.890, 342.481 295.846, 343.523 294.981 C 344.796 293.924, 344.943 293.986, 344.416 295.359 C 343.993 296.461, 344.314 297, 345.393 297 C 346.333 297, 347 297.830, 347 299 C 347 300.100, 347.525 301, 348.167 301 C 348.808 301, 349.060 301.273, 348.727 301.606 C 347.521 302.813, 351.662 306.065, 353.599 305.432 C 355.161 304.922, 355.233 305.004, 354 305.890 C 352.895 306.685, 352.845 306.973, 353.809 306.985 C 354.529 306.993, 354.879 307.387, 354.586 307.860 C 354.294 308.334, 355.742 310.246, 357.804 312.110 C 359.866 313.975, 362.812 317.161, 364.350 319.190 C 366.109 321.511, 367.692 322.672, 368.615 322.317 C 369.750 321.882, 369.971 322.377, 369.586 324.500 C 369.312 326.010, 369.365 326.968, 369.705 326.629 C 370.044 326.289, 370.848 327.022, 371.492 328.256 C 372.137 329.490, 373.189 330.388, 373.832 330.250 C 374.474 330.113, 375 330.605, 375 331.345 C 375 332.085, 375.927 333.529, 377.061 334.555 C 378.826 336.153, 379.256 336.211, 380.057 334.960 C 380.611 334.095, 380.892 315.284, 380.746 288.801 C 380.504 244.842, 380.533 244.093, 382.500 243.565 C 383.600 243.269, 407.548 243.021, 435.719 243.014 C 478.697 243.002, 486.853 243.221, 486.411 244.371 C 486.122 245.125, 486.551 245.997, 487.365 246.310 C 488.285 246.663, 488.642 247.653, 488.309 248.927 C 487.963 250.250, 488.342 251.194, 489.381 251.593 C 490.265 251.932, 490.772 252.560, 490.508 252.987 C 490.244 253.415, 490.921 254.901, 492.014 256.290 C 493.106 257.679, 494 259.252, 494 259.785 C 494 260.319, 494.675 261.315, 495.500 262 C 496.325 262.685, 497 264.063, 497 265.063 C 497 266.064, 497.520 267.203, 498.155 267.595 C 498.918 268.068, 499.035 267.866, 498.500 267 C 497.949 266.108, 498.080 265.932, 498.914 266.447 C 499.586 266.862, 499.904 267.809, 499.619 268.550 C 499.262 269.480, 499.629 269.701, 500.801 269.262 C 502.337 268.687, 502.356 268.806, 501 270.505 C 499.797 272.012, 499.781 272.214, 500.920 271.528 C 501.998 270.878, 502.179 271.092, 501.670 272.417 C 501.302 273.377, 501.634 275.068, 502.409 276.174 C 503.744 278.080, 503.842 278.089, 504.293 276.342 C 504.671 274.877, 504.792 274.972, 504.884 276.809 C 504.958 278.283, 505.418 278.860, 506.155 278.405 C 506.876 277.959, 507.037 278.131, 506.585 278.862 C 506.187 279.506, 505.448 279.777, 504.942 279.464 C 504.437 279.152, 504.291 279.594, 504.618 280.448 C 504.946 281.302, 505.616 282, 506.107 282 C 506.598 282, 507 282.648, 507 283.441 C 507 284.234, 507.445 285.157, 507.989 285.493 C 508.568 285.851, 508.736 285.359, 508.394 284.302 C 507.954 282.940, 508.049 282.833, 508.783 283.861 C 509.318 284.609, 509.514 286.142, 509.220 287.267 C 508.860 288.643, 509.060 289.081, 509.831 288.604 C 510.574 288.145, 510.768 288.442, 510.382 289.448 C 510.054 290.302, 510.253 291, 510.823 291 C 511.394 291, 512.015 292.012, 512.204 293.250 C 512.396 294.508, 513.144 295.371, 513.902 295.207 C 514.811 295.011, 515.083 295.573, 514.731 296.921 C 514.120 299.259, 516.486 301.879, 517.324 299.792 C 517.609 299.081, 517.878 299.512, 517.921 300.750 C 517.964 301.988, 518.563 303.007, 519.250 303.015 C 520.239 303.027, 520.236 303.198, 519.236 303.833 C 518.236 304.468, 518.303 305.300, 519.559 307.818 C 521.251 311.209, 522.621 312.168, 521.605 309.250 C 521.097 307.791, 521.245 307.823, 522.498 309.441 C 524.323 311.799, 524.462 313.401, 522.750 312.352 C 522.049 311.922, 522.226 312.665, 523.152 314.043 C 524.060 315.394, 525.486 316.444, 526.320 316.375 C 527.324 316.292, 527.707 316.925, 527.452 318.249 C 527.025 320.468, 528.942 324.778, 530.500 325.100 C 531.050 325.214, 531.359 326.140, 531.186 327.159 C 530.762 329.661, 534.694 335, 536.960 335 C 538.714 335, 540.770 330.437, 539.561 329.228 C 539.267 328.933, 540.257 327.480, 541.763 325.999 C 543.268 324.518, 544.646 322.675, 544.825 321.903 C 545.004 321.131, 545.566 320.350, 546.075 320.167 C 546.584 319.983, 547 318.732, 547 317.385 C 547 316.039, 547.647 314.689, 548.437 314.386 C 549.264 314.068, 549.616 313.163, 549.267 312.253 C 548.865 311.207, 549.056 310.916, 549.830 311.395 C 550.532 311.829, 551 311.495, 551 310.559 C 551 309.702, 551.450 309, 552 309 C 552.550 309, 553 308.380, 553 307.622 C 553 306.865, 553.666 305.693, 554.479 305.017 C 555.569 304.113, 555.695 303.298, 554.956 301.918 C 554.169 300.448, 554.262 300.163, 555.387 300.595 C 556.964 301.200, 558.557 297.710, 557.490 295.984 C 557.139 295.416, 557.447 295.074, 558.176 295.225 C 558.904 295.376, 559.440 294.730, 559.368 293.789 C 559.295 292.848, 559.745 292.173, 560.368 292.289 C 561.062 292.418, 561.402 291.243, 561.246 289.250 C 561.107 287.463, 561.430 286, 561.965 286 C 562.500 286, 562.656 286.788, 562.312 287.750 C 561.425 290.234, 565.240 285.148, 567 281.500 C 567.796 279.850, 569.247 277.427, 570.224 276.115 C 571.201 274.803, 572 272.891, 572 271.865 C 572 270.839, 572.477 270, 573.059 270 C 573.641 270, 573.840 269.550, 573.500 269 C 573.160 268.450, 573.385 268, 574 268 C 574.615 268, 574.864 267.588, 574.553 267.085 C 574.242 266.582, 574.543 265.986, 575.222 265.759 C 575.901 265.533, 576.466 264.257, 576.478 262.924 C 576.490 261.591, 577.015 260.597, 577.643 260.714 C 578.272 260.832, 579.378 259.482, 580.101 257.714 C 580.824 255.947, 581.997 253.905, 582.708 253.179 C 583.418 252.452, 584 251.214, 584 250.429 C 584 249.643, 584.477 249, 585.059 249 C 585.641 249, 585.859 248.581, 585.543 248.069 C 585.226 247.557, 585.432 246.851, 586 246.500 C 586.568 246.149, 586.731 245.373, 586.362 244.776 C 585.961 244.129, 586.156 243.979, 586.845 244.405 C 587.480 244.797, 588 244.628, 588 244.028 C 588 243.254, 603.710 242.966, 642.250 243.033 L 696.500 243.128 696.252 273.814 C 695.406 378.601, 695.535 420.992, 696.701 421.439 C 697.362 421.692, 698.937 420.988, 700.201 419.874 C 701.466 418.759, 701.969 418.114, 701.319 418.440 C 700.670 418.766, 699.870 418.599, 699.542 418.069 C 699.208 417.527, 699.866 417.282, 701.046 417.509 C 702.228 417.737, 705.189 416.630, 707.823 414.976 C 710.395 413.360, 711.825 412.014, 711 411.984 C 710.099 411.951, 710.493 411.379, 711.987 410.552 C 713.356 409.795, 714.889 409.431, 715.395 409.744 C 715.901 410.057, 716.069 409.371, 715.768 408.221 C 715.410 406.851, 715.777 405.916, 716.832 405.511 C 718.228 404.975, 718.247 404.768, 716.972 403.962 C 715.725 403.173, 715.759 403.028, 717.191 403.015 C 718.121 403.007, 719.203 402.480, 719.595 401.845 C 720.080 401.062, 719.858 400.963, 718.905 401.537 C 717.754 402.231, 717.724 402.107, 718.741 400.850 C 719.424 400.006, 719.663 398.996, 719.272 398.605 C 718.881 398.214, 719.353 398.198, 720.321 398.570 C 721.360 398.968, 721.963 398.814, 721.791 398.193 C 721.631 397.615, 722.400 396.401, 723.500 395.496 C 724.600 394.592, 724.825 394.196, 724 394.618 C 722.712 395.276, 722.693 395.146, 723.863 393.703 C 724.613 392.778, 725.603 392.255, 726.063 392.539 C 727.126 393.196, 729.164 389.497, 728.245 388.579 C 727.869 388.202, 728.340 388.193, 729.292 388.558 C 730.559 389.045, 730.869 388.823, 730.451 387.732 C 729.826 386.105, 734.298 382, 736.694 382 C 737.516 382, 737.816 381.512, 737.405 380.845 C 736.940 380.094, 737.133 379.964, 737.957 380.473 C 738.777 380.980, 740.415 379.914, 742.611 377.446 C 744.475 375.351, 746 374.195, 746 374.877 C 746 375.560, 746.457 375.835, 747.016 375.490 C 747.575 375.144, 747.777 374.448, 747.464 373.942 C 747.152 373.437, 747.549 373.273, 748.347 373.580 C 749.145 373.886, 750.138 373.586, 750.553 372.914 C 751.082 372.059, 750.887 371.946, 749.905 372.537 C 748.708 373.258, 748.704 373.133, 749.872 371.692 C 750.627 370.761, 752.540 370, 754.122 370 C 755.705 370, 757 369.550, 757 369 C 757 368.450, 757.643 368, 758.429 368 C 759.214 368, 760.645 367.212, 761.607 366.250 C 762.570 365.287, 763.502 364.613, 763.679 364.750 C 765.076 365.837, 766.017 364.723, 764.872 363.336 C 763.631 361.831, 763.710 361.784, 765.702 362.846 C 767.514 363.811, 768.545 363.659, 771.517 361.991 C 773.504 360.875, 775.620 360.265, 776.219 360.635 C 776.871 361.039, 777.023 360.845, 776.595 360.155 C 776.146 359.427, 776.632 359, 777.910 359 C 779.404 359, 779.779 358.540, 779.334 357.250 C 778.848 355.839, 779.034 355.887, 780.298 357.500 C 781.632 359.203, 782.061 359.292, 783.183 358.103 C 783.954 357.285, 784.011 356.981, 783.319 357.370 C 782.670 357.734, 781.882 357.617, 781.568 357.110 C 781.240 356.580, 783.232 356.297, 786.249 356.444 C 789.137 356.586, 790.938 356.506, 790.250 356.267 C 787.711 355.386, 789.108 354.314, 792.500 354.541 C 794.425 354.670, 796 354.472, 796 354.102 C 796 353.463, 798.104 353.092, 802.454 352.964 C 803.529 352.932, 805.025 352.394, 805.780 351.768 C 806.643 351.051, 807.402 350.988, 807.826 351.598 C 808.842 353.059, 811.544 352.608, 811.194 351.035 C 810.941 349.904, 811.162 349.889, 812.444 350.953 C 813.866 352.134, 814.433 351.722, 814.115 349.739 C 814.048 349.321, 814.858 349.519, 815.915 350.179 C 817.430 351.125, 818.173 351.102, 819.419 350.067 C 820.526 349.148, 821 349.102, 821 349.912 C 821 351.283, 824.608 350.902, 827.684 349.205 C 830.219 347.807, 837.387 347.565, 836.559 348.905 C 836.237 349.426, 840.144 349.744, 845.750 349.655 C 853.592 349.530, 855.440 349.222, 855.194 348.081 C 854.968 347.037, 855.232 346.937, 856.194 347.705 C 858.322 349.406, 871.713 349.145, 873.489 347.368 C 874.869 345.988, 875.428 346.291, 875.118 348.250 C 875.053 348.663, 877.925 349, 881.500 349 C 885.075 349, 888 348.593, 888 348.095 C 888 347.597, 892.457 347.260, 897.905 347.345 C 903.353 347.430, 907.574 347.118, 907.284 346.650 C 906.995 346.183, 907.724 346.317, 908.904 346.949 C 911.204 348.179, 921 348.137, 921 346.897 C 921 346.486, 922.673 346.358, 924.718 346.612 C 927.726 346.985, 928.779 346.636, 930.231 344.787 C 931.436 343.252, 931.822 343.075, 931.406 344.250 C 931.057 345.236, 931.269 346, 931.893 346 C 933.641 346, 933.182 343.201, 931.258 342.125 C 930.300 341.589, 929.831 340.835, 930.216 340.451 C 930.600 340.066, 929.922 338.873, 928.707 337.800 C 927.493 336.726, 927.063 336.133, 927.750 336.483 C 929.890 337.570, 929.118 335.555, 926.853 334.140 C 925.114 333.054, 924.971 332.627, 926.103 331.892 C 927.227 331.162, 927.012 330.601, 925 329.015 C 923.566 327.884, 923.082 327.035, 923.865 327.022 C 924.947 327.005, 924.891 326.483, 923.592 324.500 C 922.691 323.125, 922.289 322, 922.699 322 C 923.110 322, 922.423 321.284, 921.175 320.410 C 919.520 319.251, 919.186 318.481, 919.944 317.568 C 920.515 316.879, 920.674 316.007, 920.296 315.629 C 919.040 314.374, 919.141 311.906, 920.590 308.438 C 921.378 306.553, 921.905 304.820, 921.761 304.588 C 921.618 304.356, 921.910 303.792, 922.410 303.333 C 922.949 302.840, 922.988 303.073, 922.506 303.905 C 921.942 304.876, 922.066 305.077, 922.907 304.557 C 923.576 304.144, 924.534 302.724, 925.037 301.403 C 925.831 299.313, 927.592 298.462, 930.250 298.882 C 930.663 298.947, 931 298.355, 931 297.566 C 931 296.581, 931.785 296.275, 933.509 296.587 C 934.889 296.838, 937.251 296.420, 938.759 295.658 C 940.266 294.897, 942.077 294.480, 942.781 294.731 C 943.486 294.982, 943.936 294.599, 943.781 293.880 C 943.607 293.069, 944.525 292.546, 946.200 292.503 C 947.685 292.465, 949.222 292.111, 949.616 291.717 C 950.011 291.323, 950.821 291.007, 951.417 291.015 C 952.012 291.024, 951.825 291.467, 951 292 C 950.064 292.605, 949.955 292.975, 950.711 292.985 C 951.377 292.993, 952.906 291.988, 954.108 290.750 C 955.310 289.512, 955.976 289.063, 955.588 289.750 C 954.648 291.414, 958.154 291.414, 959.947 289.750 C 961.032 288.743, 961.145 288.762, 960.526 289.850 C 959.886 290.976, 960.152 290.982, 962.129 289.890 C 963.433 289.170, 965.108 288.705, 965.850 288.857 C 966.728 289.037, 966.923 288.673, 966.408 287.817 C 965.758 286.735, 965.901 286.731, 967.212 287.793 C 968.905 289.164, 974.385 288.431, 973.473 286.956 C 973.190 286.499, 974.148 286.341, 975.601 286.604 C 977.248 286.903, 980.172 286.112, 983.371 284.501 C 986.192 283.081, 987.600 282.673, 986.500 283.594 C 984.729 285.077, 984.710 285.196, 986.332 284.635 C 987.339 284.286, 988.828 284, 989.641 284 C 990.453 284, 990.869 283.597, 990.565 283.105 C 990.260 282.612, 990.788 281.912, 991.737 281.548 C 992.686 281.183, 993.612 281.336, 993.796 281.887 C 994.184 283.051, 996.809 282.286, 999.081 280.346 C 999.951 279.603, 1000.963 279.297, 1001.331 279.664 C 1001.699 280.032, 1002.007 279.696, 1002.015 278.917 C 1002.028 277.740, 1002.177 277.730, 1002.890 278.857 C 1003.432 279.712, 1004.541 279.963, 1005.890 279.535 C 1007.066 279.162, 1007.774 278.444, 1007.463 277.939 C 1007.151 277.435, 1007.594 277.291, 1008.448 277.618 C 1009.378 277.975, 1010.006 277.670, 1010.015 276.857 C 1010.027 275.807, 1010.244 275.837, 1010.974 276.992 C 1011.725 278.180, 1012.170 278.230, 1013.158 277.242 C 1013.841 276.559, 1014.872 276.007, 1015.450 276.015 C 1016.027 276.024, 1015.825 276.467, 1015 277 C 1014.175 277.533, 1013.976 277.976, 1014.559 277.985 C 1015.141 277.993, 1016.472 277.375, 1017.517 276.611 C 1018.562 275.847, 1020.071 275.474, 1020.872 275.781 C 1021.921 276.184, 1022.089 275.943, 1021.472 274.920 C 1020.795 273.797, 1020.917 273.734, 1022.058 274.622 C 1023.718 275.912, 1027 275.619, 1027.941 274.095 C 1028.294 273.524, 1029.875 273.291, 1031.455 273.578 C 1033.959 274.032, 1034.162 273.900, 1033.041 272.549 C 1032.248 271.594, 1032.163 271, 1032.819 271 C 1033.403 271, 1034.160 271.450, 1034.500 272 C 1034.840 272.550, 1036.040 273, 1037.166 273 C 1038.704 273, 1039.048 272.564, 1038.548 271.250 C 1038.014 269.847, 1038.131 269.748, 1039.141 270.750 C 1040.947 272.543, 1042.325 272.291, 1041.564 270.306 C 1040.969 268.755, 1041.066 268.745, 1042.707 270.187 C 1043.914 271.246, 1045.154 271.496, 1046.500 270.951 C 1047.600 270.505, 1049.989 270.109, 1051.809 270.070 C 1053.629 270.032, 1054.857 269.578, 1054.539 269.062 C 1054.214 268.538, 1055.663 268.148, 1057.829 268.178 C 1059.957 268.208, 1062.705 267.693, 1063.935 267.035 C 1065.165 266.377, 1066.429 266.096, 1066.744 266.410 C 1067.058 266.725, 1068.006 266.424, 1068.850 265.741 C 1070.007 264.805, 1070.205 264.798, 1069.655 265.714 C 1069.136 266.579, 1069.908 266.519, 1072.336 265.504 C 1074.211 264.720, 1076.028 264.361, 1076.373 264.706 C 1076.718 265.051, 1077.007 264.696, 1077.015 263.917 C 1077.028 262.733, 1077.184 262.742, 1077.962 263.972 C 1078.765 265.243, 1078.979 265.219, 1079.523 263.800 C 1080.011 262.528, 1081.174 262.239, 1084.663 262.524 C 1088.455 262.833, 1089.075 262.639, 1088.563 261.304 C 1088.056 259.983, 1088.209 259.929, 1089.477 260.981 C 1090.315 261.676, 1091 261.837, 1091 261.339 C 1091 260.841, 1092.237 260.489, 1093.750 260.556 C 1097.963 260.743, 1100.472 259.915, 1098.835 258.877 C 1097.812 258.228, 1097.909 258.027, 1099.250 258.015 C 1100.213 258.007, 1101 258.388, 1101 258.861 C 1101 259.335, 1102.125 259.508, 1103.500 259.245 C 1104.875 258.982, 1106.007 258.257, 1106.015 257.633 C 1106.024 257.010, 1106.467 257.175, 1107 258 C 1107.862 259.333, 1107.984 259.333, 1108.103 258 C 1108.177 257.175, 1108.189 256.179, 1108.130 255.786 C 1108.072 255.393, 1108.691 255.328, 1109.506 255.641 C 1110.321 255.954, 1110.757 256.584, 1110.474 257.042 C 1109.487 258.639, 1115.365 256.883, 1116.646 255.198 C 1117.847 253.618, 1117.939 253.629, 1117.968 255.357 C 1117.992 256.735, 1118.451 257.024, 1119.750 256.478 C 1120.713 256.074, 1122.507 255.524, 1123.738 255.257 C 1124.969 254.990, 1125.730 254.373, 1125.429 253.886 C 1124.646 252.619, 1127.388 252.788, 1128.687 254.087 C 1129.470 254.870, 1129.989 254.827, 1130.542 253.933 C 1131.082 253.058, 1130.894 252.941, 1129.905 253.537 C 1128.755 254.230, 1128.764 254.059, 1129.953 252.595 C 1131.346 250.880, 1131.436 250.882, 1132.133 252.653 C 1132.543 253.696, 1132.890 253.909, 1132.930 253.143 C 1132.968 252.397, 1133.620 252.024, 1134.378 252.315 C 1135.136 252.606, 1136.327 252.316, 1137.025 251.672 C 1138.001 250.770, 1138.132 250.786, 1137.595 251.739 C 1137.127 252.569, 1137.406 252.781, 1138.442 252.384 C 1139.293 252.057, 1139.680 251.275, 1139.302 250.645 C 1138.791 249.792, 1138.984 249.787, 1140.058 250.624 C 1141.607 251.832, 1146.316 251.477, 1146.785 250.116 C 1146.942 249.662, 1148.195 249.506, 1149.570 249.769 C 1151.119 250.065, 1152.818 249.570, 1154.035 248.468 C 1155.549 247.098, 1156.004 247.012, 1156.015 248.095 C 1156.028 249.238, 1156.211 249.220, 1157 248 C 1157.862 246.667, 1157.973 246.667, 1158 248 C 1158.027 249.333, 1158.138 249.333, 1159 248 C 1159.533 247.175, 1159.976 246.889, 1159.985 247.365 C 1159.993 247.841, 1161.077 247.524, 1162.393 246.662 C 1163.721 245.792, 1165.947 245.304, 1167.393 245.566 C 1169.078 245.872, 1170.005 245.590, 1170.015 244.770 C 1170.026 243.898, 1170.327 243.968, 1170.976 244.995 C 1171.787 246.278, 1172.135 246.207, 1173.429 244.495 C 1174.309 243.330, 1174.950 243.035, 1174.968 243.785 C 1174.993 244.768, 1175.480 244.814, 1177.038 243.980 C 1178.159 243.380, 1179.959 243.169, 1181.038 243.512 C 1182.195 243.879, 1183 243.672, 1183 243.008 C 1183 242.389, 1182.480 242.203, 1181.845 242.595 C 1181.182 243.005, 1180.961 242.873, 1181.325 242.284 C 1181.673 241.720, 1183.430 241.274, 1185.229 241.292 C 1191.040 241.353, 1197.068 239.922, 1196.312 238.661 C 1195.885 237.949, 1196.233 237.999, 1197.211 238.792 C 1198.390 239.747, 1198.907 239.779, 1199.195 238.915 C 1199.548 237.855, 1200.932 237.507, 1206.309 237.128 C 1207.304 237.057, 1207.869 236.597, 1207.565 236.105 C 1207.260 235.612, 1207.707 234.943, 1208.558 234.616 C 1209.443 234.276, 1209.843 234.445, 1209.493 235.011 C 1209.157 235.555, 1209.332 236, 1209.882 236 C 1210.432 236, 1211.165 235.543, 1211.510 234.984 C 1211.856 234.425, 1212.521 234.204, 1212.988 234.493 C 1213.456 234.782, 1214.547 234.311, 1215.412 233.445 C 1216.277 232.580, 1217.402 232.130, 1217.912 232.445 C 1218.422 232.761, 1219.496 232.361, 1220.300 231.557 C 1221.104 230.753, 1221.971 230.305, 1222.227 230.561 C 1223.034 231.367, 1230.108 227.983, 1229.539 227.063 C 1229.241 226.581, 1229.785 226.388, 1230.749 226.635 C 1231.791 226.901, 1233.918 225.762, 1236 223.821 C 1237.925 222.027, 1239.821 220.653, 1240.214 220.767 C 1240.607 220.882, 1240.641 220.228, 1240.290 219.314 C 1239.817 218.081, 1240.065 217.811, 1241.253 218.267 C 1242.134 218.605, 1243.392 218.233, 1244.049 217.441 C 1244.991 216.306, 1244.953 215.991, 1243.872 215.960 C 1243.118 215.938, 1243.737 215.249, 1245.250 214.428 C 1246.763 213.607, 1248.034 212.613, 1248.077 212.218 C 1248.411 209.081, 1249.125 207.382, 1250.544 206.344 C 1251.455 205.678, 1251.933 204.700, 1251.606 204.171 C 1251.279 203.642, 1251.784 202.913, 1252.728 202.551 C 1254.199 201.987, 1254.234 201.759, 1252.972 200.962 C 1251.747 200.187, 1251.804 200.028, 1253.309 200.015 C 1254.304 200.007, 1254.840 199.550, 1254.500 199 C 1254.160 198.450, 1254.407 198, 1255.048 198 C 1255.691 198, 1255.947 197.304, 1255.618 196.448 C 1255.277 195.558, 1255.445 195.157, 1256.011 195.507 C 1257.005 196.121, 1257.145 195.753, 1257.375 191.912 C 1257.444 190.763, 1258.513 189.003, 1259.750 188.001 C 1262.166 186.045, 1262.804 184.467, 1260.750 185.528 C 1260.063 185.883, 1260.560 185.309, 1261.855 184.253 C 1263.237 183.126, 1264.059 181.545, 1263.844 180.428 C 1263.642 179.380, 1264.286 177.714, 1265.275 176.725 C 1266.264 175.736, 1266.824 174.525, 1266.520 174.033 C 1266.216 173.541, 1266.432 172.851, 1267 172.500 C 1267.568 172.149, 1267.774 171.443, 1267.457 170.931 C 1267.141 170.419, 1267.534 170, 1268.332 170 C 1269.192 170, 1269.996 168.679, 1270.309 166.750 C 1270.600 164.963, 1270.986 162.600, 1271.169 161.500 C 1271.351 160.400, 1271.870 159.228, 1272.322 158.896 C 1273.521 158.016, 1274.946 151, 1273.926 151 C 1273.451 151, 1273.236 150.438, 1273.448 149.750 C 1274.661 145.813, 1274.976 142.896, 1274.133 143.418 C 1273.613 143.739, 1273.396 143.202, 1273.652 142.222 C 1274.143 140.346, 1271.537 136.712, 1269 135.735 C 1267.706 135.237, 1267.702 135.147, 1268.973 135.079 C 1269.986 135.025, 1269.752 134.515, 1268.221 133.442 C 1266.997 132.585, 1265.544 132.164, 1264.991 132.505 C 1264.438 132.847, 1263.708 132.401, 1263.367 131.515 C 1262.544 129.370, 1256.916 127.068, 1254.946 128.070 C 1254.091 128.505, 1252.741 128.399, 1251.946 127.836 C 1250.784 127.013, 1250.854 126.926, 1252.302 127.394 C 1253.359 127.736, 1253.851 127.568, 1253.493 126.989 C 1253.157 126.445, 1251.982 126, 1250.882 126 C 1249.548 126, 1249.132 126.416, 1249.633 127.250 C 1250.143 128.099, 1249.842 128.060, 1248.692 127.128 C 1247.132 125.862, 1246.547 126.255, 1246.906 128.324 C 1246.985 128.778, 1246.608 128.876, 1246.068 128.542 C 1245.529 128.209, 1245.369 127.163, 1245.713 126.218 C 1246.249 124.747, 1245.993 124.788, 1243.936 126.500 C 1240.111 129.683, 1238.977 131.375, 1239.410 133.251 C 1239.632 134.215, 1239.442 134.773, 1238.988 134.493 C 1238.095 133.941, 1236.460 139.642, 1236.878 141.850 C 1237.037 142.687, 1236.668 142.913, 1235.909 142.444 C 1235.042 141.908, 1234.844 142.297, 1235.232 143.779 C 1235.572 145.078, 1235.235 146.080, 1234.343 146.422 C 1233.553 146.725, 1232.976 147.542, 1233.062 148.237 C 1233.558 152.273, 1229.841 156.241, 1227.633 154.033 C 1226.922 153.322, 1227.088 153, 1228.163 153 C 1229.158 153, 1229.678 152.182, 1229.592 150.750 C 1229.518 149.512, 1230.142 147.904, 1230.978 147.176 C 1232.291 146.034, 1232.294 145.957, 1231 146.618 C 1229.811 147.225, 1229.731 147.085, 1230.614 145.942 C 1231.226 145.149, 1231.789 143.713, 1231.864 142.750 C 1232.173 138.784, 1232.367 138, 1233.039 138 C 1233.587 138, 1234.786 132.887, 1235.150 129 C 1235.176 128.725, 1235.648 127.658, 1236.198 126.629 C 1236.953 125.220, 1236.896 124.946, 1235.970 125.519 C 1235.174 126.011, 1234.905 125.789, 1235.208 124.889 C 1235.465 124.125, 1234.961 122.904, 1234.088 122.176 C 1232.859 121.151, 1232.839 121.025, 1234 121.618 C 1235.311 122.288, 1235.320 122.162, 1234.070 120.622 C 1233.275 119.644, 1231.831 119.073, 1230.818 119.337 C 1229.817 119.599, 1229.229 119.438, 1229.513 118.979 C 1230.198 117.871, 1226.606 116.693, 1220.691 116.083 C 1220.246 116.037, 1220.160 115.550, 1220.500 115 C 1220.840 114.450, 1220.529 113.943, 1219.809 113.872 C 1219.089 113.802, 1217.572 113.643, 1216.437 113.518 C 1215.302 113.393, 1213.165 112.499, 1211.687 111.530 C 1210.209 110.562, 1209 110.133, 1209 110.576 C 1209 111.019, 1208.390 110.548, 1207.645 109.529 C 1206.849 108.441, 1205.640 107.924, 1204.718 108.278 C 1203.853 108.610, 1202.591 108.212, 1201.913 107.395 C 1201.235 106.578, 1200.077 106.140, 1199.340 106.423 C 1198.603 106.706, 1198 106.446, 1198 105.846 C 1198 105.134, 1197.472 105.194, 1196.477 106.019 C 1195.190 107.087, 1195.061 107.004, 1195.646 105.481 C 1196.196 104.047, 1195.938 103.783, 1194.389 104.188 C 1193.318 104.468, 1191.874 104.091, 1191.181 103.349 C 1189.284 101.318, 1187.495 101.668, 1189.128 103.750 C 1190.370 105.334, 1190.335 105.370, 1188.761 104.137 C 1187.805 103.387, 1187.228 102.440, 1187.480 102.033 C 1187.731 101.626, 1186.755 100.754, 1185.309 100.095 C 1183.219 99.143, 1182.512 99.164, 1181.856 100.199 C 1181.246 101.160, 1181.027 101.026, 1181.015 99.687 C 1181.006 98.564, 1180.334 97.942, 1179.250 98.052 C 1176.161 98.367, 1174.867 98.024, 1175.468 97.052 C 1175.790 96.531, 1175.141 96.280, 1174.027 96.495 C 1172.912 96.710, 1172 96.413, 1172 95.836 C 1172 95.258, 1171.302 95.054, 1170.448 95.382 C 1169.594 95.709, 1169.142 95.579, 1169.442 95.093 C 1169.743 94.607, 1169.293 93.943, 1168.442 93.616 C 1167.557 93.276, 1167.157 93.445, 1167.507 94.011 C 1167.843 94.555, 1167.641 95, 1167.059 95 C 1166.477 95, 1166 94.502, 1166 93.893 C 1166 93.284, 1165.330 93.043, 1164.512 93.357 C 1163.652 93.687, 1163.124 93.416, 1163.262 92.714 C 1163.404 91.989, 1162.382 91.517, 1160.723 91.542 C 1158.940 91.568, 1158.113 91.147, 1158.413 90.365 C 1158.712 89.587, 1157.909 89.166, 1156.190 89.200 C 1151.340 89.295, 1149.874 89.014, 1150.440 88.097 C 1150.747 87.601, 1149.648 86.724, 1147.999 86.149 C 1146.349 85.574, 1145 85.361, 1145 85.674 C 1145 85.988, 1144.404 85.750, 1143.676 85.146 C 1142.948 84.542, 1141.361 84.238, 1140.149 84.471 C 1138.938 84.705, 1138.180 84.517, 1138.466 84.054 C 1139.099 83.031, 1134.293 81.701, 1132.954 82.528 C 1132.429 82.853, 1132 82.694, 1132 82.176 C 1132 81.657, 1131.213 81.007, 1130.250 80.730 C 1129.287 80.453, 1127.600 79.890, 1126.500 79.479 L 1124.500 78.731 1126.500 80.440 C 1127.600 81.379, 1127.825 81.821, 1127 81.422 C 1126.175 81.023, 1124.727 80.033, 1123.783 79.223 C 1122.833 78.408, 1121.122 77.996, 1119.954 78.302 C 1118.332 78.726, 1117.982 78.490, 1118.444 77.286 C 1118.956 75.952, 1118.806 75.916, 1117.447 77.044 C 1116.111 78.153, 1115.698 78.135, 1114.939 76.936 C 1114.439 76.146, 1114.024 75.870, 1114.015 76.321 C 1114.007 76.773, 1113.267 76.410, 1112.371 75.514 C 1111.475 74.618, 1110.162 74.107, 1109.454 74.379 C 1108.745 74.651, 1107.917 74.227, 1107.614 73.437 C 1107.311 72.647, 1105.897 72, 1104.472 72 C 1102.729 72, 1102.089 72.409, 1102.515 73.250 C 1102.863 73.938, 1102.514 73.728, 1101.739 72.785 C 1100.624 71.427, 1100.057 71.323, 1099.018 72.285 C 1097.986 73.241, 1097.857 73.234, 1098.412 72.250 C 1099.046 71.128, 1097.904 70.541, 1095.750 70.882 C 1095.338 70.947, 1095 70.523, 1095 69.941 C 1095 69.359, 1094.550 69.160, 1094 69.500 C 1093.450 69.840, 1093 69.641, 1093 69.059 C 1093 68.477, 1092.662 68.076, 1092.250 68.168 C 1090.749 68.505, 1083.963 66.750, 1083.430 65.887 C 1083.129 65.399, 1081.810 65, 1080.500 65 C 1079.190 65, 1077.852 64.570, 1077.527 64.044 C 1077.202 63.518, 1076.316 63.325, 1075.558 63.616 C 1074.800 63.907, 1072.742 63.401, 1070.983 62.491 C 1068.959 61.444, 1066.351 61.004, 1063.873 61.290 C 1061.720 61.539, 1059.731 61.374, 1059.453 60.923 C 1059.174 60.473, 1059.871 60.283, 1061 60.500 C 1062.129 60.717, 1062.790 60.469, 1062.468 59.948 C 1062.146 59.426, 1060.334 59, 1058.441 59 C 1056.548 59, 1055 58.599, 1055 58.109 C 1055 57.620, 1053.457 57.039, 1051.570 56.818 C 1049.684 56.598, 1048.360 56.774, 1048.629 57.209 C 1048.898 57.644, 1048.443 58, 1047.618 58 C 1045.739 58, 1044.407 56.037, 1046.191 55.898 C 1047.661 55.783, 1041.595 53.972, 1038.500 53.602 C 1037.400 53.471, 1034.352 52.541, 1031.728 51.537 C 1029.103 50.533, 1026.669 49.997, 1026.320 50.347 C 1025.970 50.697, 1025.119 50.514, 1024.429 49.941 C 1023.738 49.368, 1021.897 48.687, 1020.337 48.428 C 1018.248 48.081, 1017.892 48.215, 1018.987 48.934 C 1020.169 49.711, 1020.010 49.876, 1018.213 49.741 C 1016.931 49.645, 1016.147 49.059, 1016.404 48.390 C 1016.697 47.627, 1015.843 47.279, 1013.991 47.408 C 1012.415 47.517, 1011.349 47.245, 1011.622 46.803 C 1011.895 46.361, 1011.218 46, 1010.118 46 C 1009.018 46, 1007.883 45.619, 1007.595 45.153 C 1006.826 43.910, 1000.771 43.945, 999.257 45.202 C 998.238 46.047, 998.109 45.870, 998.664 44.391 C 999.292 42.721, 999.178 42.660, 997.687 43.872 C 996.236 45.053, 996 45.022, 996 43.654 C 996 42.644, 995.447 42.275, 994.487 42.643 C 993.655 42.963, 992.219 42.611, 991.295 41.862 C 990.138 40.923, 989.850 40.889, 990.367 41.750 C 990.780 42.438, 990.641 43, 990.059 43 C 989.477 43, 989 42.295, 989 41.433 C 989 40.395, 988.408 40.053, 987.250 40.420 C 986.288 40.725, 984.185 40.291, 982.578 39.457 C 980.448 38.351, 979.464 38.250, 978.949 39.083 C 978.444 39.900, 978.088 39.838, 977.700 38.863 C 977.268 37.777, 977.142 37.768, 977.079 38.821 C 977.019 39.823, 976.619 39.762, 975.429 38.571 C 973.268 36.411, 971.406 36.555, 973.128 38.750 C 974.342 40.298, 974.317 40.357, 972.908 39.259 C 972.032 38.576, 970.948 38.351, 970.498 38.759 C 970.048 39.166, 969.984 38.969, 970.356 38.319 C 970.728 37.670, 970.586 36.862, 970.040 36.525 C 968.014 35.272, 962.544 35.133, 961.109 36.297 C 959.891 37.285, 959.737 37.202, 960.250 35.833 C 960.616 34.855, 960.300 33.946, 959.488 33.634 C 958.542 33.271, 958.270 33.641, 958.633 34.801 C 959.113 36.339, 959.037 36.349, 957.832 34.912 C 957.099 34.039, 955.885 33.531, 955.134 33.784 C 954.383 34.037, 953.461 33.746, 953.085 33.137 C 952.708 32.528, 950.890 31.728, 949.045 31.359 C 946.997 30.949, 945.919 31.060, 946.280 31.644 C 946.605 32.170, 945.804 32.600, 944.500 32.600 C 943.196 32.600, 942.356 32.233, 942.634 31.784 C 942.911 31.335, 943.670 31.233, 944.319 31.558 C 944.969 31.883, 944.627 31.440, 943.559 30.574 C 942.048 29.349, 941.442 29.277, 940.824 30.250 C 940.210 31.218, 940.027 31.191, 940.015 30.133 C 940.006 29.262, 939.276 28.956, 938.001 29.289 C 936.902 29.577, 935.762 29.424, 935.469 28.950 C 935.176 28.475, 934.202 28.369, 933.304 28.714 C 932.232 29.125, 931.914 28.948, 932.377 28.199 C 932.857 27.422, 932.002 27.098, 929.698 27.185 C 927.837 27.255, 925.794 26.990, 925.157 26.597 C 924.509 26.196, 923.987 26.457, 923.970 27.191 C 923.951 27.999, 923.549 27.830, 922.920 26.750 C 922.359 25.787, 920.996 25, 919.891 25 C 918.540 25, 918.134 25.409, 918.652 26.250 C 919.076 26.938, 918.146 26.665, 916.586 25.645 C 914.275 24.134, 913.594 24.039, 912.916 25.136 C 912.221 26.261, 911.870 26.254, 910.792 25.095 C 909.728 23.952, 909.748 23.848, 910.905 24.508 C 911.846 25.045, 912.074 24.928, 911.595 24.155 C 910.640 22.609, 908.004 22.679, 907.985 24.250 C 907.974 25.083, 907.646 25, 907 24 C 906.458 23.161, 906.024 23.010, 906.015 23.656 C 905.995 25.203, 901.981 24.114, 901.316 22.381 C 901.033 21.643, 899.833 21.060, 898.650 21.087 C 895.913 21.147, 884.500 19.470, 884.500 19.007 C 884.500 18.318, 880.888 18.373, 880.458 19.069 C 880.149 19.568, 878.939 19.460, 877.704 18.823 C 873 16.399, 871.975 16, 870.455 16 C 869.590 16, 869.134 16.408, 869.442 16.907 C 869.751 17.405, 869.102 17.578, 868.001 17.290 C 866.901 17.002, 866 16.321, 866 15.776 C 866 15.232, 865.325 15.045, 864.500 15.362 C 863.675 15.678, 863 15.576, 863 15.135 C 863 14.694, 862.325 14.333, 861.500 14.333 C 860.675 14.333, 859.993 14.821, 859.985 15.417 C 859.976 16.012, 859.572 15.872, 859.086 15.104 C 858.600 14.337, 857.496 13.979, 856.633 14.311 C 855.770 14.642, 854.836 14.543, 854.556 14.091 C 854.277 13.639, 852.910 13.395, 851.519 13.547 C 850.054 13.708, 849.246 13.410, 849.599 12.839 C 849.984 12.217, 848.156 12.019, 844.646 12.303 C 841.587 12.550, 838.953 12.429, 838.792 12.035 C 838.631 11.640, 837.015 11.027, 835.200 10.674 C 832.726 10.191, 832.086 10.339, 832.642 11.265 C 833.186 12.171, 832.959 12.156, 831.789 11.208 C 830.486 10.153, 830.100 10.153, 829.676 11.208 C 829.296 12.155, 829.137 12.173, 829.079 11.275 C 829.020 10.366, 828.318 10.309, 826.361 11.053 C 824.910 11.605, 823.485 11.818, 823.195 11.528 C 822.904 11.238, 823.304 10.971, 824.083 10.937 C 824.863 10.902, 824.429 10.445, 823.121 9.921 C 821.544 9.290, 820.310 9.328, 819.460 10.033 C 818.544 10.794, 817.966 10.754, 817.435 9.894 C 816.932 9.081, 817.115 8.953, 818 9.500 C 818.809 10, 819.066 9.916, 818.673 9.280 C 818.323 8.713, 816.911 8.250, 815.536 8.250 C 813.952 8.250, 813.283 8.662, 813.710 9.375 C 814.195 10.184, 813.979 10.179, 812.942 9.358 C 812.149 8.730, 809.590 8.195, 807.256 8.171 C 804.922 8.146, 802.540 7.834, 801.962 7.477 C 801.385 7.120, 800.317 7.322, 799.589 7.926 C 798.614 8.735, 797.977 8.678, 797.172 7.707 C 796.449 6.836, 793.723 6.411, 789.124 6.452 C 785.298 6.486, 782.618 6.236, 783.168 5.896 C 783.720 5.555, 783.355 4.967, 782.353 4.582 C 781.347 4.196, 780.381 4.356, 780.186 4.943 C 779.992 5.524, 779.394 6, 778.858 6 C 778.321 6, 778.156 5.556, 778.492 5.014 C 778.860 4.417, 777.822 4.176, 775.862 4.404 C 774.081 4.612, 771.794 4.268, 770.781 3.641 C 769.333 2.744, 768.715 2.821, 767.893 4 C 767.107 5.128, 766.722 5.190, 766.341 4.250 C 766.062 3.563, 764.944 3, 763.858 3 C 762.771 3, 762.157 3.445, 762.493 3.989 C 762.843 4.555, 762.443 4.724, 761.558 4.384 C 760.707 4.057, 760.214 3.463, 760.462 3.062 C 761.139 1.966, 757.684 2.127, 756.250 3.259 C 755.407 3.924, 755 3.880, 755 3.122 C 755 2.505, 754.100 2, 753 2 C 751.900 2, 751 2.450, 751 3 C 751 4.544, 748.862 4.185, 746.768 2.290 C 745.649 1.278, 744.597 0.971, 744.189 1.540 C 743.249 2.849, 740.692 3.308, 741.485 2.025 C 741.894 1.362, 739.605 1, 735 1 C 731.085 1, 728.114 1.375, 728.397 1.833 C 728.680 2.292, 728.277 2.667, 727.500 2.667 C 726.723 2.667, 726.250 2.404, 726.448 2.083 C 727.022 1.153, 713.632 1.491, 712.088 2.446 C 711.136 3.034, 710.918 2.941, 711.405 2.155 C 712.265 0.762, 698.300 0.524, 696.137 1.894 M 568 51.059 C 568 51.641, 567.550 51.840, 567 51.500 C 566.011 50.889, 565.589 52.233, 565.948 54.850 C 566.062 55.679, 565.661 55.909, 564.909 55.444 C 564.037 54.905, 563.847 55.306, 564.249 56.844 C 564.559 58.030, 564.405 59, 563.906 59 C 563.408 59, 563 59.900, 563 61 C 563 62.100, 563.477 63, 564.059 63 C 564.641 63, 564.859 63.419, 564.543 63.931 C 564.226 64.443, 564.455 65.163, 565.052 65.532 C 565.648 65.901, 565.900 66.817, 565.612 67.569 C 565.323 68.321, 565.600 69.253, 566.227 69.640 C 566.977 70.104, 566.705 70.604, 565.434 71.102 C 563.600 71.820, 563.596 71.863, 565.367 71.930 C 566.717 71.981, 567.091 72.543, 566.719 73.966 C 566.436 75.047, 566.496 75.894, 566.853 75.847 C 568.748 75.601, 569.110 76.163, 567.953 77.556 C 566.885 78.843, 566.907 79.060, 568.081 78.806 C 568.914 78.626, 569.443 79.218, 569.363 80.239 C 569.288 81.196, 569.605 81.744, 570.069 81.457 C 570.533 81.170, 570.740 82.300, 570.529 83.968 C 570.150 86.968, 571.364 88.164, 572.338 85.750 C 572.615 85.063, 572.878 85.513, 572.921 86.750 C 572.964 87.987, 573.450 89, 574 89 C 574.550 89, 574.947 89.338, 574.882 89.750 C 574.573 91.704, 575.169 93.080, 577.106 94.884 C 578.265 95.964, 578.913 97.331, 578.547 97.923 C 578.181 98.516, 578.385 99, 579 99 C 579.615 99, 579.881 99.384, 579.591 99.853 C 579.301 100.322, 579.758 101.559, 580.606 102.603 C 581.454 103.646, 581.857 103.825, 581.500 103 C 581.143 102.175, 581.546 102.354, 582.394 103.397 C 583.242 104.441, 583.692 105.689, 583.394 106.172 C 583.095 106.655, 583.426 106.926, 584.129 106.775 C 584.832 106.624, 585.428 107.249, 585.453 108.165 C 585.509 110.153, 590.155 117.935, 591.309 117.973 C 591.754 117.988, 591.797 117.480, 591.405 116.845 C 590.962 116.130, 591.130 115.962, 591.845 116.405 C 592.480 116.797, 593 118.018, 593 119.118 C 593 120.218, 593.370 120.890, 593.822 120.610 C 594.274 120.331, 595.370 120.951, 596.258 121.989 C 597.414 123.339, 597.536 124.013, 596.687 124.359 C 596.031 124.626, 596.256 124.877, 597.191 124.921 C 598.121 124.964, 599.203 125.520, 599.595 126.155 C 600.077 126.934, 599.852 127.040, 598.905 126.483 C 598.132 126.028, 598.348 126.623, 599.384 127.805 C 600.420 128.986, 601.657 129.712, 602.134 129.417 C 602.610 129.123, 603 129.336, 603 129.890 C 603 130.445, 604.462 132.324, 606.250 134.067 C 608.038 135.809, 608.891 136.901, 608.146 136.494 C 607.232 135.994, 607.350 136.605, 608.511 138.377 C 610.443 141.325, 611.538 141.844, 610.584 139.359 C 610.057 137.986, 610.204 137.924, 611.477 138.981 C 612.315 139.676, 613 140.865, 613 141.622 C 613 142.380, 613.337 142.894, 613.750 142.765 C 615.092 142.345, 620.070 147.374, 619.579 148.654 C 619.286 149.417, 619.662 149.683, 620.551 149.342 C 621.562 148.954, 622.005 149.499, 622.015 151.143 C 622.028 153.019, 622.224 153.194, 622.980 152 C 623.756 150.772, 624.733 151.351, 628.359 155.189 C 630.795 157.768, 633.085 159.581, 633.447 159.219 C 633.809 158.857, 633.779 159.413, 633.379 160.454 C 632.792 161.985, 632.994 162.216, 634.438 161.662 C 635.806 161.137, 636.077 161.356, 635.600 162.600 C 635.153 163.765, 635.404 164.059, 636.489 163.643 C 637.320 163.324, 638 163.400, 638 163.812 C 638 164.224, 639.350 165.071, 641 165.694 C 642.650 166.317, 644 167.342, 644 167.972 C 644 168.602, 643.550 168.840, 643 168.500 C 641.372 167.494, 641.860 168.642, 643.692 170.128 C 644.842 171.060, 645.143 171.099, 644.633 170.250 C 643.445 168.272, 645.796 168.796, 648 171 C 649.100 172.100, 650.450 173, 651 173 C 651.550 173, 652 173.450, 652 174 C 652 174.550, 652.563 174.887, 653.250 174.750 C 653.938 174.612, 654.393 175.046, 654.262 175.714 C 654.131 176.382, 654.647 176.689, 655.408 176.397 C 656.170 176.105, 657.442 176.793, 658.236 177.926 C 659.030 179.060, 659.977 179.690, 660.340 179.327 C 660.703 178.964, 661 179.218, 661 179.892 C 661 180.566, 661.368 180.891, 661.818 180.613 C 662.268 180.335, 663.250 180.959, 664 182 C 664.750 183.041, 665.732 183.665, 666.182 183.387 C 666.632 183.109, 667 183.359, 667 183.941 C 667 184.523, 667.337 184.947, 667.750 184.882 C 670.058 184.517, 671.154 185.156, 670.618 186.552 C 670.277 187.442, 670.445 187.843, 671.011 187.493 C 672.527 186.556, 672.222 185.546, 669.472 182.396 C 664.702 176.933, 663.610 175.023, 666.155 176.595 C 666.854 177.028, 667.038 176.871, 666.622 176.198 C 666.245 175.587, 665.163 175.359, 664.218 175.691 C 662.817 176.183, 662.731 176.046, 663.750 174.947 C 665.604 172.949, 665.265 171.539, 663.313 173.128 C 661.830 174.333, 661.708 174.281, 662.301 172.698 C 662.673 171.707, 662.583 171.140, 662.102 171.437 C 661.009 172.113, 658.777 169.557, 659.675 168.658 C 660.037 168.296, 659.508 168, 658.500 168 C 657.492 168, 656.940 167.727, 657.274 167.393 C 657.608 167.058, 656.783 165.601, 655.441 164.153 C 654.098 162.705, 653 161.178, 653 160.760 C 653 160.342, 652.077 159.077, 650.949 157.949 C 649.599 156.599, 649.114 155.215, 649.531 153.901 C 649.880 152.803, 649.623 151.251, 648.960 150.452 C 646.882 147.948, 649.918 148.704, 652.166 151.250 C 653.258 152.488, 653.867 152.938, 653.517 152.250 C 653.168 151.563, 653.269 151, 653.741 151 C 654.213 151, 655.206 151.563, 655.947 152.250 C 657.042 153.267, 657.133 153.220, 656.435 152 C 655.769 150.835, 656.183 150.896, 658.289 152.273 C 659.780 153.248, 661 153.756, 661 153.401 C 661 153.046, 661.675 153.315, 662.500 154 C 663.325 154.685, 664.007 154.852, 664.015 154.372 C 664.024 153.893, 664.492 154.175, 665.057 155 C 665.902 156.236, 666.032 156.147, 665.792 154.500 C 665.631 153.400, 663.925 150.996, 662 149.158 C 660.075 147.319, 659.063 146.108, 659.750 146.467 C 660.503 146.859, 661 146.475, 661 145.500 C 661 144.610, 660.623 144.115, 660.163 144.399 C 659.703 144.684, 658.331 144.220, 657.115 143.368 C 655.364 142.141, 655.148 141.527, 656.075 140.410 C 656.718 139.634, 656.965 138.944, 656.622 138.875 C 656.280 138.806, 655.438 138.673, 654.750 138.580 C 654.063 138.486, 653.624 137.834, 653.775 137.130 C 653.926 136.427, 653.585 136.138, 653.017 136.489 C 651.694 137.307, 649 134.641, 649 132.512 C 649 131.522, 648.541 131.166, 647.830 131.605 C 647.051 132.087, 646.867 131.789, 647.279 130.715 C 647.710 129.591, 647.466 129.268, 646.472 129.649 C 645.589 129.988, 644.596 129.207, 643.863 127.598 C 643.212 126.169, 642.315 125, 641.871 125 C 641.426 125, 641.294 124.397, 641.577 123.660 C 641.860 122.923, 641.309 121.686, 640.354 120.910 C 639.231 119.999, 638.882 119.942, 639.367 120.750 C 639.780 121.438, 639.690 122, 639.166 122 C 638.642 122, 637.955 121.325, 637.638 120.500 C 637.322 119.675, 637.499 119, 638.031 119 C 638.564 119, 639 118.325, 639 117.500 C 639 115.521, 639.816 115.607, 641.840 117.797 C 642.753 118.786, 643.107 119.011, 642.628 118.297 C 642.092 117.501, 642.165 117, 642.819 117 C 643.403 117, 644.165 117.457, 644.510 118.016 C 644.856 118.575, 645.557 118.774, 646.069 118.457 C 646.581 118.141, 647 118.344, 647 118.910 C 647 119.475, 647.592 119.710, 648.315 119.433 C 649.038 119.155, 650.900 120.105, 652.453 121.544 C 654.086 123.057, 655.020 123.494, 654.669 122.580 C 653.918 120.623, 655.348 120.510, 656.919 122.402 C 657.558 123.173, 659.235 124.093, 660.645 124.447 C 664.207 125.341, 668.097 128.034, 667.417 129.134 C 667.106 129.638, 667.447 129.926, 668.176 129.775 C 668.993 129.605, 669.388 130.265, 669.208 131.500 C 669.035 132.688, 669.238 133.053, 669.708 132.400 C 670.144 131.795, 671.175 131.043, 672 130.729 C 673.146 130.293, 673.061 130.139, 671.643 130.079 C 670.467 130.029, 669.986 129.480, 670.330 128.583 C 670.629 127.803, 670.199 126.906, 669.373 126.590 C 668.548 126.273, 668.124 125.608, 668.431 125.112 C 668.738 124.616, 668.265 123.932, 667.381 123.593 C 666.362 123.202, 665.964 122.247, 666.293 120.986 C 666.579 119.892, 666.425 119.237, 665.951 119.530 C 665.476 119.824, 664.281 118.828, 663.294 117.318 C 662.307 115.809, 660.487 113.478, 659.250 112.141 C 658.013 110.803, 657.010 109.211, 657.022 108.604 C 657.034 107.997, 657.951 108.625, 659.060 110 C 660.895 112.277, 660.877 112.107, 658.855 108.094 C 656.971 104.354, 656.523 103.976, 655.888 105.594 C 655.262 107.191, 655.129 107.067, 655.070 104.828 C 655.007 102.438, 655.330 102.181, 658.129 102.395 C 659.851 102.526, 661.876 103.477, 662.629 104.508 C 663.568 105.792, 664 105.944, 664 104.991 C 664 103.909, 664.267 103.867, 665.200 104.800 C 665.860 105.460, 667.155 106, 668.078 106 C 669 106, 670.311 106.670, 670.991 107.489 C 671.671 108.308, 672.629 108.729, 673.120 108.426 C 673.612 108.122, 674.273 108.548, 674.590 109.373 C 674.929 110.257, 675.819 110.623, 676.756 110.263 C 677.973 109.796, 678.184 110.079, 677.651 111.468 C 677.080 112.954, 677.212 113.069, 678.380 112.100 C 679.479 111.187, 679.897 111.192, 680.207 112.121 C 680.680 113.539, 684 114.238, 684 112.920 C 684 112.423, 683.100 111.455, 682 110.768 C 680.900 110.081, 680 108.968, 680 108.295 C 680 107.621, 679.100 106.589, 678 106 C 676.900 105.411, 676 104.326, 676 103.587 C 676 102.849, 675.325 101.685, 674.500 101 C 673.511 100.179, 673 100.126, 673 100.846 C 673 101.446, 672.325 101.678, 671.500 101.362 C 670.675 101.045, 670 100.358, 670 99.834 C 670 99.310, 670.520 99.203, 671.155 99.595 C 671.854 100.028, 672.038 99.871, 671.622 99.198 C 671.245 98.587, 670.163 98.377, 669.218 98.731 C 667.747 99.282, 667.688 99.143, 668.807 97.766 C 669.934 96.379, 669.849 96.227, 668.195 96.659 C 666.997 96.973, 666.039 96.544, 665.645 95.517 C 665.298 94.613, 664.620 94.117, 664.138 94.415 C 663.656 94.713, 661.533 93.279, 659.420 91.228 C 657.306 89.178, 655.931 88.175, 656.363 89 C 656.953 90.126, 656.818 90.102, 655.824 88.901 C 655.096 88.021, 654.050 87.121, 653.500 86.901 C 652.950 86.680, 652.624 86.129, 652.775 85.676 C 652.926 85.222, 652.585 85.138, 652.018 85.489 C 651.450 85.840, 650.706 85.397, 650.364 84.506 C 650.014 83.593, 649.102 83.130, 648.278 83.447 C 647.366 83.797, 646.619 83.258, 646.294 82.015 C 646.007 80.919, 645.414 80.244, 644.977 80.514 C 643.768 81.261, 640.934 79.916, 641.565 78.895 C 641.869 78.403, 641.214 78, 640.109 78 C 639.004 78, 637.641 77.213, 637.080 76.250 C 636.472 75.205, 636.049 75.020, 636.030 75.789 C 636.006 76.842, 635.745 76.842, 634.611 75.789 C 633.595 74.847, 633.528 74.277, 634.361 73.672 C 635.025 73.189, 634.354 73.027, 632.750 73.283 C 631.237 73.525, 630 73.287, 630 72.754 C 630 72.222, 629.348 72.036, 628.551 72.342 C 627.533 72.733, 627.286 72.418, 627.721 71.285 C 628.112 70.266, 627.939 69.920, 627.251 70.345 C 626.651 70.715, 625.486 70.343, 624.661 69.518 C 623.526 68.383, 623.039 68.320, 622.659 69.259 C 622.330 70.075, 622.131 69.971, 622.079 68.954 C 622.025 67.900, 620.819 67.329, 618.284 67.159 C 616.241 67.021, 613.194 65.860, 611.515 64.579 C 609.835 63.298, 607.199 62.250, 605.656 62.250 C 604.113 62.250, 602.375 61.775, 601.794 61.194 C 600.501 59.901, 602.741 60.094, 605 61.470 C 606.274 62.247, 606.302 62.140, 605.186 60.762 C 604.461 59.868, 602.925 59.322, 601.763 59.546 C 599.049 60.068, 594.866 59.026, 595.508 57.987 C 595.780 57.547, 595.026 57.442, 593.833 57.754 C 592.219 58.176, 591.805 57.952, 592.217 56.878 C 592.646 55.760, 591.837 55.441, 588.635 55.467 C 586.191 55.486, 584.580 55.056, 584.695 54.414 C 584.806 53.797, 583.578 53.406, 581.854 53.509 C 580.098 53.613, 578.601 53.125, 578.304 52.350 C 578.022 51.614, 577.368 51.273, 576.851 51.592 C 576.335 51.911, 575.257 51.628, 574.456 50.964 C 573.383 50.073, 573 50.059, 573 50.913 C 573 51.747, 572.460 51.782, 571.066 51.035 C 568.623 49.728, 568 49.733, 568 51.059 M 872.457 84.930 C 872.958 85.741, 870.585 86.018, 864.027 85.914 C 859.006 85.833, 854.686 85.981, 854.425 86.241 C 854.165 86.502, 854.724 87.342, 855.668 88.107 C 856.803 89.029, 857.130 89.077, 856.633 88.250 C 855.492 86.351, 857.095 86.757, 858.608 88.750 C 859.560 90.004, 859.945 90.111, 859.968 89.128 C 859.993 88.040, 860.302 88.006, 861.456 88.964 C 862.257 89.628, 863.379 89.884, 863.948 89.532 C 865.055 88.848, 868.239 90.238, 868.090 91.340 C 867.841 93.172, 868.129 93.361, 869.091 92 C 869.918 90.832, 870.268 90.786, 870.673 91.792 C 871.056 92.740, 871.544 92.793, 872.508 91.993 C 873.418 91.238, 874.021 91.225, 874.470 91.951 C 874.826 92.528, 875.936 93, 876.937 93 C 877.937 93, 879.311 93.670, 879.991 94.489 C 880.671 95.308, 881.578 95.761, 882.009 95.495 C 883.070 94.839, 884.170 97.916, 883.349 99.245 C 882.987 99.830, 883.150 100.025, 883.712 99.678 C 884.273 99.331, 885.580 100.014, 886.616 101.195 C 887.652 102.377, 887.969 103.034, 887.319 102.656 C 886.670 102.277, 885.849 102.436, 885.495 103.008 C 885.141 103.581, 885.222 103.985, 885.676 103.906 C 887.786 103.540, 888.766 104.142, 888.639 105.725 C 888.558 106.723, 889.211 107.460, 890.189 107.475 C 891.117 107.489, 892.822 108.513, 893.978 109.750 C 895.133 110.987, 896.510 112, 897.039 112 C 897.568 112, 897.887 112.542, 897.750 113.205 C 897.612 113.867, 897.950 114.467, 898.500 114.538 C 901.041 114.867, 905.108 117.117, 905.633 118.485 C 906.003 119.449, 907.085 119.842, 908.607 119.566 C 910.152 119.286, 911 119.605, 911 120.466 C 911 121.338, 912.301 121.807, 914.750 121.820 C 921.042 121.852, 922.139 122.194, 921.484 123.917 C 921.001 125.185, 921.132 125.252, 922.141 124.250 C 922.833 123.563, 923.787 123, 924.259 123 C 924.731 123, 924.800 123.563, 924.412 124.250 C 923.848 125.250, 923.976 125.250, 925.053 124.250 C 926.659 122.759, 928.376 122.582, 927.502 123.997 C 927.108 124.634, 927.719 124.699, 929.193 124.178 C 932.233 123.103, 935 123.784, 935 125.609 C 935 126.775, 935.417 126.847, 937.061 125.967 C 938.476 125.210, 940.519 125.162, 943.575 125.814 C 946.128 126.358, 948.261 126.387, 948.573 125.882 C 949.641 124.155, 952.250 124.935, 951.754 126.833 C 951.369 128.305, 951.856 128.667, 954.227 128.667 L 957.180 128.667 954.840 127.292 L 952.500 125.917 954.875 126.565 C 956.182 126.922, 957.012 126.829, 956.720 126.357 C 956.172 125.471, 973.717 125.384, 974.601 126.268 C 974.875 126.542, 976.989 126.340, 979.299 125.821 C 985.476 124.433, 990.023 124.227, 990.689 125.307 C 991.012 125.829, 991.687 125.524, 992.188 124.628 C 993.227 122.773, 996.224 122.514, 999.066 124.035 C 1000.511 124.809, 1001.004 124.745, 1001.015 123.785 C 1001.026 122.882, 1001.318 122.945, 1002 124 C 1002.653 125.010, 1002.974 125.090, 1002.985 124.244 C 1002.996 123.342, 1004.544 123.098, 1008.469 123.378 C 1013.040 123.705, 1014.031 123.477, 1014.503 121.992 C 1015.036 120.311, 1020.639 117.252, 1022.250 117.762 C 1022.663 117.893, 1023 117.550, 1023 117 C 1023 116.450, 1023.012 115.691, 1023.027 115.313 C 1023.043 114.935, 1022.394 114.528, 1021.587 114.410 C 1020.780 114.291, 1018.180 113.923, 1015.810 113.592 C 1013.439 113.261, 1011.366 112.590, 1011.202 112.101 C 1011.038 111.612, 1010.026 111.442, 1008.952 111.723 C 1007.878 112.004, 1007 111.827, 1007 111.331 C 1007 110.835, 1006.100 110.343, 1005 110.238 C 1000.649 109.824, 1000 109.634, 1000 108.774 C 1000 108.284, 999.530 108.172, 998.956 108.527 C 998.382 108.882, 997.257 108.628, 996.456 107.964 C 995.575 107.232, 995 107.161, 995 107.784 C 995 108.350, 994.100 108.577, 993 108.290 C 991.900 108.002, 991 107.383, 991 106.915 C 991 106.446, 990.251 106.350, 989.336 106.701 C 988.128 107.165, 987.896 106.977, 988.490 106.015 C 989.088 105.048, 988.930 104.927, 987.905 105.567 C 986.040 106.730, 983.844 107.022, 982.624 106.267 C 982.079 105.931, 982.503 105.302, 983.566 104.872 C 984.645 104.435, 983.553 104.357, 981.097 104.696 C 977.905 105.137, 976.890 104.988, 977.406 104.152 C 978.344 102.634, 976.731 102.669, 975.200 104.200 C 974.267 105.133, 974 105.133, 974 104.200 C 974 103.502, 972.579 103, 970.607 103 C 968.414 103, 966.996 102.432, 966.598 101.394 C 966.165 100.266, 965.260 99.969, 963.560 100.396 C 962.228 100.730, 959.870 100.502, 958.319 99.889 C 956.769 99.276, 953.437 98.831, 950.916 98.900 C 947.469 98.994, 945.876 98.520, 944.490 96.989 C 943.083 95.435, 942.456 95.254, 941.839 96.226 C 941.202 97.231, 941.027 97.210, 941.015 96.128 C 941.003 95.068, 940.683 95.018, 939.606 95.912 C 938.535 96.801, 937.872 96.729, 936.742 95.599 C 935.644 94.502, 934.983 94.417, 934.136 95.264 C 933.492 95.908, 933 95.973, 933 95.415 C 933 94.874, 930.975 94.506, 928.500 94.599 C 926.025 94.691, 924 94.395, 924 93.941 C 924 93.487, 923.100 93.288, 922 93.500 C 920.900 93.712, 920 93.539, 920 93.116 C 920 92.693, 918.586 92.554, 916.858 92.808 C 914.727 93.120, 913.936 92.913, 914.399 92.164 C 914.808 91.501, 913.985 90.783, 912.344 90.371 C 910.658 89.948, 909.464 90.108, 909.238 90.786 C 909.036 91.392, 908.227 91.641, 907.441 91.339 C 906.655 91.037, 906.189 90.500, 906.407 90.145 C 906.624 89.790, 904.484 89.519, 901.651 89.543 C 898.818 89.567, 895.948 89.182, 895.273 88.689 C 894.598 88.196, 891.560 87.822, 888.523 87.859 C 885.485 87.895, 882.999 87.604, 882.998 87.212 C 882.997 86.821, 881.388 86.385, 879.422 86.245 C 877.457 86.104, 874.928 85.497, 873.804 84.895 C 872.296 84.088, 871.942 84.097, 872.457 84.930 M 999.450 229.921 C 998.928 230.427, 996.475 231.058, 994 231.324 C 991.525 231.589, 988.639 232.151, 987.586 232.573 C 986.140 233.152, 985.872 233.016, 986.490 232.015 C 987.089 231.048, 986.931 230.928, 985.905 231.571 C 985.132 232.054, 983.712 232.321, 982.750 232.162 C 981.625 231.977, 980.995 232.522, 980.985 233.687 C 980.972 235.242, 980.818 235.286, 979.909 234 C 979.106 232.865, 978.724 232.806, 978.338 233.756 C 978.058 234.447, 977.418 234.758, 976.915 234.447 C 976.412 234.136, 976 234.359, 976 234.941 C 976 235.523, 974.950 236, 973.667 236 C 972.383 236, 971.020 236.313, 970.638 236.696 C 969.573 237.761, 966.914 237.947, 967.554 236.912 C 967.864 236.410, 967.416 236, 966.559 236 C 965.702 236, 965 236.450, 965 237 C 965 237.550, 964.362 238, 963.583 238 C 962.804 238, 961.938 238.563, 961.659 239.250 C 961.278 240.191, 960.890 240.129, 960.091 239 C 959.187 237.721, 959.028 237.776, 959.015 239.372 C 959.002 241.005, 958.783 241.069, 957.308 239.872 C 956.377 239.118, 955.927 239.019, 956.307 239.653 C 956.731 240.361, 955.745 241.300, 953.749 242.088 C 951.962 242.793, 950.091 243.573, 949.591 243.821 C 949.091 244.070, 948.997 243.449, 949.384 242.443 C 950.060 240.681, 950.012 240.679, 948.106 242.404 C 947.017 243.390, 945.679 243.919, 945.132 243.582 C 944.585 243.244, 943.813 243.494, 943.415 244.138 C 942.926 244.929, 943.147 245.049, 944.095 244.508 C 945.252 243.848, 945.272 243.952, 944.208 245.095 C 943.129 246.255, 942.780 246.261, 942.083 245.135 C 941.464 244.133, 941.064 244.088, 940.524 244.961 C 940.124 245.608, 939.183 245.900, 938.431 245.612 C 937.679 245.323, 936.755 245.587, 936.378 246.198 C 935.928 246.926, 936.175 247.033, 937.095 246.508 C 938.252 245.848, 938.272 245.952, 937.208 247.095 C 936.108 248.277, 935.777 248.262, 934.974 246.992 C 934.139 245.672, 934.027 245.673, 934 247 C 933.973 248.333, 933.862 248.333, 933 247 C 932.054 245.535, 931.887 245.686, 931.620 248.250 C 931.548 248.938, 930.479 249.446, 929.245 249.380 C 928.010 249.314, 927 249.610, 927 250.037 C 927 250.464, 925.987 250.591, 924.750 250.320 C 923.148 249.969, 922.883 250.099, 923.831 250.772 C 924.815 251.472, 924.295 251.919, 921.831 252.493 C 919.999 252.919, 918.163 253.207, 917.750 253.134 C 917.337 253.060, 917 253.400, 917 253.889 C 917 254.729, 909.733 256.570, 909.293 255.842 C 909.179 255.654, 908.406 256.400, 907.575 257.500 C 906.744 258.600, 906.049 259.130, 906.032 258.679 C 906.014 258.227, 905.267 258.590, 904.371 259.486 C 903.475 260.382, 902.131 260.880, 901.383 260.593 C 900.636 260.307, 900.131 260.533, 900.262 261.097 C 900.393 261.661, 898.592 263.161, 896.260 264.430 C 893.928 265.700, 891.346 267.297, 890.523 267.981 C 889.699 268.665, 888.368 268.971, 887.564 268.663 C 886.630 268.304, 886.285 268.579, 886.608 269.422 C 886.887 270.148, 886.391 271.020, 885.506 271.360 C 884.431 271.772, 884.104 271.565, 884.522 270.739 C 884.867 270.057, 884.408 270.400, 883.504 271.500 C 882.599 272.600, 881.457 273.393, 880.965 273.262 C 880.474 273.131, 880.359 273.772, 880.710 274.686 C 881.197 275.955, 880.940 276.191, 879.622 275.685 C 878.555 275.276, 878.140 275.417, 878.534 276.055 C 879.426 277.499, 877.140 279.991, 875.500 279.362 C 874.518 278.985, 874.307 279.457, 874.730 281.077 C 875.104 282.507, 874.936 283.078, 874.262 282.662 C 873.683 282.304, 872.952 282.684, 872.636 283.506 C 872.321 284.328, 872.499 285, 873.031 285 C 874.418 285, 874.228 288.355, 872.750 289.947 C 871.750 291.024, 871.750 291.152, 872.750 290.588 C 873.872 289.954, 874.459 291.096, 874.118 293.250 C 874.053 293.663, 874.411 294, 874.913 294 C 875.415 294, 875.619 295.311, 875.367 296.912 C 875.114 298.514, 875.378 300.116, 875.954 300.471 C 876.529 300.827, 877 302.279, 877 303.699 C 877 305.118, 877.788 306.875, 878.750 307.602 C 880.351 308.811, 880.306 308.889, 878.223 308.514 C 876.952 308.285, 876.205 308.523, 876.532 309.052 C 876.854 309.574, 877.751 310, 878.524 310 C 880.288 310, 882.334 313.686, 881.613 315.566 C 881.315 316.342, 881.557 316.869, 882.149 316.738 C 882.742 316.607, 883.411 317.598, 883.636 318.939 C 884.236 322.517, 884.990 322.767, 885.070 319.417 C 885.133 316.821, 885.245 316.720, 886.091 318.500 C 886.887 320.175, 886.936 320.094, 886.392 318 C 886.034 316.625, 885.688 313.925, 885.621 312 C 885.554 310.075, 885.050 308.128, 884.500 307.674 C 883.852 307.139, 883.940 306.669, 884.750 306.341 C 886.085 305.799, 886.508 303.920, 885.250 304.118 C 883.243 304.435, 882.878 303.848, 884.128 302.308 C 885.060 301.158, 885.099 300.857, 884.250 301.367 C 883.316 301.928, 883 300.846, 883 297.090 C 883 293.572, 883.375 292.154, 884.250 292.367 C 884.938 292.535, 885.163 292.483, 884.750 292.253 C 883.571 291.593, 883.864 290.278, 885.571 288.571 C 886.436 287.707, 886.661 287, 886.071 287 C 885.482 287, 885 286.502, 885 285.893 C 885 285.284, 885.609 285.020, 886.353 285.305 C 887.296 285.667, 887.626 285.095, 887.441 283.412 C 887.295 282.085, 887.556 281, 888.021 281 C 888.485 281, 889.148 280.109, 889.494 279.020 C 889.839 277.931, 890.637 277.144, 891.265 277.270 C 891.894 277.397, 892.430 276.919, 892.455 276.210 C 892.515 274.495, 899 270.361, 899 272.037 C 899 272.715, 899.936 272.080, 901.080 270.625 C 902.224 269.171, 903.604 268.255, 904.147 268.591 C 904.689 268.926, 905.713 268.407, 906.422 267.438 C 907.221 266.345, 908.355 265.922, 909.407 266.326 C 910.411 266.711, 910.854 266.574, 910.493 265.989 C 909.957 265.122, 913.802 264.440, 916.419 264.938 C 916.925 265.034, 916.749 264.402, 916.028 263.534 C 914.901 262.176, 914.971 262.052, 916.523 262.647 C 917.830 263.149, 918.112 262.990, 917.543 262.070 C 916.923 261.067, 917.206 261.040, 918.894 261.943 C 920.068 262.571, 920.969 262.729, 920.896 262.293 C 920.559 260.282, 921.091 258.938, 922 259.500 C 922.550 259.840, 923.007 259.529, 923.015 258.809 C 923.026 257.858, 923.296 257.910, 924 259 C 924.843 260.305, 924.971 260.288, 924.985 258.872 C 924.995 257.793, 927.109 256.465, 931.250 254.935 C 934.688 253.666, 937.791 252.196, 938.148 251.670 C 938.504 251.144, 939.726 250.957, 940.863 251.254 C 942.118 251.582, 942.847 251.344, 942.716 250.647 C 942.585 249.953, 943.780 249.557, 945.745 249.646 C 947.529 249.726, 948.769 249.435, 948.500 249 C 948.231 248.565, 948.684 247.952, 949.506 247.636 C 950.328 247.321, 951 247.585, 951 248.223 C 951 248.860, 951.563 248.612, 952.252 247.670 C 952.940 246.729, 954.964 245.855, 956.750 245.729 C 958.535 245.603, 959.997 245.205, 959.998 244.844 C 959.999 244.483, 960.900 244.423, 962 244.710 C 963.391 245.074, 964 244.741, 964 243.617 C 964 242.727, 964.477 242, 965.059 242 C 965.641 242, 965.843 242.445, 965.507 242.989 C 965.157 243.555, 965.558 243.723, 966.448 243.382 C 967.302 243.054, 968 242.358, 968 241.834 C 968 241.310, 968.383 241.119, 968.852 241.409 C 969.321 241.698, 971.458 241.027, 973.602 239.918 C 975.984 238.685, 978.554 238.101, 980.211 238.417 C 981.702 238.702, 983.234 238.430, 983.616 237.813 C 984.067 237.082, 983.853 236.973, 983 237.500 C 982.152 238.024, 981.933 237.918, 982.378 237.198 C 982.755 236.587, 983.730 236.343, 984.545 236.656 C 985.359 236.968, 986.704 236.660, 987.534 235.972 C 989.451 234.381, 994 233.845, 994 235.211 C 994 235.884, 994.469 235.856, 995.342 235.131 C 996.080 234.519, 997.018 234.351, 997.425 234.759 C 997.833 235.166, 998.017 234.845, 997.833 234.045 C 997.518 232.668, 997.985 232.422, 1001.469 232.125 C 1002.343 232.051, 1002.704 231.393, 1002.362 230.500 C 1001.702 228.780, 1000.810 228.603, 999.450 229.921 M 586.882 357.781 C 586.816 358.177, 586.833 358.888, 586.919 359.362 C 587.005 359.837, 586.425 360.737, 585.631 361.362 C 584.837 361.988, 582.843 365.061, 581.200 368.190 C 579.558 371.320, 578.002 373.668, 577.742 373.409 C 577.021 372.688, 573.885 377.880, 573.720 380.067 C 573.640 381.130, 572.969 382, 572.228 382 C 571.488 382, 571.131 382.403, 571.435 382.895 C 571.740 383.388, 571.288 384.059, 570.431 384.388 C 569.574 384.717, 569.153 385.438, 569.495 385.991 C 570.273 387.252, 567.579 391.245, 566.606 390.273 C 566.213 389.880, 565.489 390.208, 564.998 391.003 C 564.428 391.925, 564.538 392.722, 565.303 393.208 C 566.105 393.718, 565.903 393.974, 564.691 393.985 C 563.696 393.993, 563.131 394.403, 563.435 394.895 C 563.740 395.388, 563.216 396.087, 562.272 396.449 C 560.801 397.013, 560.766 397.241, 562.028 398.038 C 563.276 398.828, 563.244 398.972, 561.817 398.985 C 560.072 399.001, 558.455 402.308, 559.425 403.878 C 559.729 404.371, 559.207 404.712, 558.263 404.637 C 557.320 404.562, 556.537 405.099, 556.524 405.831 C 556.511 406.562, 555.600 407.819, 554.500 408.624 C 553.400 409.428, 552.499 410.404, 552.498 410.793 C 552.498 411.182, 551.485 412.919, 550.248 414.654 C 549.012 416.389, 548 418.302, 548 418.904 C 548 419.507, 547.523 420, 546.941 420 C 546.359 420, 546.160 420.450, 546.500 421 C 546.840 421.550, 546.566 422, 545.892 422 C 545.218 422, 544.960 422.293, 545.318 422.651 C 545.676 423.009, 545.188 423.873, 544.234 424.571 C 543.281 425.268, 542.500 426.245, 542.500 426.741 C 542.500 427.237, 541.687 428.456, 540.692 429.450 C 539.698 430.444, 539.113 431.852, 539.392 432.578 C 539.738 433.482, 539.362 433.693, 538.199 433.248 C 536.068 432.432, 533.077 428.925, 533.033 427.191 C 533.014 426.449, 532.493 426.195, 531.830 426.605 C 531.043 427.091, 530.869 426.783, 531.299 425.664 C 531.650 424.749, 531.550 424, 531.077 424 C 530.604 424, 529.930 422.857, 529.579 421.459 C 529.177 419.858, 528.508 419.186, 527.770 419.642 C 526.881 420.191, 526.888 420.463, 527.799 420.766 C 528.460 420.987, 529 421.676, 529 422.298 C 529 422.925, 528.259 422.688, 527.336 421.764 C 525.890 420.318, 525.857 419.873, 527.086 418.363 C 528.338 416.825, 528.301 416.700, 526.762 417.277 C 525.806 417.635, 525.072 417.607, 525.130 417.214 C 525.511 414.658, 524.663 412.593, 522.354 410.452 C 520.899 409.104, 520.085 408, 520.545 408 C 521.006 408, 520.509 407.292, 519.441 406.426 C 518.374 405.560, 518.057 405.133, 518.739 405.478 C 519.565 405.896, 519.772 405.569, 519.360 404.494 C 519.020 403.609, 518.139 403.116, 517.403 403.399 C 516.667 403.681, 515.798 403.482, 515.473 402.956 C 515.148 402.430, 515.359 402, 515.941 402 C 516.523 402, 517 401.523, 517 400.941 C 517 400.359, 516.550 400.160, 516 400.500 C 515.450 400.840, 515 400.177, 515 399.028 C 515 397.878, 514.328 396.679, 513.506 396.364 C 512.684 396.048, 512.249 395.407, 512.538 394.938 C 512.828 394.469, 511.635 393.346, 509.887 392.442 C 507.379 391.144, 507.003 390.593, 508.104 389.823 C 509.179 389.072, 509.213 388.731, 508.250 388.341 C 507.563 388.062, 507 387.182, 507 386.385 C 507 385.589, 506.299 384.668, 505.443 384.340 C 504.564 384.002, 504.134 383.092, 504.457 382.250 C 504.870 381.175, 504.511 380.895, 503.167 381.246 C 501.732 381.621, 501.359 381.238, 501.541 379.575 C 501.814 377.094, 499.565 373.533, 498.242 374.350 C 497.753 374.653, 497.385 373.910, 497.426 372.700 C 497.467 371.490, 497.017 370.586, 496.427 370.691 C 495.837 370.796, 495.387 369.896, 495.427 368.691 C 495.469 367.444, 494.962 366.608, 494.250 366.750 C 493.563 366.887, 493.089 366.662, 493.198 366.250 C 493.685 364.406, 491.794 361.142, 490.522 361.630 C 489.537 362.008, 489.300 361.567, 489.690 360.079 C 490.111 358.466, 489.767 358, 488.153 358 L 486.073 358 486.040 428.750 L 486.007 499.500 536.107 499.245 C 563.662 499.105, 586.680 498.698, 587.258 498.340 C 587.872 497.961, 588.012 498.171, 587.595 498.845 C 587.203 499.480, 587.118 500, 587.406 500 C 587.694 500, 588.440 499.046, 589.065 497.879 C 589.982 496.165, 589.941 495.906, 588.850 496.526 C 587.762 497.145, 587.743 497.032, 588.750 495.947 C 589.725 494.897, 590 479.576, 590 426.407 C 590 366.713, 589.813 358.142, 588.500 357.638 C 587.675 357.322, 586.947 357.386, 586.882 357.781" stroke="none" fill="#8c0404" fill-rule="evenodd"/></svg>