<svg baseProfile="tiny" overflow="inherit" version="1.2" viewBox="0 0 220.596 209.102"><path fill="#606060" d="M31.638 84.631c2.402 0 4.345.328 5.82.985 1.476.656 2.213 1.475 2.213 2.459 0 1.204-.303 2.569-.902 4.098-.603 1.531-1.177 2.786-1.722 3.77-.22.219-.491.246-.819.083-.328-.165-.493-.464-.493-.902.329-.763.493-1.857.493-3.279 0-1.529-.41-2.788-1.23-3.77-.819-.984-1.941-1.475-3.36-1.475-1.86 0-3.36.573-4.508 1.721-1.147 1.147-1.721 2.761-1.721 4.834 0 1.75.463 3.417 1.393 5a57.693 57.693 0 003.115 4.755 47.077 47.077 0 013.196 5.082c.984 1.804 1.476 3.853 1.476 6.147 0 3.933-1.585 6.993-4.753 9.178-3.171 2.188-7.324 3.279-12.458 3.279-3.716 0-6.639-.6-8.77-1.803-2.132-1.201-3.196-2.511-3.196-3.933 0-.435.163-1.038.491-1.804.328-.763.763-1.582 1.312-2.46a37.774 37.774 0 011.804-2.623c.655-.873 1.364-1.582 2.13-2.129.328-.219.628-.166.902.163.272.328.3.656.083.984-.656.654-1.147 1.339-1.476 2.049-.328.71-.492 1.668-.492 2.868 0 1.966.656 3.581 1.968 4.834 1.311 1.259 3.004 1.886 5.081 1.886 2.84 0 5.053-.792 6.639-2.377 1.583-1.582 2.376-3.524 2.376-5.819 0-2.076-.465-4.016-1.393-5.819a63.139 63.139 0 00-3.032-5.246 69.412 69.412 0 01-3.033-5.165 11.68 11.68 0 01-1.393-5.574c0-2.838 1.201-5.216 3.606-7.128 2.401-1.908 5.953-2.869 10.653-2.869zM76.387 85.453c.546.219.765.521.657.902-.111.384-.602.683-1.476.902-1.64 0-3.524.056-5.655.163-2.132.109-4.401.275-6.803.491-2.188 5.357-3.99 10.573-5.41 15.656-1.422 5.08-2.13 9.207-2.13 12.376 0 3.714 1.418 5.571 4.261 5.571 2.841 0 6.01-2.457 9.509-7.374.327-.219.627-.219.9 0 .272.219.354.6.247 1.147a29.69 29.69 0 01-7.049 7.951c-2.843 2.241-5.629 3.359-8.36 3.359-2.843 0-4.946-.68-6.311-2.049-1.367-1.366-2.049-3.25-2.049-5.656 0-3.167.763-7.54 2.294-13.113 1.53-5.573 3.497-11.253 5.902-17.048-2.843.328-5.465.769-7.868 1.312-.548-.106-.685-.381-.41-.819.271-.435.763-.902 1.475-1.393.708-.494 1.557-.929 2.54-1.313.983-.381 1.912-.573 2.787-.573h1.312c.436 0 .874-.054 1.311-.163a177.478 177.478 0 014.426-9.181c1.529-2.951 3.058-5.626 4.59-8.033.655-.763 1.557-1.446 2.704-2.049a19.382 19.382 0 013.36-1.393c1.091-.328 1.993-.518 2.706-.574.709-.053 1.008.139.902.574-1.86 2.844-3.688 6.011-5.492 9.508a171.242 171.242 0 00-5.164 10.982c2.076-.107 4.181-.163 6.311-.163h5.983z"/><path fill="#B3D107" d="M175.841 3.437c1.639 0 2.976.411 4.017 1.23 1.036.819 1.746 1.913 2.13 3.279.382 1.366.435 2.924.164 4.672-.274 1.75-.901 3.498-1.885 5.245-.22.219-.492.219-.82 0-.327-.219-.547-.491-.655-.819.218-1.312-.245-2.404-1.394-3.279-1.147-.873-2.925-1.312-5.327-1.312-4.482 0-8.989 1.667-13.523 5-4.536 3.335-8.935 7.735-13.196 13.196-4.262 5.466-8.252 11.75-11.966 18.852a178.363 178.363 0 00-9.672 21.965c-2.732 7.54-4.892 15.026-6.475 22.457-1.584 7.433-2.375 14.207-2.375 20.328 0 3.276.927 4.917 2.787 4.917 1.311 0 2.594-.547 3.851-1.641 1.255-1.091 2.706-2.729 4.345-4.917.327-.216.627-.189.9.083.272.275.354.629.247 1.064-2.188 3.279-4.754 6.011-7.705 8.196-2.95 2.188-5.63 3.279-8.032 3.279-2.077 0-3.524-.601-4.343-1.804-.819-1.201-1.23-2.729-1.23-4.589 0-5.136 1.091-11.558 3.279-19.26 2.185-7.705 5.106-15.845 8.77-24.425 3.661-8.578 7.895-17.129 12.704-25.653 4.808-8.524 9.808-16.2 15-23.03 5.189-6.83 10.409-12.377 15.654-16.64 5.242-4.263 10.159-6.394 14.75-6.394zM30.299 204.864c-1.64 0-2.977-.41-4.017-1.229-1.037-.819-1.747-1.913-2.131-3.279-.381-1.368-.435-2.924-.164-4.672.275-1.75.902-3.497 1.885-5.245.22-.221.492-.221.82 0 .327.217.547.491.655.819-.217 1.312.246 2.404 1.394 3.279 1.147.872 2.924 1.31 5.327 1.31 4.482 0 8.99-1.667 13.524-5 4.535-3.332 8.934-7.731 13.196-13.193 4.262-5.466 8.252-11.749 11.966-18.852a178.304 178.304 0 009.671-21.966c2.732-7.54 4.892-15.026 6.476-22.457 1.584-7.433 2.375-14.207 2.375-20.327 0-3.279-.927-4.917-2.787-4.917-1.312 0-2.595.544-3.851 1.638-1.255 1.091-2.706 2.732-4.345 4.919-.327.216-.627.189-.9-.083-.272-.275-.354-.63-.247-1.067 2.188-3.276 4.754-6.011 7.705-8.196 2.95-2.185 5.629-3.276 8.032-3.276 2.077 0 3.524.598 4.343 1.801.819 1.203 1.23 2.732 1.23 4.592 0 5.136-1.091 11.555-3.279 19.26-2.185 7.705-5.106 15.845-8.77 24.425-3.661 8.578-7.895 17.129-12.704 25.653-4.808 8.524-9.808 16.2-14.999 23.03-5.189 6.83-10.409 12.377-15.655 16.638-5.243 4.263-10.16 6.395-14.75 6.395z"/><path fill="#606060" d="M141.031 126.596c-4.59 0-6.885-2.513-6.885-7.54 0-1.748.189-3.77.573-6.064.382-2.297.985-4.671 1.804-7.131a90.024 90.024 0 012.868-7.46 45.939 45.939 0 013.934-7.211 54.367 54.367 0 00-3.441 2.377 27.414 27.414 0 00-2.951 2.54c-.328.222-.63.139-.902-.245-.273-.382-.301-.737-.082-1.065 1.857-1.969 4.508-3.988 7.951-6.067 3.441-2.073 6.746-3.714 9.917-4.917.546 0 .955.139 1.229.411.272.275.301.63.083 1.064a62.875 62.875 0 00-8.443 14.917c-2.13 5.357-3.196 10.549-3.196 15.573 0 3.172.985 4.754 2.951 4.754 1.419 0 3.168-.956 5.245-2.868 2.076-1.913 4.263-4.426 6.559-7.542 2.294-3.114 4.614-6.638 6.966-10.571a159.027 159.027 0 006.475-11.969c.327-.653 1.284-1.31 2.868-1.966 1.584-.657 3.196-.985 4.836-.985s2.131.44 1.476 1.313a157.792 157.792 0 00-4.017 7.95 60.759 60.759 0 00-2.868 7.294 48.498 48.498 0 00-1.721 7.294c-.385 2.46-.574 5.163-.574 8.113 0 3.5.928 5.245 2.787 5.245 1.857 0 3.934-1.638 6.229-4.917.328-.216.656-.216.983 0 .328.222.436.55.328.984-1.859 2.842-3.909 5-6.147 6.476-2.241 1.475-4.29 2.211-6.146 2.211-4.591 0-6.885-2.676-6.885-8.031 0-5.573.982-11.091 2.95-16.557-4.154 7.54-8.524 13.524-13.113 17.95-4.592 4.429-8.473 6.64-11.641 6.64zM208.728 84.631c2.402 0 4.345.328 5.82.985 1.476.656 2.213 1.475 2.213 2.459 0 1.204-.303 2.569-.901 4.098-.604 1.531-1.177 2.786-1.723 3.77-.22.219-.491.246-.819.083-.328-.165-.492-.464-.492-.902.328-.763.492-1.857.492-3.279 0-1.529-.409-2.788-1.229-3.77-.819-.984-1.941-1.475-3.36-1.475-1.859 0-3.36.573-4.508 1.721s-1.721 2.761-1.721 4.834c0 1.75.463 3.417 1.393 5a57.693 57.693 0 003.115 4.755 47.077 47.077 0 013.196 5.082c.984 1.804 1.476 3.853 1.476 6.147 0 3.933-1.585 6.993-4.754 9.178-3.171 2.188-7.323 3.279-12.458 3.279-3.717 0-6.639-.6-8.77-1.803-2.132-1.201-3.196-2.511-3.196-3.933 0-.435.163-1.038.491-1.804.328-.763.763-1.582 1.312-2.46a37.753 37.753 0 011.803-2.623c.655-.873 1.365-1.582 2.131-2.129.328-.219.628-.166.901.163.272.328.301.656.083.984-.656.654-1.147 1.339-1.476 2.049-.328.71-.492 1.668-.492 2.868 0 1.966.656 3.581 1.968 4.834 1.312 1.259 3.004 1.886 5.081 1.886 2.84 0 5.054-.792 6.64-2.377 1.582-1.582 2.376-3.524 2.376-5.819 0-2.076-.466-4.016-1.393-5.819a63.139 63.139 0 00-3.032-5.246 69.775 69.775 0 01-3.034-5.165 11.68 11.68 0 01-1.393-5.574c0-2.838 1.201-5.216 3.606-7.128 2.402-1.908 5.953-2.869 10.654-2.869z"/></svg>